<mxfile host="65bd71144e">
    <diagram id="w641WxwAsfXUVG3Z5q-0" name="Seite-1">
        <mxGraphModel dx="1339" dy="905" grid="1" gridSize="10" guides="1" tooltips="1" connect="1" arrows="1" fold="1" page="1" pageScale="1" pageWidth="4681" pageHeight="3300" math="0" shadow="0">
            <root>
                <mxCell id="0"/>
                <mxCell id="1" parent="0"/>
                <mxCell id="4" value="" style="edgeStyle=none;html=1;" edge="1" parent="1" source="2" target="3">
                    <mxGeometry relative="1" as="geometry"/>
                </mxCell>
                <mxCell id="2" value="" style="shape=image;verticalLabelPosition=bottom;labelBackgroundColor=default;verticalAlign=top;aspect=fixed;imageAspect=0;image=data:image/png,iVBORw0KGgoAAAANSUhEUgAAAi8AAACPCAYAAAAyVzuDAAAgAElEQVR4nO3de1hTV7r48S/EEooERVFRsDNIbb0VsBa1XuaodSyORUvnwdJzrD2iOKNQp9W2o/RQL0zRWm+nIk5F6anj/IpyRkaoU+p4O+NdR0W0FtsqbQVBQdBEKWGM+f2RAAkm4ZYI0ffzPPhg9tp7v3vtHfabtdZecdHr9XqEEEIIIZyEa2sHIIQQQgjRFJK8CCGEEMKpSPIihBBCCKciyYsQQgghnIokL0IIIYRwKu1aOwAhhBDC2d24qUat0fBTlRadTtfa4TgVhULBo+5KvFQqOnbwatQ6LvKotBBCCNE8VVotxSXXuHtXh5dXB5RKN5RKZWuH5VS0Wi1abTU31TdRuCro7tsV9wbqUJIXIYQQohmqtFp+uFyEp6cnnTt5Ay6AHuSu2jQuNf/ouV5ezq1bt/lZTz+bCYwkL0IIIUQzFPxwGaVSSadOnZBbqX24uLhwvbycaq2WgJ/1tFpOBuwKIYQQTXTjphrdXR3e3t6SuNiRXq+nk7c3Ot0dbtxUWy0nyYsQQgjRRDfVGrxUjRtcKprOy6sDN9Uaq8sleXGQ0ytC6N0vhN4r8lo7FCHajNLMOMP74jeZlLZ2MEK0QFVVFUqlW2uH8cBSKt2oqqqyulySFyGaozKP1S8NoffwqaSc0bZ2NEKI+0x39y5ubvJUkaO4uSnR3b1rdXnT53k5tYreUzZbWaikS58RPD/5ZaZHDMZfzqt4QJXu+5SUfC2Qx+q/X2B2cFBrhySEEA8NO7e8aCnN38OWJTMZPWYeW76VT6TiwdRl9GvM7qME78HMf+HJ1g5HCCEeKi2YYXcwC7evZGK3mv9rKS04wf5tn5GSlYe6Yg+LX1mF/z8WMMrDHqGKB0ZFAdlfppOzTU1YylLCfVs7IHPaouNkbc8k+8tA3vx8BgMtFfII4s3tx3jzfgcnhBCiJS0vbig7qvDyrvnxIfDp8Uxftpkd749ACVC5lawD1kcLi4dUQSZzl2xlV74G68OxWo/6+Gbi13/BkUvWH9MTQgjRehwyYNd/4lSmGH/PPlvgiF0IIYQQD4T81EkEDQwl9IMTNGqwxdUdxA4MJXbHdRuFrrM9LpSguB2U2SlOx263aRzztJHCvfZXfy95lEwIIYSwSHeBA3+9gtLDDW36Po5Xt3ZAzsExyUtFEZcBUDJqQMC9y0syiekXQu9+cWSUALoyjqyfR9hww9wog9bXmxtFV8b5nVtZPCeqtkzvfiMJm7GA1TvzUVv5As975pTQlXEkbQFTXxhpto1NxxqXP6ovHWTLknlMGjPEuH4IA8ZEMXX+ZvYXNZAva/LJXmGy7jNjmTRnFdn5ze9Wu/f4NJzfuYrYl8YywBjfoBdmMjftOKVWv+Q0j2XGsstOGbeRuZTJxjgHvPmFxfk41JcOsmn+zHvqInbJVvZfsnRMZWT8xnjuap9WO0j8mJDa9a3O/aHTcH5nMnNnRDDIdF8rMjld0oiK0mm4uM9w/Qx7pmZ/Qxj20kzmph2kUGteD8PePWhccTOT+5nEZzZnT716s7pvLYWnMllmdu0az8vaBuKv/z4BSg9vNquHhs9vQxp7/uvOX0ymrfeLyXluwRxH2qLj9d5rxvfqvgKr73cANAXsT19q9h7oPTyCSXNWkXFOurBFG5SXw4YrPZj5xnT8yGDn/8l12hgOSF60nN60gV0AvWKIHNLA89K6IjLmTGDq2j1crDC8pL5tsvzbzUwaMpZJby9ly+782jKg4eLhL0h5O4rRb31BYQN/vLVlB1k8aSxTV3zBkdqbq2Eby6ZNICazyPrKlQVseXMkg16IY3H6Hs6X1CUq2pJ8jmSt4s/HbVxwP2YSGxbF3DSTdSvLOL97M3Nf+hWxWTb23ViV+aS8NpZJb29mV35ZbdOj+tJxslfMZNgv5pHd4G60nF49lUnvbuW0MU5tZb1RKSZ1sSzr+D11sSt9KTEvjGXSBwdbcEM1UbSH+MixTHp7I9mHC6gZhaItyWdX2mImj4lg8QHrN1Ptt1uJ/cVIwmIN109pZd2xluYfJ3tFOkcqrK7eMmUHWRb5C0ZPWcwms2vXeF7WL2bymJHEphc03FSsK2P/+xEMm7HKrB5qzu/oOZkNvgca1ojz73BazqfNZNgvZ9Z7rxnfq7ERDJuzlYuVFtY8lcyk0RHELNlq9h6gooDzuzcTnyNd2KKtqeb4rm1oe0xiZORwXuoBf9v7T+rfTbTnM5g/dQxBA0MZPnU5u3+0sKnKC6QnRDN8YChBo6NJ+vulBvZ9lpUDQwlauYPdSYb1Vp6GM2tCCRr435wxKWnpNTM6Dfk7lvPq6FCCBg5nTPRytn/n2CYk+yUvOi3qH/PYsvA1Xk0rAO/nWPXxDPopbK928bOlxP/wK5K2HeDb87mGn7dM5szQlHG+Ukm/CXNJ/Xw3584ay/xzJ6n/YWjVUX+5iFW7bSQP1QVseTeOjI4z6rZx9hiHty0ksheAlv3vLmCLxQsij9VTolj8pQYIYNxbyeT841htrOcO7WTb+1MJtNY7VrGbZdMXc3TwXLblGNc7e4x9W+KMT2Fp2LUkmV0tuoEWsOXt11hdEMybG3dy8rSxjk7vZsf7EfTzACr2MPc3yZy2cZfU7l3H3HQVszfurKvnjyPoUlsgj9WTIwx14dGHyPc2s++YSV3kbGZhZB+UaDn/aRyvrs4zuSn7EPmxcZtbphpfG0HS3ty68266Lwwxx0+eR0a+FuXTM8zO/7mczSyMCDAc+28WkWEhMdOeSmbyK0sNddvrOeavy+RwTd2cPcbJnM0kRffC0MkZxHxjHIffH2HcwlS2nc+1fF02pOQLYsLi2JSvBe/BvLkuk8P/rNv34c+TeXOYCsP5jyLOVvJMNRe3LCImU8Vsk2M49490kiIM7wHtvsXMtVQJTdDg+b8Pzqe9xuQVx1ETYLi+/ll3Leesm8FAD9DuW8qMtcfNE76KPSyYuZHzlRAYsZAd9d6jOz6MY5TM5C7amuoz7M6qRvnLUPrwJIN/6QY5X3DghkmZKzuY+x/L2VM9hvg1Kaz+dxWfvrOc46bb0V1h+ztTSNpbzS/j17Bx6WRUn/2epacbEcOWNI4P/ZBDp08wz+KjlQ0eBGc+ns7k5fkMXrSNvVl/ZOZj/2TRa4nsvtHw2s2mb6qTK/WP9w228fOc/tWUA/rv1Da2UbxdP6NvsP7xvoP1/QfF6rcV2iib+zf9n762srE7l/R/ijLu963d+pv1Fl/bHlsX18zt+st3LGyjsCaWYP2oj7+ut7BKf+qjFw3rD4rV/+mbKhuBmjv1YV2djFp2TH/Twr6rTq7UjzKWeTPHVoVZZnZ8E1bqT922XK7q5Er988ZyM7aX1lt6Rr/UuKz/oBf1S49aP8avPq6ri20/WI/r8vZYff++wfrH+76oX1e/SvV6k2soVr+t2NpW1Pov3xpsiGu2lXN3p1SfVVPmD8f0ZpFXndGvmmA8rtnp+u+s1I0ldfW6Un/Kaqm6elt60nrsj09YqT9s9dRW6U99WFOn8/VfltdbXFx3bT7e18r75E6hfttMY5mxqfqvGn2U9x6H7fNfWrufe68hy+Ue//DMPUtr63bmdv21+gu/TjVepy/ql560EsfZmjKv6v9kcg1e2xFbVweWrhUh7Oyr/G/0lVXVLfqp2PMH/eN9Q/WJR4yvHflQ379vsP63f71eW+bIslD9433f0P9vicl6X76nf7xvsH7a1mKr61WW79O/0zdY//iMDP2PFvd/Up9oYfmRZcH6x/t+qD9i9bVi/ZYZJuuVZOl/W3/flzL0/943WD8n+3qT68T056v8b6zWvwO6jco4snYer85aSkaD4zm0dJkeR6SfjSLB45nSR2V5mSKAZ1/oY/h939dctLoRP958PQJ/S61AfmOJnGD4tfBMgfmYi4q9bFxfACgJf38pU3o3Z8rg55g7czBeFvatfDqC6QMMv7fsqSwlU+JjGWhlPh3l07Es/A9D7PtzDlj9ThntyJnMttbNpz1OxgZDjKPeXUTkY9aj8Z84j/nBAAWkfN7McQ8//o2NO7XACBYmWDl3Ch/CX3kZJaD98x6OmHwUV+/+lJRLgMd4Vv3hZQLv51xDtbH7MX1JLM9auXxBycDZ85jiAVR+QcZ+691f/q9beZ8o/Hj+pfGG34tyudiC4f82z7/DaTnyl1QuAv7Ri3nzaStxDHiR6SMB8sg4YPKeMe0ya6C1V4i2QcOBzzOASQzub3yp/zNEALs/32t8kuc6F7+rhtDhBHesW1PZ5ylGmmyp7McCtIQyIsjkj41HH4KGNyKMx3vh05LDKLjAbmD3AkO3VtDAUIIm/IHjgKbScV1HLUheBrNw+wFOHqr7Ofz5ZlLfn8ooXyg9tZX4RozneP7pPs0PAfDyMFa7rUryGM+zA6wtVBEYYozhjnn/vvr4Pwxjdzxe5tWxVu9Ato0ey1BvawsDCBzUvM2a8XiZiTZvOkqe/sWLhl8PFPCdlbERzw4LwmrLeu5BtlQCjCdybAOXuklSqf3yOOdtl7ao8NgeTgOMfI5Rtiax6xHAswAUUFp749ZwdP8eAJRRrzDOav07Rm3sfhFMtHYTruERyr9NNPy6//AZLM8so2TiMOvvE6/eIfQz/l51p8nh1rJ5/h1Nd4b/+7MWUPL8mCCs15oPj/c2/Ha+sC4N79I7BH+AolQWbcizPahXiLbgxiH+lgOQQewQ401/yBukAxzawe7LJmXdMH9P6LAwTs6tXuKuhfv45FLUmr0c2mf+s2x8Z4ftrwUz7NZMUmfykncQo3oFMWriVPa//xox6UXsmr+UjMHJRFq8AQ0m0L+Ru9NqKPz2ay7/UMDRS6Wovz3IqcIyLuY34qPmID9s7aY2Aarn4tkvDL+MDiawuZ/mAvxsjhlwt8enxEEBllsmTCjb11z6lygsBSycj36PWW8CK71iHPw1IITARuRxgX0HA/lQpG7cvAX19/eDsUf3wGKG9VvciDWOc/Eq4AdQwKmdhlfHPWXhaTcHq419ZB8CGyytpP9TIyD9IKit1VUo/t0sLjDwcKMrNCtJNGXr/DtcaZGx5VTLpikhbGrMOpeKKAXD+2vAq6yK3snktAJOr5nKoE+DCJ/+CjOeH0M/P/mSNdH2aI7uZTcwcvYaXnvKZNDkdxnMWLmPnUevENXThy49gIyzfF05iZHGFmRN3iGOQ23ri8qnB5BBXn41L3UzbutGHgdPAI1pfbmHFnU14AboCsg9YaNoj58zEjjwzRXi/+3+fVVKC5IXGxQ+jHo9jnHpC9jFQbIPFBFpsc27fqZogSaPLUuSWLYzv1k3Qbvo1qX1PpHeT480ooy3WxPr4hLflcDAVvoKgK5dmtliZg8eXjZaECw4UEAh3NcBsmYac/7bLCUD38rk8LCNxP9XKvtL8shekUf2CvAaNpVFv48lvFndvkI4wnX+/vk+IIyIqOEMNv0z9TRErd9H+l8PcSkyksHjp+CXsYW5cZ1ZPPMZVJe/ZEPKIbOtKUPH81qPDD6N/y2dE2Yx5NHv+dum9RxoRmS9giahJIOVSQEQ1oOiv/+ZTFsDb7uNISJsOXNTZjGDd3h9eACoC8jdUUbI0ikENyOGxnBM8gKGVpghsOsYHPnhOsaPxE1TmceyV6ay6ZJhe+ETJzB6ZACB/n3xV7nh5a2kNDPOZF4OB9G1xUnsm8uPLi3pRqmoRk1TbrC9eLwliUv05qY95VPfv1qw75aqNLSkNPqWOTLAZgvhw2EESXuttdQ2rMuwGaTunYH60kEyNmwwfM/a4c3MnXSAI6uTSXq+FVuXhKhxeS+Zh4DIMEbW/3zlFszYiW6kp29hz4VIYgb+jo1Ltcz/II35szIIjvwdixepePGNLSbrPMW8PyaifXc5qQtmk/5UJPPeS0QV+QafNjE01b/NYtVrl1iYsZzY/3uKqDcSmKeaTKzVDakY+4cM1nVbw8r/l8CrKaDs9iQjf/17XmrivpvCcckL1WhvN1zKlvNbFhgSl+A4dmyaYXjk9z7y6t4HyIeTBVxkcCO6AFpJIxKKi18buzIG9KJnMz6AevkY/+ifu8RlLQQ2sI3Ci/nG/fk1q9Wqtu6/ukghQU28qavwHwCcgyPfFcCQ+9t1VBv7uSIKocHr5rtvjMm3n3O08H1XWgZWh/hp0DbnsX/vLsZzfJCLP2CxW7MpvHqNYPqyEUx/N4+UWTGsPlVAxrubCR+1gGelAUa0tp6R/Ol0pJWFbgz+/SHyfl/3il/YO/wp7B2zUnmnf1dvm2HEbw4j3vS10yeYZzWIp5hnabmiMyPfSGPvG6YvniCv9v+deSn5hHlioujByDeWM9JsHcdyzAy7AD8eJ+uc4ddRgT2asYEyvjppGOzb74XnrCYupSWOm3gqMHis4Q/quc18ec5hu2m5czs5YmmOmhq6fL78zJBM+I8OblYSphwQwjgAtpJha04dAF0B+7cbkiX/sc3bX2DfwYYWi2OZ7Ld1bBYF8PRoQ7J1/n/2cP4+D95s0nVTeZBdGYZfw4cEN62b6b5S0sGYWRV+XWBlYDFm7/umbb4P/Ywd+Ft2H7dfF7EqiNkfzDcM6q78K0fz7bVhIURrckzyoisi44NVhicuGMG4Z1v0IBYXi63cLIsyWb3JDrPTWjNgPNODAYpYPX8VR9rsrM15LPvA+gyrhRnJrL4EEMT0Cc18ust7DDOiDQnBroULyLCRUBRmrWTZGcBjBHMnWtifws14ky5Da2GmVACCf8VsP2jo2ADUZzaypd7Uj/0mTGUgQFEyc1cfb9rTJ7XjsLTcbM5ddMCLzB4JDV83Wk6nrDQ8xdVrBq+OasXxOQ1S0W+Qsfvuy8/IsjR5p9n7vql8eH7icwBo/7yU1cdsvNl0RWSn7bH6yL91AbTmECghhP20IHmpRntDg7rC5OfHfPZnriLmly8Rv8/Q2z/q/QXN7L/24Wljc782bSHxmfmU1txItGWc37mKyZOWcbN3yx61ts2PKSsWGmbCvbSZqWEzSdlXYDLFPGhLCjiSuYplO1vx+zUHBNHv2GLCXktm/6UytLqa2PLJWBhF2BJDt0TgG/FMsTE/i21KBs5eyvReQOVB4l+KIj49j0KNydcD/JjHloVRhL17EC1KRr27gHBL575XX2MrTj6btuwxfLeQTsP5A3l1NyRFH6Z/MJVADLPHhkUuZsupItQ1u9NpKb10kE1vRzHsleR7k5vHXmbV+yNQAhfTZjL6NxvN6saw/nEyVqwiu973C3V5wvjYLVv5c7rxu7N0Zew/3NhWPh8i37Nx3RhjT5kxlslpBUAA05fEMLDtNrsA4P/8K8bzlsfiOYvJOGdyrf2Yx6a3ooj/IZRRVqclsM0rbC5Jo5VAAZum/Yqp6w9y0fTrJzRFnM5cxdRfTGDuMfO2n9PrpzI37QvO/6ipO8fGuFKSlnEEIDiCZ3/WvNiEEG1LC8a8HGfxSyOx/hCrinHvbWZVRPMHyAVGLWb69qlsulRAxrtRZLxrulRJv1mprPLfQJjVL1ywA78Ikj+rZu5/LmVXxXFWx0aw2kKxUe9PtfDqfeIdwdINg5k7cyMxL2y0UEBJv1lr+dP0FiZ6HkHM/59kmDmPTfn5ZCyZSsYSS+X6ELl4JUkTrJx71QhenRVA9voCCtPnMTrd+PrIhRweWTc4V/n0XDau1jDjzUwu5meyeEqm5eutVwRPW+iZ9I9YyQ5tPJOX7EF9OJmYF5ItrDyCpCn1XurzInNHpzJ3n5b9H0Qx6APj69Gb+XaY5UO6RyOvG7wHMz9lJdOD23jmAuA9ngXLdnN0/h7UlzKJn5xp3r/uMYKFn81DueIg+5uzfYUfkR9+SunM11h9SsORtXGErbVUUMnAIX3NxwfdziN7reHpIot6RbBuxcvNn/JACNGm2L3byKvXYMJnLWTb3gOsiwpoWR++RxDzd+xm81vjebZXTXuvisBh45m/cSc7Xr8/k2ope7/Mun/sZtv7MwgfFlC3Tw8f+g0bz+z3N7PwVy3rGmspr6fj2PH5BuZPHExgzdNE3gE8O9HwnVA7Xrc8y2+T+YxgfsZuctYtYMrYPnX7QkmXPs8x5b1kcvalW09cjGUHzt7MtvfGM9BXWRvruEGB91wv/s8vJOdQOqtmmV4DhvL9xr7MwnWZnNyxkHEWW/eUBEat5OTezSTVW1/p24dnJ84gacsCJt4z0tmH8I+2kxr9XO3xKX2DCO/btAmXzK+bPnSpHbdluIZnv7+Zw//YwPRg5+nL8J+4kn3blzJ9rMnxeAcwLnoh23KSmdK7hcfi0YfZn/6DfRsN11ddnSnp0qfmb8sxtkX3MbtW+k3eYDjHfXzqXjd5fx7esZBx8qCRsCNXV1eqq+/jLHAPmerqalxdracoLnq9Xn8f4xF2VPuY+MiFHL7PX6AnhBAPs4IfLuPp6Ymnp2drh/JA0tzScPvWbQJ+1tPicsc9bSSEEEI8oFSeHtxU30SPfP63N71ej1qtRuVpfX4USV6EEEKIJurYoQMuuFBRYWv6WdEcFRUVuOBCxw4drJaR5EUIIYRoIoVCQZfO3mg0Gq6XlyMjMFpOr9dzvfw6mlu36NLZG4XC+kBNB86wK4QQQjyYXFxcaN++Pd27Qll5BVeKr+Cl8sLNzQ2l0gmeHmxDtFot1dXV3FSrcXVxoXvXLrRv3x4XFxer60jyIoQQQjSDQqHA07M9bm6PoLl1m9u3b1NeUcHdu3dbOzSn4urqitLNjQ4qT1Se7XFzc7PZ6gKSvAghhBDNplAocHd3R6FQoPJs39rhODWFQsEjjzxis8WlhjwqLYQQQtiJtLo0j605XSyR5EUIIYQQTkWeNhJCCCGEU5HkRQghhBBORZIXIYQQQjgVSV6EEEII4VQkeRFCCCGEU5HkRQghhBBORZIXIYQQQjgVSV6EEEII4VQkeRFCCCGEU5HkRQghhBBORZIXIYQQQjgVSV6EEEII4VTaNbbghYIiR8YhhBBCCGHmyQA/i6/Lt0oLIYQQwqlIt5EQQgghnIokL0IIIYRwKpK8CCGEEMKpSPIihBBCCKciyYsQQgghnIokL0IIIYRwKpK8CCGEEMKpSPIihBBCCKciyYsQQgghnIokL0IIIYRwKpK8CCGEEMKpSPIihBBCCKciyYsQQgghnIokL0IIIYRwKpK8CCGEEMKpSPIihBBCCKciyYsQQgghnIokL0IIIYRwKpK8CCGEEMKptGvuiuU3NdxQ36aySotOd9eeMQkhhBDiIaFQuOLhrqSjV3s6dVA1ah0XvV6vb8pOfqqqprCkjHbtFHTq4El7D3faKRTNClgIIYQQD7c7Oh23K6sov3mLO3d0+Pv68Ki7m811mpS8/FRVzcXLxXTv0onOHRuXHQkhhBBCNMb1GxqKS8sJ7NndZgLTpDEvhSVlkrgIIYQQwiE6d1TRvUsnCkvKbJZrdPJSflNDu3YKSVyEEEII4TCdO6po105B+U2N1TKNTl5uqG/TqYOnXQITQgghhLCmUwdPbqhvW13e6OSlskpLew93uwQlhBBCCGFNew93Kqu0Vpc3OnnR6e7KU0VCCCGEcLh2CoXNaVhkkjohhBBCOBVJXoQQQgjhVCR5EUIIIYRTafbXAwghhBBNdeOmGrVGw09VWnQ6XWuHIxxEoVDwqLsSL5WKjh287L59SV6EEEI4XJVWS3HJNVxdXfD09MLHxwfFA/IQyMVLBQT2CmjtMNoUrVaLVltNWXk5FTdu0t23K+5Kpd22L8mLEEIIh6rSavnhciGdvDvh5aXC8KU0evR3m/TVem3ag3Qs9uDm5oabmxKVypPr5eX8cLmIn/X0s1sCI8mLEEIIhyouuUYn706oVCruPqA3+QfzqFpAX/sPnTt1Bly4UnKVXj97zC6blwG7QgghHKbixk1cXV1QqVQ04XuAxQNEr9fTydubuzodN26q7bJNSV6EEEI4jFpzC09PL0lcBF5eHbiptv59RU1xX7qNNHfg9h2ougttpcXQ1QXcXaF9O1BJ55kQQjhEVVUVPj6dWzsM0QYolW5UVFTYZVsOvW1X34VSLWitz/Dbau7qoVJn+FH/C7oowU3aoYQQwq50d+/i6vpgPFUkWsbNTYnurn0SAofdrqvvwpWqtpm41Kc1xlrtBLEKIYQQDzuHJS+l2rbTRdQYd/WGmIUQQgjRtjkkedHccY4Wl/q0dw2xCyGEEKLtckjyctuJEwBnjl0IIYR4GDgkeam6j60uFzfFEh+XykU7be9+xi4eLNeyEomaFmvyk8iu4taOqnGuZSUSFZ/DtdYOxJqTqURNS+Ur43+/Sok1+39bdi0rkaiU3IbLtLX6r1fnrenMmlCCBtb/+W/OWF3jOtvjQgmK20EZQPVZUqPGMDn1LG11dEDpime40M/kZ3gk38xZQ+Gp6zTtM3Ue3/d7hgsr8hwUadvgkKeNnGmsS33OHLtoLSXsik8kjXA++iSMrjUvn0wl7QrQvRVDsyiXtGnZ+CclMK7NxdY4/WevI90hW7Zj3RTn8F58Nt8AhNohtIfeaOatj6Rv7f996NXYVbVqiq5qqP5X3UtFe5ezcm0ZI/64nJe62TXQFhiDx8ZI3LRX0J67wL8yt3F7yhYuRafR860gHnXQXm/sXs71NWUoNy3Hv83UhW1OP8NJ4PR1JLV2EOKh9lVKImn+MaTPDjFfMCiG6NYJSbS6XNLis/l53DriihKZU9ja8TwI/AgZGkpwc1ZVDWfRvhNmL5XlZbD7++GMsEts9tID92GhdAEYDcyexdXV0dxI+y3FT31Jr+dVDtnrv3K3cefScOz3tYmO1wrJSwlHExO59kw4V3Zm8yMhTI+BTam50C2ctxPC8DYpl3W1Zj1fJiYkMNSYFVZ8kciHO0uMy0KYnhxDoMleKr5I5MMr4bzdI7uu3MAYkqbXu8EI0RLFOWw94Ut0kq3rKpe0aakQt47oQTWvGVprCn9tfO1kKlHJkP8kBU8AAA40SURBVBAHicm5EBpD+myM68VAciq7CCHhkxj6Y+g2Saz9W1z3et2+EvD/SyJpxm6rcXGm+zF2YcTHkmZct4tJtF+lxJJIvWSsOIf34i/zcu1+TBlbnmq7yEzjMSw7ODSBlwsT62IONd2+5ZifiEhgyURfizV6LSuROUdD+SippqWrXgzdw02WGctn1vy98CXaUsuKlbrpX3v8xlYUC9u/VwjRn6wz7LvIaqF7mcZgVo91x5ww9ASJmSW19WN+LZgem+W6v7deDfW/y9qxmR27eUxtRuUF0pd+wNrPz6Lp+BRR8bPoY1bgLCsHRvPpa2nkvdGD7XFhLDoEcIhFYaEsGv5f7E2ehE+rBG+DQkW3NxP4KT0a7e4TVD4/Bg8A3XWubljCjU2HoFKFy9hX6fBeNN2sHYDV8tcp/M3z3D4AcIjbo5/hwsgEun88CS+dhutZ6ylfsY27FW7w9Iu0X/gG/r3d7tvh29JqLS9Hd15menIMX8WlsikrnLcTerI18QQXroYxtBtUfJENM9eRZExWLm6KZdOGHJ40Jjfe4xNIGg+cSSU+1cpOTqfyITEkJYfA1Rz+mJhK1pl1TGxW6i6EBVcu8033UOLs0v2SS+KxGNI/ian9P8Cu5BMkfLKuthWnNrn4xHDzv5aVyJz4HLMbzq7kVKKT1pHe3bg8OZUhn8TQf1AM6Z/c2zViOtai/5AQSD7BV4TU3ThPnOCb0HDLN63iXAqHJpBuvCF+lRJLYkquWfLzTWYix+LWkT4bam6qUSnmCZJpzIYbaiLvYT2BqVN3kzaNYU6Kr2H7J1OZk+lLwicJhvhP5tTdqE1ZqRtDQlFCdNI6lnSvOwdz4mkggWmi4mzmmJz/a1mJzJmWap4sFGezlQTSP6mpk1yO1b8W1uYQYhKXWd2fTCUqOZVdoTXHZ0hcvo8wqbusHJOgcklc25OPPllHV2M91z+3rU53he3vTCHp9JO8FL+GX/XUcGzD71l6ARhoaQUVQ36TwjyP2az8+5O8tvR3jPTzwzFtGnag6IP7RNBm5XObMXhwnStzwtH8MB6PDVl07FjA9ffe5sZ/Qrsd0XS+Zz5AW+WnoJq9Hr3HLCq/fBK3D9/Aw98Pd6opTYmm/FMVyg8z6Byo4cbHidx+ZQnFf/8D3b1boyLMtdqcso9NCK9tKRk6MQzvbr70MFnuPT6mtpUFIPCZELh6mfKm7KRbOG/XtLR0CyGkG1y5UmJ7HSGa4FpRCfj72ukG5kt0xL03hSciTJKG4hy2ngghweTm0XViOOOKT5BbbLpOTO3Nt+vEcMZRQlFjBw8PCmUcuRw7WfNCCblHSxg3xMoNq3sY0SYJRv8hIVBYYj74NDTGpNXJl3G/DoETJ8wGg5rGDCG8EOHLN0dzGx7EejKbNMKJM40hIpwnTLffvWdd69KgsCaMZylh119y68UG/WfH3FPnLWfhvJqdB0OZl82SuRCiTdcJDeWJ4suUmq5iWveDwonuXkLhFcN/r2Vlsys0xixB7D/RNCHzJfr1mv9bPm/3zxZeNR2wu+as4eW8DJYegrEJ61kUOZzBQ8N4PTmRCZXWtuOG31OhhPQA8CFgYCiDn+rRhrtM3FB4AJXVANw9t4Nb+3x4dFkCPZ/ugarXcB57fTJc+iu3v713bdvl3egQHIq7H4APjzwTSrfgHrhV7EW9voB2i/+bn48OQPVYED1nT8G1Moefjtvnu4laqu2Oebmawx8Ts/nR7MU2lO0LUcN4o255AuOLn4Wb6s/9TG5WVy7zDbkkTou9p9w4k8HBZusAYLxhNeqmHcKQUEg8lkv0oJDa5OCjQTZWMevuALr3NFv8hH+9eHr05Akum71UP+au9xyDZdeKSqA4lznTsust8aWoGPoPCmVccipzpmXXdZ81WgmFxZbq0xf/7k2p00YwTbBq9wGFNstwb5dWvb+T99Q98H1RCQyC3KMlPDHUVj1bviZbR70Buz4/B6DsxwK0hDIiyKTtxKMPQcNh+32P0RE03LkKDOiBArj17Rn0XOGnyc9woV7JuxYStqaWB6Ag3/CE09ujufB2vWXGJKq1tdHkJZesxGyYkEDSeOMby1b3kBCtpKufLxg/6dqt+6BBjh930D8inCfWGpKy0mO5PDE03OrxGcZchJDwyTpjt0wqUX9xYHCW2ByDYhh/El2cw3vxsUQ1uf588e/RcKnWYBjLQ12XlnFsUlPcm5i1VbYG7LqBWXeJFqoNLzu9yjx+2glE96EjcAuAUDy2L6dzvSeDFF7WNtLU8gZu6/bRrV6bgYtH2+hga5tfRXi1hCtAjx51/bpZqbbnSRCiVQwKJ7p7LluzbHVHGj5BmzN8om+yHj15oildQM3VPYQRnCC3OJdjJ3wZEWrtBmdYHp3UxGTqymW+sdSKYKKxXXKmCaRN3cNY8sk6EkIbOl+mDC0sB0/UL19CYbGjk5qG9mHszotr7mPdvvj5w65jzv23VeXTAzhEXr5Ji8CNPA6esLqK89Bd4crCD/iXx3BUrwbhCnj+LAA4QfVF8PBWmf0oLXz/ZVPLA+AXgCvwr/wruNdb59E20r/WNpOXbmG8PMGXo6mxxMfFEh+XTdeYcB6rLVDC0UTjstRcIJdNcbHExyVy9Kr1zQphf76Mez0cMi1MRHYylbSThjJ+/rDrL3WTkH2Vkmp50GhDuofxcmgJaWtNJzQrYVdKUyc4qxv3YJkvIUPh4NpsdnUPJcTqzbH+zT2XtOR7b4bfZKaaTNhnKDPu1+YtJbuSTSZEK84hOROLY4DuYUwgE83qP5c04/+vZZnuu4SiBh9bNq0bwzgP8/iN5y803L7z5BRnk2ySVDW8j/rJRwm71pp2HzXMMDao5jo17jerjU2WV6uI3KMnOF77c5aialCGjue1HrA9/reszTnB8f/LYNGc5RxoYGt+AcOBE+zZeYgDe88aJrNrdVeoOnyCq4dzuLx2Od/+YiKafSqUGz6kh7HVxDV4PI/2gjsLf8ul9ENcP3eBq/t2ULAiB7WFLTamvDLQUBfaHYco2Z2HptsYPCe4oV/7Wy6uz6H03AVKD+fw49tbGv6QcJ84pNvI1cXWZG++DE1Yx1Dj7xOT1xlfD2Fict0fqtqniUwMTba0DcvuXb/hdWpiF6JJuoex5JMQwxM000xfD+cj4yRE/WfHMG5aau24jHFxCUQXJtKc6T/6z04gOj7RbIzHuLh1jGv0FgyDYeckx9Y+fm2pBaRraChkZjMuztYTNYbk7WB8IlGZhm0nxIWwq1630RMR4bA2lijTx6DrjT0ZFxfKsWmxJJoeU6OSA1/GJcVQOC3VpP4NjwwDdPWDtPhY0mpjsfUE0711039QDOlxqUSZbMP8UW876R7Oy6QSNa2k9v8f2XwEv+66Mhy3L9Fx4TyR3IRuo+5hLEnC2J1mFBrjoAkAW2ofK2ftM/n/cBblrOGlbk8x74+JaN9dTuqC2aQ/Fcm89xJRRb7Bpza25vPLWczbl0/y2jfIDVvOjjGOjr8x9lI5Yy+VAL5P0i4igY6vTqKLaXeP4kn8P0uj6P01VK74HWWVQK9Q3Ga+g7ulTTaivNfzs7mxew4/rfkdNycsp/3YILov+19cuq1BveW/KF9rjCfy93R26PE3noter2/UnLJn8gsI7hPQqI2WVEGlrkVxtRoPBfhavAKEeMjYnNulseoeY7aeMFiaB0c8KM5f+JaAn/+8tcNwqILvv3/gj9FeCr7/nn5P9m5UWVt5h0O6jdq30WHAjeHMsQthP8YuiNDQtjchmRDioeeQW7WqHaj/BVon+5JDpashdiEeZrUztjqia0QIIezAYbfqLkq4UuU8X3To6mKIWYiHnX2/9NCXcUkNjcepm0pfCCEaw2FPG7m5Qg93Q2tGW6c0xurmBLEKIYQQDzuHdpK4uYLfo6C5A7fvQNXdttMS4+oC7q6GMS7SVSSEEI7h6uqKTqdDobA2qYh4WFRXV+Pqap9Wgvty21ZJgiCEEA8ld6UbVVot7T08WjsU0cq01VrclfaZ9lg6SoQQQjiMZ3sPbmnaxpf5idaj1+tRq9V4trdPEivJixBCCIfp2KEDOp0OjSQwD7WKigpccKFjhw522Z4kL0IIIRzG1dWVLp29Ka+okATmIaTX67lefh3NrVt08elkt7FPMhJFCCGEw7i6uuLh4UGPbl0ovV5BZWUlnioV7kqlDOJ9gGm1Wqqrq7mpVuPq4kL3rl3wePRRXFzs8x08krwIIYRwqHbt2uHh4YGfmxtqzS00ajVl1dXcvetkM5naUPD9960dQpvi6uqK0s2NDipPvFSetGvXjnbt7JdySPIihBDC4dq1a4erqyveHTvgpfKkkV+rJ5yYi4sLCoUChUJht0eka0jyIoQQ4r5wdXXF1dWVRx555IFqdRGWubi42K2bqD5JXoQQQtx39v4kLh4ucvUIIYQQwqk0OnlRKFy5o9M5MhYhhBBCCO7odCgU1lOURicvHu5KbldW2SUoIYQQQghrbldW4eGutLq80clLR6/2lN+8ZZeghBBCCCGsKb95i45e7a0ub3Ty0qmDijt3dFy/ITMkCiGEEMIxrt/QcOeOjk4dVFbLNGnArr+vD8Wl5ZLACCGEEMLurt/QUFxajr+vj81yLvomzhT0U1U1hSVltGunoFMHT9p7uNNOpngWQgghRDPc0em4XVlF+c1b3Lmjw9/Xh0fd3Wyu0+TkpUb5TQ031LeprNKi08lkQ0IIIYRoOoXCFQ93JR292tvsKjLV7ORFCCGEEKI1yCR1QgghhHAqkrwIIYQQwqlI8iKEEEIIpyLJixBCCCGciiQvQgghhHAqkrwIIYQQwqlI8iKEEEIIpyLJixBCCCGcyv8HZqYLqrmd91sAAAAASUVORK5CYII=;" vertex="1" parent="1">
                    <mxGeometry x="120" y="40" width="469.09" height="120" as="geometry"/>
                </mxCell>
                <mxCell id="6" style="edgeStyle=none;html=1;entryX=0.25;entryY=1;entryDx=0;entryDy=0;" edge="1" parent="1" source="3" target="5">
                    <mxGeometry relative="1" as="geometry">
                        <Array as="points">
                            <mxPoint x="355" y="840"/>
                            <mxPoint x="799" y="840"/>
                        </Array>
                    </mxGeometry>
                </mxCell>
                <mxCell id="3" value="" style="shape=image;verticalLabelPosition=bottom;labelBackgroundColor=default;verticalAlign=top;aspect=fixed;imageAspect=0;image=data:image/png,iVBORw0KGgoAAAANSUhEUgAAAgMAAAHDCAYAAAC52xl+AAAgAElEQVR4nOy9fVQUV7ro/ZtxZphxjp7xHSXdgnPiqFyFnNiGIImDd2LiJSYRDMlSyHsICYR2ltBxTcx8KFlogDvorCTmLAVcxxacEOcGwoodIH5xk9F7wlERkdarxleHmBP5aMFzPMEbb8iJqfePqu6uqq7+AhSU/VvLJV21P5797Gc/9dTeu6q+I0mShEAgEAgEgjHLd0daAIFAIBAIBCOLCAYEAoFAIBjjiGBAIBAIBIIxjggGBAKBQCAY44hgQCAQCASCMY4IBgQCgUAgGOOIYEAgEAgEgjHO94IlaO+Gk92hFzh3KsybOhSRBAKBQCAQ3EoCBgNlh+HF98MvdOuTYFswWJFGJ/2fnqNvymxmTBhpSe4QXA6sDxdxaOEGDv9TGlNudn0nNjMrsxpyqrnwm3tvdm13MFeo+9ViCj5OovQvZSw3DVOxnzez6Y+vsuvgFQYm2Xj3X3KZN0xF38n0nT4Hc2YzZdxISyK43Qm4TPCHjwZXaLj5+hw2ZsVatP/uX8yKtdUccQ1OhmHl3A6WLc1gyaIy2kdaFoHgTuPqR6x5ykblwQFiU7N4YcEPRlqi24L+A+tYsCKDBav30TfSwghuewIGA65roRXyZBzszYG7/ia8fD5Mmk7sPbPlfxOv0d6wmaylNuq6BlnecPGTKGInwcSFM4geKRkGujhUs5H8pTsGFZD0n3bw5tos1jRcGXbRxjRXz1G3dR0rfisc8mDp+9hB43WIyCnn3U1rWPtalpgVCIEI0wxix0cQe08UE0daGMFtT9A9A8H4exP8+f+F8d+HLcsg/c9DKCytiHr3FO6NLupWP0XBwWaK3jnF8pGc2jU9Rvm/PDZy9QNcPcafi2s5RBa5g8jesb+IigZ4KHHYJRvbXNxLwbZ9sHD+SEty+3JD/u/BGWKzUThEzM2l/vhgvIFA4MuQnib42x/Cnhw5EOjuh1WO4RILGBdFasaTAAxc6BB3XQKBQCAQ3CQGHQx89zvwXhZM+wn85w1I2Qn/fn04RYOB6/3yH1FTVNNgA3Ts2Uz+0oXy3oJfpJFV7OCsbmmi7/AOT5p7Hs6i6EAXR16X9yNsOqGkce9VeP2UNq9y3OpQptRdDqyxFmb9yuEJSto9ZQ3QUbOOBfer0ocoo56+w9WsyVzMPbEWZsUmsiCzjCPXlLoeLuIQANWsiLUwK9ZGnQu4cY2ze8pYk5tGvLLfIn7py1S0aGVfUSX/PPTKYlWbT7FJXZYH9/HN3iWJa+dofP1llvzC4mlTviP4+k3f4WqdbCvZdUGbZuDaKSpXK2nuX4x12zH6bujSXNjHJnea2IUsyd1I3TmdQhUZlz2c6Nl3suwPzfT7kW3gxGaWxFqY9YuXaewK3Ae+XKHuVxZ5UyLAx0Us0Ovsyil2Fa/U6CwUO+DEZm8fXTlGRb4izy/SyNfrxnWMXcXaNq8odtBxXZumcm0WC+63eMbDm4cVIW5c46zaVmMXsmS1g84gIioapMOxkRW/cOtqI3UXBrRJblzhSNU6Vijy3fNwhqoNsp0teKUZ0NumXH7nwR3kP6Xqj6depuKwdqkr4FgMWL8fVOO9U6X/ex62ecZV58HNWJUy458xaPcVtc4N5Fb18cCFWtY8nOj1LzeucGSbe6wlsiB/M4e6jvmOSbWdyJXKNhlro67rGu1V7jIWsmR1NWd1/rn/nIMit63/Ios1Nefo0Ps+wZgh5GWCnARovQT/W7lolD4Gj8yU/17lgBPDva5/4yJ1f9oHRJC5OIEIAAZofz2DFVXdxD6RTt6jP4Crp9hVU8SyY/9GfX0useOgr8HGorXNDDCBealZPDipjyPFNo5MGmYZgYG/lJNbpV4vDk1GPf0H1rHopX0MTJpP5qonmcg1zjrO0fklPGjJJe8fztHw52Y6uZeUVfOZxhRm/hjo+5A3f1vLF6lpZK56BK53cahuH29mfwq7HeRFzeCXq3KZcHgHjSchelE6qbMnwJyfAv8WWiNvnKPimQze/DSC2CeyyPvZDxjoOkZdx78BUf40Q/vW53h22zlvP0TBpZMf038NcD+VcfUjip7ZzBf3pJGZMYVdNcc4tHUlBaYPsadNlks6sZllmdV0zn6MzFWPEME12mtqKXjqGH27HeTNBrr2kb9iHU1XIcKUROaq2Uy8epFD/3GNASPxuhzYVlbTMT6J0nffICUqcB/g8xRJBDMX5ZI36RgVDacgKonM1NlMZI78ZESXA+uyIg5dj2DKonTyZkdw6bCDxpoilh04RfkHG0gOZo9X91C0ZC9nFqfxQsan1DU007R1JR1fVlP/m3uJANp3rWTToSSWpz3LQ0D/yVrZ1q5N5PBrjzDx6kesWfoyjdcn8GBGLssnQf+59zl7eQCYwNnKLJb940UiZj/GC6uiiLjexZGGi/RBkP0xX3N2u5WiQxNZnpFF9GEHjSdqKXimC+rLWB6FaqnvBzyY8Sx5k2Dg82Z2bV3Jok/f4PBrs7lvVS4D5/ax62CXzjbd4+giTLqXlOeeZNrAOeoaPuLN3GYO/OYt6nNmay1OPxaD1v9I4LX2qx9RtPIcWJ5k+aL3qTvYzJvZa+DXc6h46yLLM9JJOVhL48laCvIimPnBGuZFqPo+Yj6Zz+Uyka+5dLCWN3Of4K9vfsjmR1XGdP1D3syrptEFzFLLPKC0ez6RV4/x8q8+DuOJmys0lWaxaWA+mRnptNfUcuTDzazYEOVp88CJzazIrKYD2T6Xz4az263kjxe7D8YsUgD4rfzvH/6HJH37rST9+3VJintdkp78kzfNn09406n/hUPv7nxp5py50swFT0qpy9Ol1OXp0qML5koz5yRJz1Z+In2lpPuq7Q3poTlzpdx3OzX5z1Q8Ls2cM1d69Z+/kqSvWqRX4+dKM+c8K+04r0rU/7FyfK60sU1X72snDeXJ3d0nH+jZLeXOmSvNXLlb6lXSnHhNLituwRrp7U/6PXlDktEAd3kbj6oOftMvfeFO7pZhzhvSCXXG/k+lMz3asi69a5VmzpkrPfRPn/iU72mTJEmSdFLaOGeuNHNOvvSupgz3caUud93P75YuqVJ90W/cFkmSJOkTu/TonLnSzMVrpYZOg/Oe9szX6OTSu0qf5O2Vdf3VSWnjYln3l75R5f/fdumhOXOlmUUfS19J/dKB38yXZs6ZKy2v8NqLhrY3vH395Ulp4xNzpZlznpQ2tnlTB+2DQOWqbEOSOqW3M+S25e5WN/4r6cRrT8p9U/GJb1n6MvU23Llbyo3X9lfv+U+kL9R6+aZF6bu10oF+VVmbWjRVyH3XJ727cq40c45V0phrf7+xDiVJlWeuFFf0sapub9vilPEkj6PHpY1H1aX1Sw2/nivNnJMuvd0hqdJpbfOrfymV4ubMlWY+8YZ04ksjHayRGv5dPuRvLIZavw8e21Tn/Uo6WCTb2Mz4fK++vvlEKl8s9/Vmp0o/i9+QDqvl/ve9Ut6cudLM5TXSXyXJ2y/xSVLeLm8fetqd8Zb0V1W/fvEX5bh6/KttWtc3D21q8fahu263Tajs89W/ePUlffOptCPDyE8IxgJhbSCc9CNozoMIJdeJLsipG8bI5OpFzl51/5jOCzuqWbvAG0Wf/ZdaOoHODU8wa4Nv9s4r1+DcMequA088x/JZqpMTkkjNgF1VwygvMCXTSubsMGVU5jk05UTfC5xi1x/XMeXFlSz/r9OZOG4CE4M9PzxhOrFfnqOx5kPOOE9x5PyndJxTpjL7vx50uzRMiiJ6PNCymYLX4aVnHmdeVAQTJ/i2w83Zf3bQAST/uoAUf5MHAOOfJXWht5zo+IXE0szZb76SD5z7Z3Z1AV1FLPr7It/8XX30XzvG/j0DEGXj1ZWzDbSrpoPG326i8tMIHvpDGWvv86YedB/ouXKK/3USiLLyUpq68RHMeyaLB6uKOLK7mbOrZhMbqBy9DUc9zj+kFnGoppmObsAEU34eRUeLg7q2c5z4+CQdXefoAOAaX3wJTI5iHtBet5k1U2zkpyUxYxKevov+WQRwjE0bNkNeOqlzo4iYMCGIDgGiyFuRpNJNBPOeyiC2aiNnL3TQx1SOfihP/1dmJ1Lpk/8cnf/hv/Szbe8zAKS8aGXeeHW1aeQsL+LQWx9x8Ng1UlR32dqxeGVI9bvrSk10ayKCuL9PgJpmSM0g1d2t42YzbzHw1gADN4ArrTR9DFBN1v3VvmWe7tIuW016jvyM2R49etr9fBozVHY38b8+Qia1Bu0wYjYvLJ/v7cNJ9/JQIjS1KDYx4LXP5YtUsxTjpvPoU/PZdPJYSLUI7ixCCgb+3A7fHwc7V8BPfiQfu/p/Ie0tGPhmGKVRXggz0NXMpl/ZqMzNgl01Xoc9IE/4Jv9+O5mzfLP/8O8mwOWv5Wnhu6bcksdtHr1PO1UZkowGRC/fTPXVV3m5ch+b8vexafxkHsrbzBvP3RvwYuSeQu+YNJ3kRx8h9dksIs+Xseatc4Ntki8R81n7zgZYv5ldVUUcqSpi4tx0Xv3jOlJ+5keufnndaJo5yFua4qO009Hjf0AkcNb9+4bSn4+uoXq5TtcAP45i4pfHuAbw858Gf/nK4Vp2nBuAyenkPKqNUgbbBz64A5mf/9R3ajdqBrHAka5+4+ULNT42HMHfqi+MnillmHLfw6QuTGNJ/AD7czfT5E7zs3TKd16jYJ2dxtdtNL4ewZRF+ZRvymLehAgefKmG0hsb2FRTTcHhagom3UtmwUY2PBEoggOYzpSf6A7p+u6rbwBm88Jra/ilwZJI5PQAxSvjKHKKr/3MjEkCmrl2XV7qcKMfi0OqH4z7D2D8RE2w9EO1bbj7/p4sNv86ick+macwQ/1z8b3aZUN/7R73wyDCqplMhNpOiAD1qxsC2GfE98Q7HsYqIc8M/Om4vGmwcjlIEqzYBZ8Hi6wHSURUEhtet3HkqTIqf1/OL+vX8KDauCfP4cEFfi4yl5X/r8vOVj1ovwq0aUhF//UwNs9838/xQDIaMW4yD64q4/DKa3S07KWydCN1r2fx8iTv2rkvF6nbVE0Hs1n7pxpeUIKPPkdN6PUaMeB7oYqYlcaGd9JY23WOpt2lrNtWy5oXIoh2r5P6obdPvUFgKEwhbsF84wDPvfnx03+jDwKvrS6w8eqiN1ixrRbrb2ezf0sa0W5nPKg+CICRPF0d8sUylGfDb3ylO3CFv14AiCBiHAwcrpbXltPKOPiHJMXWT3FGl2tKYi72v+TS/+kxGio3UuTYzIrfTJDf/Dh+OsvXV7P8912c/dDBqxt2sOu3K4kw79bMmvhyhQH9huHuixwB+J76wnWNiX83nwfvCdZYY4zs56/n5Tv+6Mk6uzIci0Orf9BcnciMxPmG+4M0+LnID3yp814GY3LIXP2afrT2GZbvE9xRhPU0QVUrvFAH65vgwwvB0w+J2c+ycdV06KqmYOsxBoAZfy8/69+0zU672hHduEb7gWPyxqGp03kIoKaGBvWmxi4HVboljSlTfy7/0fYJHe5A4fop6t4Z/F11SDL6cI3Oz5Xd3eMmMGNBOqUF6QAc6vD9MIQ3qLlG52mAiUx0B0s3ujj0Yatf+Qa+UbuUnzIjEaCVs6rd0J17a9CoytVFp1JnRNRsUl7cyNr7gK5P+etVDIldkE4E0LjV7mc3fojMmksKwIHtVJzQusP+kx9x5Apgms8v5wJddt4M+oaqiczLK6N0UQQDB4vIffOU4mTD6wMfvsbrrNXyaJ64GKD9nWqOADMWz9XeIRpRV6154dbAiWoqPwbGP8kDs6H/inJy4g88l42BEx8qT53I9Hd10a/03cSfzyezeB2ZAB9fpJMrdH6uJIyIIvYJG5t/cy/QRce/Buu0c+zafcrb5htd1FXWMgDMW3gvU5hMXHwU0EXFNofHftxpGz+8GLB0tf1oxpF7HI9/jAfvCRSsDK3+QWOaw7wo5L5v0Nni5/toCuI3o2ckAbBr116NzJ0NNewaLhmnzGDGeOB0NXUtqjF1/Rh1fxrGGUXBbUXAmYEffR/+739qj1X5v85o8g2dCOa98DKZb9nY9VYRbz60m7WLbZQu+gsFB6tZ8d+cpKTOZ9r4a5x1vM+hWWs5/Chgepy8VdUc2tZMwbLFNKU+SSznqDsAcfHAx6oqLElkjq9m18mNrMh0snzBRDocJ2HObPh0cINiYigy+jDAkT88wZvfe5LlsyeAslseIshM/C9yEmUAH7peje1XA2T+LIKZK63clxZBpeMYRS+uo2NRFAMn3+eIazKgdUSyk2nmyB9fZs2n88G0mM3P3cuDj94LLafY9dITdKY+yYzrx2i4NpEHwXtR6a5l0dPutig7sk8Acxdyn5/b8IjELDY+upc1B6rJWrSXeYsf9zxNMDPPQV6o75eZ8Ahr/pBE0yvNVGYu5kRqGg9G/YD+c+9Td3A2G/7yCBDF8t/mUrdyB4c2PEH8W4+Q+uh0+WmCa4vZ8dpj2rvzcVEsf81Ox4osKqus2Gbsxp4WEbwPjFCCz0Mtm8j/7UUeZDKPvpbF8rU26l4o49ArT7HgwydZ7n6a4OQ1ImbnsjHTYMlDz6x+6lZkcSR1vrKTvpk+InhovZUHI4B75jODZjreepmsgXTmRXRxqEVrtwPHNrJoKyxPm81ElKcNgIiM+cTSzZtL0jw6lZ9EOQXcyy/nBpsJmc3ENisLnnlYGTfvc8g1AD/PZZ2yTyI2cyMvNGRRebCIJf/tI1mG610cadhHe1o1KYv9lx6xwOqxH884cuvg+gSSN9mCPo0xlPoHz2xe+GMWDZnVqr6fID9903CK5bseIzlA7imPruSFymYqP/bKzLn3aWC2bGfDIeK4e8l8JYldrzRTma2MqUl9HGk4x99aZkOXCAjGIgFnBnIH+VK1webzYXwSL/3hMSLoorLETvs3USzfsofqFx8hNuL/o/GtHVS89RG996Sz+aXFisOPYF6eneoXH2FGxBUO1bxN3fkoXvrTG+Tp1/CVtfDMuRPoP7mPXY5PiP79G2xYPIgpYTfjQpFRzwTiFj3MzH/dS8W2HVRs20vvnMdYu3MPG9yb68bdy0t/WsNDpgj6D9dSeaiPiO9NIPmVt1i7eDoR5/ZRWXMMnrBT/oLvYuiU1HWUZ9zLxOvnaHzLwVnlriN6+WaqX0xiClc4VFPLoeuL2fHaSu1d69T5vBD/NUfrdlCxbQe72uCXORvZX5mu2eSk10PK63up/0M6D5oGaG+opmKbg7PMZlqY6o1OK+PgDhvJsyM421BNxba3OdAzl8zXbDyqKDTiPhv1H2znpcWziXB9xK5tO6g81EX0rCjjzXDj72XtP23gofEDHHrFxqYTEcH7wAhTGhveTGfepAHO7qmm7hNFnrm51H+wnbWp/wVaaqnYVk3T5emk/GY7B+ts2k1x/oi3saNiMdcOvE1FTTMDpkd4acce7KmKAmdlsePNdOaZvuZIzdvUfT6DtdvXyTNjChPnLCT55100bJP7rsE1R5bhlSQimMoDOfMZOFYrt7muFRZksbneTubPgwk3meXFNayd00XdtloO9U9gXsYG6t+xeZeNxt/L2ndqKM2YT/RAM7u27aCi4Rw/XLiG6sxgbxSdLNvPa1kkT7ooj6Oak0xckMXm3XspTw22p2Go9Q+eiPvW8O7uDWQumMrAQVm3dad/yC9/s50X5oYg85+289Li6US4mtn11vucuSufd/VjcohEp71B/R9k22lvqGbXx1/z0Gb70Hyf4LbmO5IkSYESlB2GttDeQAJAfPTo/WJh++vyy3de2OWUp7kFgtGI+MKiQI/7K59RNur/Z27gp1CGQPvriayoGiDlzY+170MQ3PEE3UA4Wi/sAoFAMCa4cY0ju6o5BEQ/lXTTAgE+d1BRMwA8wqL5IhAYawz5Q0UCgUAgGC5OUbG0lKP3zGeeso/jyIG/0O4agJ9nsfm5EPaahEBfwzpyd33NfQuny3tJLnxEw4cX6SeCh/6whpSb8LZWwehGBAMCgUAwavgp0+6ZyIFjtVS45J3+E38+n5RVaeQ+/xixoew1CYGI6BlEs4eGbR/JL0EaP5nYxeksz7CSuUDsGxiLBN0zIBAIBAKB4M5mSJ8wFggEAoFAcPsjggGBQCAQCMY4IhgQCAQCgWCMI4IBgUAgEAjGOCIYEAgEAoFgjCOCAYFAIBAIxjgiGBAIBAKBYIwjggGBQCAQCMY4oysYaLOTkZ2v+VfVJp/qbSgho2A/vSMr4c2hzU5Gtp0zfhM4qcrOJ6PCOQxl3blc3tvB+OJuLt+Mwp2fMz7vc1puRtkC3DbuHu+Dpmc/63W+4+bjoqkgn/UNrltVYQiMRpmGgzu1XUOgZz/rh8Hnj5rXEZ+pyKek1ULhznLi3Ad79lPV6oJ400iKNgqwkLOznJxbXu81aotdfJY6i99bQs1zhT/mfcHd62eQPta7bVTgpCq7kejSQpLNIy3LzcZJVUEjd9vKKY4faVkEgtuLUREM9DaUUNKZwpadS4hUnzAvISd1pKQSCAS3Hyaip460DALB7ccoCAacfOBwkWzTBQL+aLOTUaZMl5tT2FKqzSfPMHh/J9vKydHcJTipyrbT5PltoXCn1TsboT+fYKUmz31b7KKpoISqHvzWr07X+bSq7jY7GWUucjx3aKo07mw9+1lf0Mh5H7nktM0PFFKc6r3d1rbVJJcdtCwjrvDHvKsUuX/eN4nrS7/mmeIvqQfYfoEivstO5W6/ZccFFp1wJ/Yex/k547fLH1eh+ALZRHCw4mew4wKLmMT1XO8HUC7v7WB69996jl3e28H0D771LdMIV7dXNre8qrI1cph+zMX1U7nLc1Ke7ch2zzL6nNfpwue8to5lS0288/gEbZ3AhpV+ZlPa7GSUQaENStx2nGClJs+ksS213Z6pyKcEtR3KAfTqzhTPsd6GElY7PI2SbaFbNVYK8qnyZwdumUqnUeuxGZPKVsHH9nVlGdZvhsDjyQhtPTFpWpvX2rXqvPq4rq1a2fRlyvJhs0KZnSZVPu34CjaGZDR5NG31U4+uPcZ5Col+z9g2jHTiticjmULWJxC6v5PR69kjp9pn6+swtL2h6jpc2fV945VhirpN4dShH+eevHr7tpJ01K69VgTsE/15Ezm2hCCaChFppOneJxU+v106HSTZ5fpiKf35PCm9vF050i5VPp8nFdb3KL97pAPr1OfdZedJlcf9/PaU665fLkNTZn2792/NOUk6Xa6rTy+v6pxbfm/d7VLl88XSgW5Jko5vl9u2bp902bAtfur2pJck6fi+EMvS0y/VFJ2XMvb0e3/v6dOc26TJ2idtsvd5frn2/FX6UVGX5FKfX/VXqcYrqnTUfl76kSqPJ5/7WPu/Sj9a9a/SUY9qujT5NfR0SRmr1DJ55XXt+av0o1XquvqkTat0bdO0VS+bPr0kHd2jtE0to16Gni4pQ93mni6pxp+63f3j7g/FJtW2obVJYzvT2Nfx7Zr0HluQJEljZ/7wsRn3MVW+7n1SpT/b91t/oPGkRx7Pmjr1Y7x7n1RocN5wTKnlVLfLx2+469X6IL3OL9cX68pRo4wxjSz6cWdcz+X67UHao9WJ3jZ8fZpbxwYyGfRpIH3qdXC63l/7jeU64ClHL6+qzrD9VSi6Ds9X+/aNtw79ONXX6bcO/Tj30zaf60IwG/cjh96uBsPIbyDsvsR58zSmhJTYQqEnMrOwNM3E+aNOeVNhWyNVPerzgHkJtjQTTS1yVHrG0cj5BKsmqo5MtZJjdtKi2mx0d5Q7CjORnKqU19ZIFSnYVBFaXFoKMa2thhs3IqNM4DnnwnkUkhO8stDWSpM5AYvnzstEzovuyNVE8tMWVX4dPfupbbVQqI5045eo7uLCKEvBMnWC8tcE0h8P9AnTyfxedRd+130/YpnrGz4LkCMkTN/jbq8wfmcFWj74EpaaVHfdenkjOOiRbzLPL/0u9cevyZsKnVfJ5sf84+MTPKkTl/6YZSeu0wJc3vsFRfdNku/03ecf188KXOGPxXoZAL7P3R6zmUp6wD0WKjs1LyE9AVDZZWRqCsm46OrxW4Av6jGksYVQUdsMEJ9CjtlFc6vLI2eO2vYTLdDp8m7oDVC/4XjyQ0yaVZVXO8bPOBrB4LxnTOnp2U9tq65dWMixWbx+w1NvimavUm2r1pdEpqaQ3NOKM1CfaHyL8bjT1IPsf9TtSUyAz7q0m+PUOtHbhqyTQm29ah2rZdL1aSj6jIlW9Xmq/zvrDxyQU6q6mzcvIVmpNy5PfdxCktlFZ7c6v4G/UtuWEYF0HaavdpNsc8uplGcwTj19E1IdJnLSVH1hcI2Srz/eJMH6xPcaZiL5xRRiArQrVEbBMgHQc4k+CL5MECBo6O1ygTnB53xklAmOuujFRVcnxDygv8qYiIqG5i55o6LlARNVZfk06aaVertc0ONkdXajT/6uHojTO9/4BJJplM/hpJkEbGnw2VbFyLtcxDyQomqziagQHXhvayvnDdqqaVPIF4MJPHR/L9O3X6DI35S4Hv00PRH8OtTqjLCMZ8P2q0zPu+B/eh2AKxw6AZb7J/hLoA0qdFzu/k9wDTA974LuzHd50nWNz45/y7L7IwII+p/8Y/FVcC8NeOqcwJMmF4vyLniXDcJE7XTDJj6B5DI7q7MbDZbFQkVvM/K40KCb7sU8LUj9/seTP7yBg0xklHfKuqsTzreWkOHQZTLLY8qn7O5LnMdEun4sTJ1GjM7naOrtvsR5nJRk5/vIl9wN+BlbPn04dRoxXNIc0rcPfJc2Y3R6982jXEzNTlpa4e5E/7bj366C6zMu0cL5shIyHEGm7dtaacJEoV+fo19iwrucCRj6qyDXhEC6DttX+yPY9SZQHcrf6nb5u0Z5CdYn/q5hw8PIBwNTpxFDa3id5I9oU9jORk9kaiE1qfIAXZ3dqF2vCdGhyVhITLBT2+rCQis8YCXS7OLunkacPRY46uLup4fQqdOYN54AACAASURBVCG0NVTuenwG1x+X9wJMD3JBk9f2Yef6WbxjQgkMvhmiBJP5fcVkfu/q5pniC4xX9hokGqb9rvcOfDD4DXiuUYt6hsQ/9cevcfnxCaoyJpC+fgLpXOGPeS7Gf9AbeM/DsKM8bdKzn/UF+WSEuOYaDj5P+7TZyXgveP0Bx9MgCDt/yLOOeoZfh74o+ykSrNTslCPgMxX51IZVxtA2TAbUZ7yVmp3KXoDs/MD7PfzpWVnfJq2QmlQTnr1Sgxc5NMLy1Tehjm6jg4Tkt/33iTwrEewaNlhGfpnAvIT0BBdVjhCeoQ+AdlreS2+XS+kA+U7Hd0pRjrb0Co7LK6emNAUcjZxxl69Eq6EyJdrE+U4XfZ2QlGBCDhBcdHa76OyxkDjIx5/8tXWoJObO4vr6H8MHV/08T3+NQ8e/ZcPK8C50d0/1NbPPur/1TWiayjsVszh43wD/uPeaQUkR3G36lvdPGJ0Lzl1Tvw9+lzQmcPdUKDp+JUAJ3+fX603s5Eum7zBKN5nfV8zi4lLI/iBQOeExxeDurq/T4Dlr8xKKd5ZTmOCkdsjPYavHhZOWVpN2GtiIAPXrx1Oo6MfveaN2+2PqNGKMpvaDLU1OnUZMuMs0RgSrp61VnjEJuKEyECai1Us5YeYNVZ+RqYXU7LSS3NpIk5FO/OkZZRYzwTqkADAkVLoejK8Ol8HUYey3XXR69BasT/xcw7oveTePDoGRDwaQ15SSW+2+LxXq2U9VqE4tPoUcs5MS9Yt5evZT5sCzbiOv6dg1LyPpbbBTRQpL4wGcVKnzq5VsVL4+vY7IhARiWu2UtHqni+ISLTSV2WlKSBj8XYeRLG37jQdqUK7wR/WFzfWNavpfxtntvvjqL5jXqN3+pU96+JbPVN1219Tvw4kvqHUfc36uehoBLu/93HuOa3zmL6pmAumpEdR/0KtJX7s3xAuvZRI7TQMs0lzIve2X9w9c5Y8qtbbs1b/EaALp6yex4cRVxrvLcX6uyWMY6AwB2YmoHHGbXTOt3NtgV/W9fBHXol+jNUJrT9pxob/oOKkq06Y1rj/AePJDU5nq5SkhjF/a7P5fLuS+0diq9iuy7MlPB7hrNMznoqki8EvPzjvUegihHv1FVNevwZHXtrX1umhqCO3GKrA+de3tcfnfF2Skr579NLX5XgB7G+ya5YLBElDXg/DVYTOYOuITSEYbKJ+pUD/ZFtzG4xItWl+gG4tDYeSXCQD3NGOiMpWoPl64c0mIZZhILi2EghIysr3HNI9HmZdQXIoylek+pp7qMRHdqc6vnio0kVxqpTPb7lO+X8wWksyNnI9WXfinTiMGJ3cnDvZuwF9bLRTuxP/0lF8iuLvbxfi8q57f3in6CaSnXiV7u2rqO3cSG/KuKum/y86VP2bZdvUywWSeX/qFvAfBXZblZxy87wKLii+QDXDfJC4u/U+mK7LeNRWy3ecg8Lq75WdcX/k543Xp00Nq6wTS1w/wmUd+cD/GCMgzE+vdSxUK903iuk85k/n9+q9xFl9lfPHXXFz5PZz6PLmBNmGGSbyVwoR8SgryqQJIsLIlzcVq5aIbGQVV7nPopxnlDUiry/I1j835YqEwsZWMbLv3907Vpq4XU2gucK9lWii0WWh6L3j9/seTMcm2BFqy8ynx/C7Xjl/bJTLK8r0O1JzCllL/5cXllVOo8yuh7KuIyyskp6DEJ19ygDwxaSmwNZ8M9WORgeoxL8GW1spqVb8WJjjDWyaIt1Jjs5Oh038gOdX1+9eniSgaVe3XP2qqxVfPJnJKl4BZsV1l/0VMmpUcs33IywSBdT0IXx02g6nDQs5OK1XZ3j0BybZCcjpVyybBbNynvy0UlqbwWYF2b8pg+I4kSdKQSxEIBLcv7meib/oauUAg0DJ63hA6KpYJBAKBQCAYa5ypsOseMR85RskygUAgEAgEdzL6t98iP6FROpQl4+FDLBMIBAKBQDDGETMDY5z7//u/crb765EW446k9ldmUub+zUiLIRAIBEERMwMCgUAgEIxxxAZCgUAgEAjGOCIYEAgEAoFgjCOCAYFAIBAIxjgiGBAIBAKBYIwjggGBQCAQCMY4oyAYcFKVnU/GcH5E4qYgy+n3oygjgoumgnzWD/ULdW12MrLtw/4VxFHHCLezt6HE92Ncanr2sz57GPozZIbJpnv2sz67xPdDWUp7fMpXp78TbS+ENgW1haDIY390+aOh0dtQQoaRHd1RKNc7ZZyfqcgfNfY/CoIB+SNFfr+TbUSbwRcOBSFyc5xIb0PJCAR0o9khOqkK17EpnwC+6Z97HW7MFpKMPqWrfKXQ8JOro+QVrILRg/ypZNU7+m8rPx+KL3LRVGDns7RCapRxHpdXTs2gvwkyvP5vFAQDAoHg9sb4O+xnWpzEmE3Q6dI49DMtTog2+f+0r0BwB3N31OgM9kfBGwhdNBWU0PyA+7On8vubsRUS/V6J59vX7s+OnqnIV7757ZQ/l5lg9c4q9OxnfUGj95vpms8TG6BPry4riLxV6k9neu7k3LJboczu/WRsoHrcX4wrnUatJ43vp157G0pY7fA6W/1nWL160cvkp71l+TS5P0tqqA+dDH7boNaH/DlP4/rd/Wwl6aj7m+ZK/d12Mtzf5Nb3WZvqnLpt/tpi9vaD9hOgqjIDtVOnS/15bT/4+ayrWuaCfKqUMqYYndfI5rYfd99qbc2/Pet1K8sV5cinBK1N9zaUsLozxb+d6/Qdyud+QfnOelkrZ7AounLS0moiyZYAZa04e5YoenLR1QnJT+vqH3SfBPYXftHZs9pmextKWH00gS1PX2J1uHbpt47AnwAO3td6v2MlKUDzjAjkQ7T61enP7aNsUOJuc4KVmjyTRqZhy7PTCn79vG5s+/XZel8MbruZotaDKr+n3/X9/N407zGj8TE1kC/SytOkS2NpVddpPI6TzQZtTnOFUGeYSCNOj3RgXZ5UWN+j/G6XKp/Pk9KfL5YOdMtHLtcXS+nPb5dOu7Mc3y6lr9snXVYXc3y7Jo8kSdLp8jzfdCou129XpZfrrTzuT05fudzHfGVXyRqsnuPbpfTn1XLK+kgvb1fl17W/e5904LgqrU95Wj1okfNo2hmSDIF1dbm+WJPeX71q2U6X5+nq1etTkk6Xa9tdqGmbQVuMyqhXyg+hnafLDXS/Tp1fbYf7Aui5XarU9YPcj+ryje3H3R69LJ52+OCrW6P8Hhl09WttJ5C+A6Frb/c+qfD57dJpfR/pyxxqn4TiL/T4tEurh+D9FMQufdok+YxLbRv0PlDfZn8+IZC/0hLUh6jtpHufVGjko9xplPPpPjrT+ehB5Qnk5/V66pEO1PvzOXpf7PWVepk08hhdV9zH9P3s0aG3/MD94ZvGyA7SDXyccZtDqTN0Ru0yQUya1RPlRKamkIyLLr/rry6a3nNq8gDE5VlJ7mnF6SdfZKo6vYXEBPisK/DmLW0dFpammTh/1KmZBo1JS9Hc1QSvx0TOi+5o1CTfNXmmVp184ICcUtWdknkJyeq7ngSrN7qOTyHHaP02KAYytLZ6NrYMRldGqPUXl5ZCjKZeRZ+q6ea4PHW75bXpzm7/5fc2NNKUYNXcpcWlqu+wArSzZz+1rRYKVXcakakpWhsyT/Pe4ccvGUQkri7f2H7UxET7a4cBCSlDuDOQx1CyTWtn6Qmh2pKJaJXd9ba2cj4hgThMWB4wefcNGO4XGGKfEJ6/OONoBINxrN3bYNBPYdmluk0EHpdtjVSRgk1ts2kpxLh10NZIVY9eB1ZyQu7rAD7EoGzMS7AF0od5CekJaPyOsc4Hkyc43ml2E8mpgWdyvfas2JWBTOH5MRNRbr3r/fBwYTCOw2nzYBkFywTG+K6rKIPNcAC46OwxyiM7KP/5fKfHYqLDkyvSYP3HaE0ocD0qA3PTc4k+ILKtlSZMFAYY+OoLxuAxkEFHuLoannp106fgXdYwSOs86iLmgUD6CFBf9yXO46QkO9/nVHI3EJ9Acpmd1dmNIU+f+6AOJoIQl2jhfFkJGQ7faXMjhmYH8hhqKsvXfmJVOQfBypYv+lVHnfSmWnAedXmWAiKjTHBUDm77WpzEPJCiC2qG0CdKvtD9hbxMcb61hAyH7pRZtbfBqJ+UAD1SKSewXerbJO+rMKK3ywU9ynS4royuHpjS5QJzQsh240MAH9Lrp2x1n/kLQAdjb0OzUcXGyvJpCrYE7I8wxp9vXgtJ5kZKsvP9L8UOA1odDUObQ2TUBgPhYyJ6ajjplXWYBCs1O2WndaYin9phl2sY6hmKAQ8Lt0pXOpQ1V9IKqUk14XbAnUGyDW2DTqALr/zkS07PftYX5JMRMO0wEG+lZqeylpmdH+KelqEx6CAHiExIIMZxiT5MdPaoxmN8AslljTh7LNAJdyeG2z/Dr+dAzjzo7vVB2mVAAjj6Xhj6hstAPuQ22swZmVpITarsf1ZnN97Ui7IvJpJLy0lWnhTKcAzDOn0I3Ko2j9plgvDQTlF6cWmdkpq2VjnSGqJz7e1yBR5MQ61n6jRiAix13BKGSVfhIk81W8MwfPnuy+dRtlCZOo2YUKYtlUcACxOc1N6CdwLIj1xZSW5tDOtRxSkGd2F9nf7kNRFtHtzSjwezibtx0lLRSpNmKUAZn45GmnssJIYTbITaJyFj/ORDOIRvl+CekTAKVCOjTJ6ZQCMio0yaJTt3eZ2h6iSADzEuOwS/NsLE5ZVTU5oCjsZhe0bfaJa313A8yDcFW9KgynHrHqe+GW1Wc/sGA5rBI68HnXfYNc7yTIWdJn/rqPoB0mbXTIH7o6lM9YKInv2UOSAnLcBFcpD1eFDWbau2qp637dlP0xCfLQ3L6YfaBt0jZENF76h6G+yaaVk36rbIa612zbO3ZxpCfFbZSNe4aKqQf/c2qO1Ldu6BCby/IVhed70A9Lj4LMwSZP2pAoiAtmc8htRtPlMR7OVg8l6Splb9o4PyVOf5VqeyjyAMgvTJYDCyEdrsIT+vHZpdOilR6aq3wU4VKSw1CoTiU8gxa9ODkyr37/gEktEGnmcq7JrlnIDv+QjkQ4zqDsWv3So0fl6lE/C8x2LYmDqNmJ5GPnDbQc9+ylRPX+htxCiwHlIwbUjwNg9XnbfnMkF8CjnmEnkd0T11Gm+lxmYnoyCfKne6QNOq5iXY0lpZ7U6fYJXv9IJUnWxLoCU7nxLP7/LA00SDrEdNXF45hcoUkYyJnNIlYZSgRnb6VWWqaa5gWUJoQ2RqCskO+/BOY8VbKUzI96wXx6RZyTHbVdOxBm0xL6G4FGUaXyHBSk2IVcblFZJTUKJZv022lcs6ioIqlX0Fbqe86Wx1Wb7nEdPwlnpMRNGo6/MwpyTd+lP125Y0F6v9BTHxVraklXj7WclTkxp6lXGJFmh1kpyoHXfyEkIjDGLNOGCfDAbzEoptl8hQ748wp7ClNMT8Qe0SwEJhYisZ2Xbv753+1ntNJJda6cyWH811H8spLfTkzdlpVaam5SPJtkJyOr1LE32droDr8f59iInk0kIoKPGp+2ZPfwfFx8+biO5UyznMy0duP+e2C3MKW2wWVr+nnJ86jc/0fsVzfTHyRcMhVKA2D2+d35EkSRqyvAKBQCAYIeQ32/HiKLiAC25bbt9lAoFAIBAALjoRr3cWDA0xMyAQCAQCwRhHzAwIBAKBQDDGEcGAQCAQCARjHBEMCAQCgUAwxhHBgEAgEAgEYxwRDAgEAoFAMMYRwYBAIBAIBGMcEQwIBAKBQDDGEcGAQCAQCARjHBEMCAQCgUAwxhkFwYCLpoJ81t+CT8EOG212MrLtw/wZSVkPoX457fbDSVX2zW9fb0MJGQWD/6LdTeEm2MuobOco50zFbeZnDLk542gwutHk6dnP+uxbrN+b4ofHLqMgGBCESsDPlI4q7vTA5lbjpCq7RPNpYYFgVGFeQvHO8uH5Wqkhw+1ThI/SI4IBgUAgEAjGON8baQHUnKnIp6RV+aH5VjTIkVwJVe67I3MKW0r9fR/cSVW2HWyFRL/nzaP+/nxvQwmrjyZoy2izk/HeNO+xNjsZZd478WRbOTnxqmp69rO+oJHzgNG3tTXt8TmvbU9MmpUkv5pRp5W/ea5ui7YeAzn16NplqJenL7HancZA137rVOukLJ8mn2+ja9vtI6tfncv5mh+wknTUTlVPkO93a8rR6t7dxsIHWilxuDzt17ZJXb677kLSO0s8adR6k5Htrsn9U6+3IPYStB0F+VQp+aYYnffpp0BjxniMBLIdvd68OnCp2m3QL4PpU33/2aBEPTYJNr58/UmhcbN82+jwTnVr+9itMyuU2Wky7ENjW9H4s579rC9oJUmjJydV2Y1Ee47pbCmIPwx9HA1eN4HzuHWj1NNmJ6MMud/KnCr5g/lxgzH0IpQZ+RS9bOh01LOf9QWXSNf3UUAfpas/hHHq32/cZkgjTo90YF2elP58nlR5XHesvF3zu7C+x5PrdLn6vJ52qfL5PCn9+WLpQLf2mLuMy/XFUvq6fdJldbbj273HuvdJher83fukA8dV6Z7PU+XXy+srn7Y+3/SX64t1OvDlcn2xrs2+5chyBy7ndPl26bQmvbedbjm8ZWr1FlqdchqtDL59ItelkuX4du1vjWxuO1H3qR8dPW+kW2+57jRqe5KkdqkyWH+p23h8e0D7kiRJOl2v5A/BXgLTLlXq2h1qP/kfMyH0hw4fvbnbpSrjdHmedlwNpk/96FZdbuDx5U8OfZ9r8cnjo1O3zvzrKCR/pvctnrK1etH0ZX0Y/RZQ58OkG588slyVeh9p4K+C2aThGDLyKep26tssGflLNQblGfjOYGMisN+4vRg9ywQJVlXkaiL5aQu0tsqbQ9oaqSIFm+ouLC4thRj3eT/EpFlVEZqFpWkmzh91hrHpykSUO795Ccnx2nM5L7ojWp28PfupbbVQqIpSI1NTSO5pxdmjtKdHf95KTrjRpEE5mJdgSzPR1OJ/b0FcnirSNVtIMrvo7FanUJep6K3TNaQ63aj7JDI1hWSctLQBuGh6z0myTS3bEtITXDS3qjYlJaSEEHUb6N5TjzdNuuau3kKOOk9CAjE9l+hTZ1HbaHwKOSq99TY00pRg1cwUxKWq73gC2MugMegnt32HOGZ8+8NFV6C9CWZVmfEp5Ji1ZcSlpaj0Npg+lfPox26OTXvHF3B89eyntlWtbyDeSmFCgHYZ5VHq1fuMmLSU4DM6gfxZiNwd5e47E8mpFs25QY+j4dJNsDyK3DlpKrmD2GTwMRSA+ATdGHfhPOoiOdESKJeGM45Gzmv6ze2X9b5DTQh+4zZh1CwTxETrNp5MnUYMlwDo7XJBj5PV2Y26XCa6eiDOz8XBO5hkIqPC2NxitpBkbqQkO99gOliuO8rfRan7EudxUpKd73MquVtpjznBO9U7SPyVExllgqMuesHPQNJN1YFmyg3zNF/ZOuXyGHSdMvo+UcvU2QNNZfmqKTrvOZDz+diJET7ym4g2Q2fANOim8QF0Dtig7s+6XBAPzqMuYh4IJFsAexksRm1QCHXM+PaHEuCEIevw9qmcx3+ZBB1fcInzmEgPR9/dfvJMneZx7m67DiibQiB/FhwTlgdMVJXl0+RnOXTQOo8aRt0ERWvzgW3SRVfQMRQIC4kJUNLiJCfe4gk8tgRaLtXgoqsTg/pNREVDc5cL4v3IFsRv3C6MmmAgKAH3CNwMTCSXlpOs7OTOcIS7FuR/ram3C4g2DU9bwi1HMVzSCqlJNeEODDqDZhxCnWHgf8365j6yJK8VQ05pOcVmPOuN4RDKReKWcsvHjDHh96mJ6KnBSg2wlttGwEDJL4PJc5OITC2kJlVej16d3ejnhsQ/fnXe1jqyuvFrky6aGNoYiktLIWarfEPS1+Ik5oGUsG0/3PqHw2+MFkbPMoGe7kucVwwwMsoEwzD10tvl8lzIjGYJeruMnJOFnJ3lbEmDKkeIj/VNnUZMgOnWyCiTwZShHNGHg3E52nbq6W1t5bxuKu5m1xka8t37Z4Z9MFRcdPYEusAoU4q2wW78ke8eQlkmuVUM15gZGoPpUxPRZt0yArqxGWR8yXfzypKBB/nOzy+GedD4oSGhLsds4m79+R4Xnxlki8srp6Y0BRyNIS4xBNH5sOkmSB4DAtvkMIwhs4UkWnH2OGlpNZGUEI6P81e/3E7jIGGofmN0MWqCgfMOu+o5aidVZU6Sn1YiyPgUcsxOSjTP2DupCvLMfVOZ6oUUPfspc+Bdw5o6jZieRj5oU59XDaA2u+YZ1L7OMByaskZXtVX9UhgXTRXKb2V9q1b1go4zFXaDaT0D3NP1YKwXfTt16C/mvQ12zXJBUMKoM9yLQPLTFp0dyPKF/Xx9TyNlet0G3GugdwQumraqp/2CI699am3mTEOoLwUK5T0C+n0dQRjkmBleBtOn8hT5efXFTz82g40vZR+MOngPaueGZer8UBgE9GdKwOOVT29vun7qvhSGLQbR+aB0M4g8RgSxyVDGUGCfYsLyADRvbaTJnIAlhAu0ujyj+nsb7FSRwlLDma2h+43RxKhZJohJS4Gt+WSoHwNUb8AptdKZLT9W5z6WUxr4gZhkWwIt2fmUeH6Xey8I5iXY0lpZ7V5bM6ewxWZh9XvK+anT+Kwgnwx3YT6P9gQmLq+QnIISzfpYsq1cWZu3kLPTqiw/uM8VktMZeLo+MjWFZIddM22YXFoIBSU+evF74Yu3UpiQ71lvjUmzkmO2h7FMEEqdskOqKgtzeSXeypa0ElYX5FPlPpZgpSY1ZOFkzCmkYycj2+X5vaU0cN/F5VlJ9tiXiRxbCjFlYUz3mZdQXArr9TYTSt4eF59hItGvjuTNgbKt6h4t9MvgxsywM4g+jUwtZAslrHbvCdCPTYKNL18bjUkrpDChhNoAosbllVOoTMurywz4mK4fgvqzF1NoLlDZW6mV5IJGz/noTvX4CvExVDcBdT4Y3QxOn8blBLDJgGPIwKcY1BCZkACORpJtwQI4Ix9lUH+QpbYh+41RxHckSZJGWojhR/fMq0Awmmmzk9GSEFawOdbobShhdWfKbaAj73sGbt7b+AR+8fduAUFQRs0ygUAwVuntCu8RqDGHskwgdCQIjDJNn5AgAoFBMGqWCQSCsUpkaiE5Iy3EKEL/FkB5Krn8jtikJbg5eN4CGOZyrsDLHbpMIBAIBAKBIFTEMoFAIBAIBGMcEQwIBAKBQDDGEcGAQCAQCARjHBEMCAQCgUAwxhHBgEAgEAgEYxwRDAgEAoFAMMYRwYBAIBAIBGOcURAMuGgqyGd9w839RG14DJdMTqqy8zUfvrgzGeF2ttnJyLYH+KqbLF/GLftIz83XR29DCRnZ+UHaLZC5uT6mt6GEjIJQP0p188sZU/TsZ70YA8PCKAgG7hx6G0qG/4LTZh8RB3FT2jIsyI49vAut/BnqO+bNZG12VjtMFO4sp0Z5B/ut769QvrSoY4RsWSAQBEcEAwLB7Yh5WghfLhQIBILQGFXfJvC8Xxp075h2f4XQCmV2z2dc43r2s75A9f1owzyFRL9X4vn2ts8nSQ3L8H5tTC2T+7PBvshfKpPrkD9nKac1Oq+XQXtO/blSb91O+bOqhu/ddn8lzUrSUfc3xpVPcnbbyShT7hb1n+L0qzt/bTH56MP308WB2ol8Z1jmvXvVnA90zkjmsnya0H3KVNMm9Wdffb8kp33/vb/PLOt1K6eLcuRTgrYvgn5VT6dv/7Yk40/PXrndNrGcnM46P/2lsy2NDfgZU3pBjPoF1bGCfKoMbVYrtz9bPlMRXJeh9RUGaX3tKOB4DtpHss6a3D8VffqTwV13OPIDWp3rx62uPzwyttnJKEPXh7qvt4Zjg+7ySqdR68kTeLz7fGrZ75jW6VHj1wLZrL4NJnJsCX7VKAgTacTpkQ6sy5PSn8+TKo/rjpW3K7/bpcrn86T057dLp1U5L9dvlw50S5o03jLceYo9aS7XF2vL6N4nFerrrW83lun4dk1ZRlyuL1bJHLoMlfU9nhyny/O0ZRzfLqWv2ydd9lurW1ZvHafLZdm9+WQ5ClX1BNadUVuUctWyHN+nlBFCO49vN9C9kl79t3LugEoWo/aqZZXLVsumtx/5t6f9elk87TCuS9/vPn3koy+dPvXtM9C3lnapUlX+5fpind59bcK3v3Rt9pHbeExpCNgv7VKlz3gIX+6gugy5r4zHlixvCOM5aB/5jqHT9XJbNO3Ulxu2/L59pO1DP2PIyKbU+g7XBn3GlLHO/Pouv7ajt0u3zzU6Z1SmwXUikA0LQmb0LBMkWFURvInkpy3Q2qrZGBKTlqK5c4lMtaqiVAuJCfBZl3aTUEyaN01kagrJuOhSos4zjkZIK9TWm6q6s1PLFJ9CjtlFc2v4m5B8ZXDS4l7zNi8hRxWdxyVaoNMV9rqquo64tBRiMJHzojuitrA0zcT5Tq/soehOQ89+alstFKqj9Pglmjsc/+100fSek2Sb6q7BvIT0BLU+TUSZveeS9bMCQVG319h+NKin2XXt8CEhZUhfzJPtTKvvpWkmmlr8rfFbyFHdKUcmJBDTc4m+cCpta6SKFGxq20pLISbImPIlnH4ZBrmNCKmvnHzggJxSrY1p5A0wnoP1UW9DI00JVs2ddFyqaiyAfNda5iTZprvzD8fWsFDo0aEybo86Pf4gLk/dPgtJZhed3XLaxAQ0NnWmxUnMAxYiQ2ifMeoxha8PDOq7/NvO3VEmTxqPzw1is2ccjZzXXydeTCEmQAsEoTNqlglionXTVVOnEcMlzSGvAXnRTktCTLT2vG8eZfCYnbS0wt2J/qdqfWQaJEZya9BNp2GeNgy1qgaiH4LpTk1vayvnzQkB16n9t9NFZw80leV7pwZV50i1kGRupCQ7P+j0uX+Ct9dDfALJZXZWZzcaL0foGJoduOjqhPOtJWQ4dKfMsuOMNMqmX8YhvM2PImRQ2QAAIABJREFUvV0u6FGm5DWY6OqBOEVXAW3TPIh+GaLcPoTaV22tNGGiMIAN+O/HYH3kwnnURcwDgdrfSlmBi7v1MoZpa8H3guin5vEsk8UlWqCslTNYiMNJS6uJpDRTCO3zY4M+Y8pElN5H+PNdfm3HhOUBE1Vl+TTplgAC26wLOgnSB4KhMGqCgfBR1p0SrNTslB3OmYp8asMqw0T01JshW+jIF2QLhTvL5Yi/zU7Geze71kHqLtrkx2mERiBnmFxaTrKyQz3DEcK66pCQny7I6dnP+oJ8Mvytlw8j4QQ58hoz5JSWU2xGucBeCprPB/16a9iYwuqXYZNbQxh9NcRNlYH2BEGQwKkHMMt35jnx6gBoGG1NCbRIK6RGtSek030+PoFkGuVgr7uVJnMCWzQzd4MNtI0J7Lv8205kaiE1qXL+1dmNWrn82qyLJkK4sRIMmtGzTKCn+xLnAw3utlY5shz042Imogc57T98yNG7ZmrzVjAI3UVGmQJPuwfERLQ5yDIE4HacW9KgynELHpMzL6F4ZzmFCU5qw3gGfYrBHWZfp7/88t3Ueb/n9ch3oT5TzWESGWWC4ZiiB0Lrl8HJHbIug/XV1GnE9LTiDOdRRw/B+kg+H3BK3ZyArdRKcqvd+H0Gg7Q1Nb2trZzXLVVosZCoLL2daXGS/LR32Sw8G/SHPMMgX5BD9V3+bScur5ya0hRwNHKGYDbrpw+6L6lmoQRDYdQEA+cddtUzy06qytTGbIB+8LfZNVPewZHXlbX1umhqGOJFKKz1fn1AIrfbh2Fz6gqh6k7dlvgUcsxOStTPsrftD/E5cyNdQ2+D8rvNrnlvgP8Lq5fggYV/PPUCbgcXDnJg1OgtI4jtyeue2jbq2+xF7/RcNG1tDM3hBesvnFSF8y6CoP3iXq8OQ26dLQfTZch9pexBqdqqeo9Bz36aQnwfRbA+Mjp/pkH/zgQLOaUp4CjxBARDtTU1+oC8t8GuWS5wy8lRO7WtFhLjtcdDt0E3WvvpbbBTRQpL4yGo7/JrOzobVF/Mg9hsXKJFaysG/vJMxa18udidxahZJohJS4Gt+WT0uH8XUhxofc28BFtaK6sL8qkCSLDKUXc4lcZbqbHZyXCXodSbHDCTfyJTU0h22FVTX8FyyBtgmgvca3kWCm0WmtTLBPEp5JhLKMnO9/No4SAIQXe+bTGRXFoIBSVkZLtTWSjcGWKd8Va2pJV461TqrUkFmMZnBflkqI/7baccWFSVqaYeQ2640rYoqNL1eVjTp/FWChPyKVHpb0uai9UBLlTFtktkqPdMmFPYUmqcPC7PSnK2XdGziRxbCjFlgafbjfvLSqenHKWs0sLQ2zk1UL/IG9BWl+V7H0sMJreRLQfRZTh9FZdXTqEy9extr++jf4YE6yPzEopLUab6VfoAbUDgKaeEjE4rNYlDtDU1bl1l5ytlWckx29GYndlCEo1UJeg2hoZpgzIWChNbyci2e3/vVG3SDeS7/NqOi+hOvQ9xzy4EsVkff22hsDSFz4a8FCUA+I4kSdJICyEQCASCUYThewsEdzKjZplAIBAIBALByCCCAYFAIBAIxjhimUAgEAgEgjGOmBkQCAQCgWCMI4IBgUAgEAjGOCIYEAgEAoFgjCOCAYFAIBAIxjgiGBAIBAKBYIwjggGBQCAQCMY4IhgQCAQCgWCMI4IBgUAgEAjGOCIYEAgEAoFgjCOCAYFAIBAIxjgiGBAIBAKBYIwjggGBQCAQCMY4IhgQCAQCgWCMI4IBgUAgEAjGOCIYEAgEAoFgjCOCAYFAIBAIxjgiGBAIBAKBYIwjggGBQCAQCMY4IhgQCAQCgWCMI4IBgUAgEAjGOCIYEAgEAoFgjCOCAYFAIBAIxjgiGBAIBAKBYIwjggGBQCAQCMY4IhgQCAQCgWCM872RFsDNmTNn+Oqrr4Km++EPf0hcXNwtkEggEAgEgrHBiAcDly9f5u233+Y//uM/+Ju/+Zug6f/P//k//OQnP+HZZ5/lrrvuugUS3jr6Pz1H35TZzJhwkypwObA+XMShhRs4/E9pTLlJ1Qwn7a9bWFEFL+xysva+kZZmmLgN+2E00OewseCVZh76w4fY0yaPmBw3xSZvXKO9rpSNW/fRfjWC5Nf2UP7EyLXxduGm+8wxxIgHA3v27MFkMvHSSy8xbty4oOlv3LjBO++8w549e8jJyQm5Hrcj0TB+MvMWZ/HSr7N40BSu5MPMuR0se6qMzvG5vHvcxrwRFkcgENw6zlZmseIfLxJhSiJzVRQRIy3Q7YDwmcPKiO8ZuHDhAomJiSEFAgDjxo0jMTGRCxcuDK7CSdOJvWe2/G/iNdobNpO11EZd1+CKGzZ+EkXsJJi4cAbRIyyKQMVAF4dqNpK/dAftIy3LKKT/tIM312axpuHKSIvin6vnqNu6jhW/3UffSMtiyCkObL8IJLHhf5Sx4cV1rBWzAsERPnNYGfGZgW+//TbkQMDNuHHj+PbbbwdXYVoR9b+5V/77Rhd1q5+i4GAzRe+cYrn7+Ehgeozyf3ls5OoXGHP1GH8uruUQWeSOtCyjkI79RVQ0wEOJIy1JAC7upWDbPlg4f6Ql8cvAdYCfM3OkZyhvJ4TPHFZGfGZgRBkXRWrGkwAMXOgYpXcNAoFAIBDcXMZ2MAAMXO+X/4iawkTvUTr2bCZ/6UJmxVqY9Ys0soodnL2mzdt3eIcnzT0PZ1F0oIsjr1uYFWth0wkljcMml/H6KW1e5bjVoUyvuhxYYy3M+pXDE5S0e8oaoKNmHQvuV6UPUUa/XL9IXXEW8bEWZt2/mBXFDjque08HqrvvcC1FqzNYcL/F23bHRQY8ua9Q9ysLs2Jt1HVdo73qZZb8wsKs2IUsWV3N2es6WVzHqFy7UkmjtOXPF31E7tyzkRUPJzIr1kL8MxupuzCgTXDjCkeq1nnS3PNwBvnbjtF3Q6X3w9WsyVzMPbEWZsUmsiCzjCN+dNb+uoVZDxdxCIBqVsQqbXJ562uv2UiWuw9iF7IkdyN150LtBIL2AwBXjlG5NkvRdyILnnqZisOBpuXd+vfaofa4qg0nNnvt88oxKvIV3fwizUd3GhR7XVEl/zz0ymIfOx/4vJkKjZ349oc/+s85KMpUyVJ1jn5DOY6xq/hllil9rtWh0t7Majntx0UsiLUwK3azd8knbN1q6WvZgdVtk0tfpqLFN+/AhX1sWp0m97HORmQ/kEUlYGhjV06xq1g3NvTjXOU7Oq80s+mZhZo2BqrfGPX4vcKRbTZZP/cvxuruv65mNnlsRT/+CWEsaus49Lo8Btz2qu3/LNbUnKMjLJ+p9heJLMjcSJN+KfjaOeqK3X2/kBVrazl7wbfMscKILxOMKDcuUvenfUAEmYsTlE07A7S/nsGKqm5in0gn79EfwNVT7KopYtmxf6O+PpfYcdDXYGPR2mYGmMC81CwenNTHkWIbRyYNv5gDfyknt0q93hmajH75+hwVL2ziwP/zJJnPRXGkYR/tNUUsuwz7t6QRrcrrW/cpKnM3c2DRkyx/Lgm4RntNLbteyeCL8R+y+VH1tt4rNJVmsWlgPpkZ6bTX1HLkw82s2BDF4dceYSIwcKKMFSt3cPY6TJz7GC9kREHXKQ71a51VR6WNZZ9Aalo60QdraTxZS0FeBDM/WMO8CFRLPj/gwYxnyZskX4x2bV3Jok/f4PBrj8CBdSx6aR8Dk+aTuepJJnKNs45zdH4JGOxGnmLJJe8fztHw52Y6uZeUVfOZxhRm/lhd34Cy6Ws2EV3HqGuopeCpvbRv2Uvp4iBbnEPphy4H1mVFHIqYT+ZzuUzkay4drOXN3Cf465t6fQ+Bq3soWrKXM4vTeCHjU+oammnaupKOL6up/829vhvafjyDX67KZcLhHTSehOhF6aTOngBzfgrAwInNLMuspkMZH8ujBjjreJ+mrSv5X/9zDe/WZfm10YGTZax4ZgcdRDBlUTrLZ8PZXVbyx0/0Sdu+ayWbDiWxPO1ZHgL6T9bK4+DaRA6/Np+Zi3LJm3SMioZTEJVEZupsJjJHfoJjiLrt/2Ajiw58QnLqs2R+/j51Bz/izexP6d9Vw9r7IjR66Jz9GJmrHiFCGS8FTx2jb7eDzL9bSN6qCRzZto92vY255bsu6yFvdgSXDjtorCli2YFTlH+wgWSNv7nIrleKqDyp0mWQ+vNmB2rhFZpKbZxhLstTk6hraObQ1pXkYyOu8i06UtPJfKKZXXtOsesVGxF/t1tudwhjUd2THe+8SkGVKog8sZkVmdXa/t9u3P/+6Ki0saxnAsvd/uJELfm/muL1jddPsemZLCo/RR6/z82Gc3aefWkCoddyhyGNML/73e+kjo6OsPJ0dHRIv/vd78LK07s7X5o5Z640c8GTUurydCl1ebr06IK50sw5SdKzlZ9IXynpvmp7Q3pozlwp991OTf4zFY9LM+fMlV79568k6asW6dX4udLMOc9KO86rEvV/rByfK21s09X72klDeXJ398kHenZLuXPmSjNX7pZ6lTQnXpPLiluwRnr7k35P3pBkNMJdx5z50qt/8ZYnfXlS2viEfNwtt7+6JalP+qvmtyRJR9+Q2/ibD6UvlDTvrpTzP7SpxaNb6d/3Snlz5koz56yVDvRLkvTNJ1L5E3OlmXMel176QNsWN245ZmbUSH/9xi1vi7RxsSzvZqdan49LG4+q294vNfx6rjRzTrr0doe3rI1HVUm+6Ze+8KMurc7ekE6oDl9651lZP3m7pUvfeI9/1faG9Oicuf8/e+8eF8V1//+/FBWD8ZYI7gom3j9GooB0NYnaesuG1EJK8jPSR7yENaQNEDXaPDQ0eIGGmE9jogZIKkIqmm8xfhIq1IoYo62aaFZkUUmsxksjuAt4i9YLUZzfHzO7OzM7OzO7LC4w7+fj4UN25sw57/M+73Pmfc77zAwzZGoeU33HJTdRnkrtwOlx6irmq+u86+16nF7EfC9ZgFP/9vYUHk9hPrVyhyq4thPbcs3nzEvRorQS2HXqsGOG4fWPXzNvV/CUe6eG+TR5DDPkkQgm+e9XXTNjC2Y2JrA6eO3vDYJrN77sWlb9ie+YH/l6vnOQeZtvY/w68vqW97rl2+QGp00yDHPu8xQmnF/OrSrWTl8W2ghzNI+Z+EgEM2TFXq5vVHEy823MqYeXPuf3jVvM4T/9mu1bud+xh+z2FD2GifvjXqbeXpbq8sVI999b/8pi6yeSyT7uhK9lxzg1fdFZxhgmPD6L2e2wMWe9BX3jzmlmfYKo/WXGTEGd73zH5Exlx5kcTmWO/rtir8B+vv/LLAlb0QbaWxm4fAbfXrb/GIi56wux5AnnDODb/ZtRA6Bm2TQMXeZ6ec2Fa8Dxb7DlBoBpczB9KO9k9/GISwA2FfhW5OCZSZg53EMZ5R5OCk3C9Em8WU/QKEz/zXDkv3Ucp/5zARjt3MksLhvog8GhZ/B1cTEOHK3CnmOnUXOMW9K/elW4VIjhmDt9jFOS3qMwcSxQfvAafrwOoHYftpwG8FQqlk8LldXBxN9MwWD7TDIoAo9NAPKLGtHYBAAXcOAL9rHR/MSx3JIrn+OouQJMDBsF4Ag2vfMGgl99GdN/PhA9Arqjh2f7VwFcQOXeIwBCkfyqcCUlcPQMzB1biLSDxdhz8iWMkJt5KbXDQ2aU7wWAQsz+WaHr9cdqpZfOvUFsy6G/xAtxK7CnaB9OnQfgycY2R/9IRfJonh0GhGL67BlI212I8j3f4Oq0Ka6zsAtH8M8qAKFJeIm/oz4gFE/FjMeKvcLHg4MHheLUwWJsqTiOw3urcKr2OE4BADgbcze5v9B83ca+GO+0SQBhv0zA9D/sw6a9Z1ADIPj4v7CpFkDtCkwaucI1g9oGXAWk3zPB08Nr8fy+EYio38zG4wUr8PXn+/DtK8Mxwn7qxni8lDwewXaZmlM+ACAU059x9t/AocPxOIA9+DVe+KVTphGjpwAoRGMjoLYvOmnEL+amYqLdvnj1FvSNgIF46tkxWFn1jVtp+cyc+UtnvwwYjqipADbU4ioXPnL03+fHC/r/4KnxePydI/haVSntC+05A6ZCnPz9KDTW7sPK36Yi/6XZAG9Zj7NoGBevw8yhrpd3fbg7UPcTe9PrG3xPlpSeGi26o6iRUY5BD7oMAD2CpB9lcinbvnSJPoia+ktMfHYqHpv2BWa/s0vi6j4IDOL/DgS68H7euIoaAAgNVdTj4DC+fIHoGSQ8f+sOAAzH3D8txC8kQjUhA4GwiPdQeHk5FuVvx8qU7VgZ1AcTk9/DqjmjPHYI2PIGIriX+EwohoQDOGgfeGRQaoc73Bs5H52N9xaMh2sLBWOwJ0LL4WLLrjpWTZNM/3h4ICYC2OPiOHLY6yyhG9dy7MvRQPDoyYibEI+Y6EaUvfQeypWu9YFuQ4JF/Sywh9AFt+vhqYUonC7hFXaTsXs5PYQOxggAX9eKdDh2PKL4tt+c8gFI2zcABKInv6KdhWfV9EUnYzAxkqdHmXoHduoCtQR2E06Guor6t9v+GyA7jWrXaM8Z4AgMHY9l76bi62ezkb84B7/YuhCP8we/Po/g8Sfc3FTruP9vsJ2Rbzy3VGyOAoCrNzx4Lruzm+NyMspx+SeXGUHNKTP7h/imKCi7EXvyV2DPDWB6zjZkTeJqfvg7z2XgU8fOUJrvWF1Dj4fH4PFH3Z3vg8dfycZXL1/DqYP/QH7W29jy7mws6u3tG+3OoOEKRLPmWnxfDQDDESY5kPJQ2w6Xe2Dw2DHy+0BUcQ2Nl92cahK/CvwCvj8JAIEI9LZcqXb9zxl2Q2aogiMtoRtxn2n8qhBpuxuB+Gzsfms81w+PoNoTGZuh28brot5vO8WuSgSJb1rBCH9ijHf2ffoiGiCavdeewrcA8KjoZt7F3Y2sGeV7jVJftNPFdcwBVLV/87nAPdLJ48ZPqPdxKW0FbT9NMHwW3n5lIFBbiLQPvkEjgMEj2edWyz/MQyXfUJquoXLHN+xGun7s7AZFRSjh71CtLUbBFmERwf0GsX9UfIdTdkfhxhFs+etxr8VWJaMcx4qw5TBvTlFbjNyiRgCj8ItIuZviNTRw9e0RZB92GlH55V6P5HcQPh4zgwBsy0buQQ924LvQB+HRoQBqkfthMWr4DllTLUq/OAPgGmp+4MoI6I7BT8xAVtoMAMCeU+dVleJ09Prg8Umj2PI+EJbXeHgz8g8CGDQVox9WyFCpHXSPICoUQG0e3i8RbYX+YTvK3b53qw/COLM7/J3zqYzGw8XYdMzNJVsKBS/eajxciPy9AIJ+jcdkN5lx6e/w6sFvV379mmqxpXAzgEDEjo2QvnEFD8bgIADHCrHlIO9aiT5z9YLdGLs48mo8/AX39IcEP8E5k/Zat062FP2D1/aNqNxUiD0AAuPHsEv3QyMQCwA71gn1AOBq1S58LXdv043BLyI4+Yr58jWi8q+F+BrA4KkR8qsXzSnfa9T0RRnctv832PIX78dMsYxDhgYCOI78Ld/wVlca8fWWQtbR0iB+XxnQ6/X497//jUGDBqm+5t///jf0er0PSg9E1NxFmLkhFZs2rMD7Ez/HkqmpyJr0JdJ2F+L5Jy2IjRuD/kHX8G3x37Bn6BJ89RQA3S+R/Eoh9ny4D2nPTEV53K8xAsexZQcQHg2Af2+MHI+ZQYXYVPU2np9pwfQneuBUcRXwyHDgtHfG3UONjHI82h2HX56K56fG4/Egdud4ww1g8Cu/x/SH5C7sg9FjBwJ7zyB/4ctoTBiFwB/24WtvFwYCx2Du0ikoWbIL+YlTUTJ6MuLGck8TPJyKslfUvwRqxMy3MbdkNvJ3r0DMk7swPX44etyoZXfoxxcidmp3fP3WNLzf6deYPrw77E9BAIGYOfZ/3GfMDU57bhQi9beNmPlQIIa8vBCx8b/Ha58m4X1eeezTBEdwNWg4kjNmKc82FdthOOa+MxslMwux5w/P4okvWNkbuXKmb3oaRjdZj54wA4EbNqPyrdl4/iiXvwUIfxQ4JeUQDL2KLc/PxtdxY9C/8TgrCwIxcWkSHpdZNw0bPB7APnz9ziIsPD0G0E3Fe3PGIHnFFJS8vgv5M6ficFw8HueeJthja0SPp97GQndPWgSMwtyl47FpyT7kJ3LX9m7A1yXH0TNS2GeCHx2DwdiHUxsWYXbjDEQF1mLPQYk+xTnvew6uRMrrZ/A4+uCpP832Wrd2Rlwq5tp+EH78qhilVdeAoPF4ey4XZ+8+BQvfGo/yP+zj6aELrh7/G7bsHo5lX06RyT0U05ekYsvcbJ583NMEVdcQOPwlvD1TwUtrVvneo9wXZS4OGIWZfxiPTX9w0/61vnEIon6zBBOLVmDPhpfxhOVpTH8iGPVfFePbByIwArWadAj8vjIwZcoU7NmzB/n5+fj0008V/+Xn52PPnj2YMsVHhhw0Hq+99TQCUYv8zDxU3gnF9LXbUPjqFIwI/DdKN6xH7oZdqH90Bt57bSq3bBWIqOQ8FL46BYMDL2BP0UZsORGK1/6yCsniGH7gGCz56zLMjOiOq1Xbsan4O4QtXoVlU5vxutEANTLK0Dseb/91IcL/U4zcon242mMUZr5VhE+TJR4hEzF4TjZyEkYhuPEbbNrwN5watBDr0yd4XZWwuFXY/fkyzHyiHxoPb0f+h+ux5Rgw4qEHPcsoaBSW/LUIWQljENa4D5s+XI/ckuPoOmEhCmeOAtAd4ZMmY8h//oHcD9cj98N/oP6Rp7Hk421YNkGm1gGj8NpfFmKiLhBXv9qM/D0NCOwEIHAUkrdsQ+Hvn8YImLHpw/XI/+I8BsctROHfi/DaaBWRRxXtEDh6IT6162f3ZuR+uB5bjnXFL36/DnMj3Gcd+MRCbH1rBqJ6X0NlyWZsORGK5R+8IXoUjUd0KtbnTsW1HRuRW7QPjbopeG39NuTFydtpcNwbyEkYhR43jqN0QzG+5WaCwdNWYffnb2Pu1D44VVKI3A8343DQeMz9UxF2v/u0YNOla56rWNl1P6GypBCb9v6Eie/lufaZobOx/n023ddFG7Hlh8FYsu4NdtWOjy4ey96fgajejfh2WyG2cM6rt7q1M3rBe8ibDuzYUIjSKmDw1FQU/j0bsbywUVh8NnavT4VxeCC+LSlE7ocbscMagZl/SsVTCh01MOIlbP37OiyJ+x/g4GbkfliI8rqBiP39OuzekoooFXs6mlO+1yj2RSWZVbZ/cwiNR/Zfl2Hm6D5orNqO/KK9aPz5KmxMm4IQ35XSpujAMAzjbyHOnTsHi8WCmzdvKqa97777EBkZif79+98DyTynXX5lj2i/HH6PfSkPt7GWIForle+OxfMFjYh9f6/v3q8h5vB7eHRmIRqnrULFnySedmnH+D1MAAD9+/dvtTd3giAIws/8YN9PMwWTxrSQI9BUiy35m9EIwDjxXm+49D+twhkgCIIgCABoKHkDL236CaMnDEQPAFdP7kLJF2dwFYGY+NZCxPriLa+27ViYvAGNkeMxpDeAy2ewY8cunLoMBE5ahjdiWsjhaMWQM0AQBEG0GgLDBiMM21Dy4S72xU9BfTBi6gxMT0jCzCd8tG+gWyiGhAElO9aj/DIABCJ4+BTMfHUGkqePcb64SUO0ij0DBEEQBEH4D78/TUAQBEEQhH8hZ4AgCIIgNA45AwRBEAShccgZIAiCIAiNQ84AQRAEQWgccgYIgiAIQuOQM0AQBEEQGoecAYIgCILQOJpwBqpzU5CQKP1vaYkNgAUFiSkoqFDKIw/V90xqjVCRx9OrDeVp9jYhWj3WMixNpPYSomzD9SWZSEjMRLm1BcUQ9KvWgvI4K6a+JBMJaWWobzmh1NMqdeo7NPE64vDkHBRxf1fnpmBzWDoy4njfGYXyYMbPgyDUY0N5WiZqnsuBKdqLyyvykPBZf6zNivHzp1Ul6qGPQcbHMX6V6p7g4zYIiUtHUZwPMiIIH6KJlQGCIAiCINyjiZUB9bCznwJu+c6Y6pwF1ZdkYt4Bg3N2UJGHhGyL40p+WhesZViaVooT3M9h8c6VCUe+z53DPHt++ljBLKS+JBPziu2rFzqYstJh1LOrHJlIQlFypKOo+pJMzKuJ5Y5ZUJCYB6QmAdl5KEck0j9OQrionmrLEyMpu6MM8Mrn66Y5M2V39eF0Yban48vAIjhvSEI68pwrRNYyLE0zY7ygnhYUJJYijH9Mrs2lzvXjtXt2CsodupTXv6vMFsxLLAUMXFuL7Mlx3BMdiXUAQGz/Drms7uohbF81tiwuY1h8EsYfyJO3B5Fu+f1HOi2Qngpk2q8xJKEoWee2bwt1Dbj0Mak2ANy0g04yT4HMdhm5dmkxvbnIKOrLYl3Z6yajb3WyutenVF1kx047fJnE5bmTV7Jfs2Xve4yfRnpsdoucTiXkcamf2/NO2WbUZErbTkvCaIxjOclM+lar6Gglk/9iMjPjxQxmx3n2SN3WDGbGi+uYYwzv9xvbmTqGYZjz25l0Xlrm/HZmxyE3BYrTcmXlH+KXk8zMyKkUnHfIeGidQA7m0HZHXsdy+Nfx8hPlJbiesTI73hDqQJCPTHliXGUX601YV375jmOC8lxlEyJVH1c9CNrKfp73my2TV45LG9nL4h0T64V/jaw9iOorIe+xrTzZxBxaJ5SdYZi6revc2pOsjuR0oGQXEvXw2Ja5PFztRZyvkGM5bvQuBVcvRxnntzPpLyYLyhD3bYapZPJl7EeqDez55vPbeWuls44vim3cvS21iN7senBpc7EcrmOInL6VZZWyNfsYojzOilFXnjt5JcaT89uZdHt5CmOzC6p1KmOvsudV2E4LQmECHsPikxweXkhcLIyw4KDbzS46hNq9QX0MjG482+riUoCXLxCJX8XrUH7QwksViXTHzI49f6KGt49B3x/B9r+jYyRn6XIMi491zpIrSlGAWKTyPM3w+FgMM5udG2M8Ko8vuxq9NR9Bfaxl2GyssB6yAAAgAElEQVSWkMFqhsVqP6+D6VXeTCI6CekGT0q0ofwzC4ypvNUGfQxmGGzYZ3auoKixB0cdwnj6j/MsFh0SJ7SnsQbgbK1w34urjhR0oMYuVCFjyxWlKLCK2yoJJgV7Dk/m6z0S4/U21JxXKYM+BjMMAAxJjtkZa6M21Fqd6U18mQwGDLOeQ4NMCWy/TufN+HQwxjnz4JeH6FiY9HxbUZDZR3oDxG0uJYcOpvhIwVXK+paR1d4f+TN30Rji2TjrprwDFsemQvfy6hD5mDBtvdmMEwYDu1KmamwWI6dTpXFCzTgCSduRt3ffQGECHgNCVS7F6CMxXl+KzMQUhSUcG2prgBPmTCQUi/OwOXfI8m++dmrY8yHRBhiz8zAvsVTdcpoE/HrV19oAK7fkKUCHWisQ7ml5LrLrEKYHajwXUzWCdjp/DidgQWZiiks643kAOIcT0GGGhw6UEBtqrEB5dgrKJc4hTq09sISPjcSJ7EwkFLuGM9QiXIYFhoUJz7vqSF4HinahVn8ytoxaG6A3uJ5XRBS+AGD0MAe+8yWJeMkfkTKJLThoBgaMdZ+nYnliWkRvPAfV/jtMKQ2gqG85Wc1mnFCQVfU4K1eeAPfyhhgMGFZshsUaA6PeBssBG4zPRULN2CztoMvpVGGcABTOs3qRsp2ztTYgumVDBeQMeIUOxqwcGGFBQWImEordx9UB+ZiP8iMzkTB9nAOTtQxL01KQIBEP9xg3MeoWK6/FkZGxAioGE3XIOUee2AOik1D0MRd/TUwRxfyVYOP05YYkFH3MXlOdm4LNSpep0YGsXfiIMJ1n+XM3acSnoyhOB8eeEx+KxO6RAUxZOcjQ28s8p3CVDmH9fCiEEp7qzVt8oe97JSugLC83cWNn1hbss0ZiBq8Pt0Q83v04YVE4799HdClM0CzYG+faeKCgWGppifUaBUv+3qKPQcbHOUg3WLCZe4Y5WMKDbFAoKyRUBygsgborTx021FjtAyW7SuB63oPslOjXH8MES74S5+0hA54MtfzRTa/DAPF1VhvOOn6w9RAvxbuiZA9CQuLSUfRxEozmUvXPnFeYUa6PxVrVzgNU6UC1XTSDkFAd4BJ2kLcHdlk3qQU3UHGzxVQZ580FHcIUl/19hzd6k4Ztc7mZeXP1LS1ry6EsLxsqKD9oQb3ZDDjCZ74am/k6VRon1I4j/oGcAW+oyBO8OEPuBszGXYXpxdfLUV+Sx7tRSAzg/BtJRZ5g6ViS6FiY9BZk5vJvVhYUcL/lypPEWopsnrNQnZuHckMsN7CyHa78M+dLQ6pz8ySWyJoBF3Mr+ID/YhIbynO531wMkX9zri/JEywp2gd3Zxobyj/gLxnrYHwuEieK8wQ3bYeuVNiDcwDgyQaInA438G/S4hu7mjZXowMFu3CthxdEG2CE0LlUsgfxzcW17ZoLZ6MH3bU9h8BRkrIHG8pLlB1Ar/BCbyzC9qwvyUMBYvErmdBfs/UtZUcVZS32giU18obExcJoLkX2AWC8QbwnxtOxWU6nCuOE4nn/QmECb+jXH2fTUpBg/y23zKuPQUbqOSTw40T6WKzNUldUSChQkJaCAu63YFkrOgnphhRk2s8bkrA23oZ5sjdwHYxZSahJzENCovOYKStduTzJ+sViBvKQkGjj1c2pi/DkJBgT8xyxaGNqOkw1vl3mDU9OhyktUxDvNqbmcHFDHYxZ6UBapqO+w+LTkW7I5C2t62B8NRb70uw60cGUlQRjGi9+Hp2EtfGZmMfTDQxJ3Mtj5OyBHQAKsp3hg1CU8mRVCinEwqTPZPdEGJJQlByD1HizUw5DErt6I6shlTqQsQupeni6kZVdOUniQinsEUV7sNs4tydkWHwSTPo8H9sPa6OOtk+NxbBsXpjApQ0i2VBPah4SRH3F070M6vBCb9x16WPNSEjMc/7+WCEM1Gx9u9oaW67qDDxDlbyRGGvIQ3lNLFL5NuvV2KygU9lxQsV5P9KBYRjG30IQbROXdy+0IaTfRKklmvlmRJ8h8T4HQgWkN8K3UJiAIDQIu5waibF+dQS45W69AZF0Q/MI0hvhayhMQBDtHtdHr6CPxVqlJWOfwz0JwT9kSEJRlgebITUJ6Y1oeShMQBAEQRAah8IEBEEQBKFxyBkgCIIgCI1DzgBBEARBaBxyBgiCIAhC45AzQBAEQRAah5wBgiAIgtA45AwQBEEQhMYhZ8CfVOQhIa1MxWeMlbCgIDEFCblyH0ph06j9QJJbKvKQkJjnw6+S+UiutoSv2r0iDwmJKdL/uPzrSzLly7KWYWliCpZ69GXKe0N1boqPba05iPuY0G4V9dyKufeyc7rk2x1nhwltZixof+OWdpwBn914AXDfrW8NX5piYT+dy/9YUn1JpoJzoIbWVk/4uB1tKE9rwx06OglFH+ew/1IjubcKcr/Vfi+C+1T1Pf1Gg1QbShwLT85B0cdJ3Cdn/Y1rH7v3qOmPrd2mbShPy8PZ+HQUOezOgoK0UgxIZW23ud/K8M3Y1/Zobr214wwQBEEQrYIBoWLnU4ewfn4RheDQxLcJqnNTuG++W9hPx/I+Mes8B7Cfo+TNRCrykJDt9LSMqTkwgXcsLQUF/GusZVia5vwWusvnfwX5RSI9VUboijwkfNaf90VA7v3yYbzP4zrSRMKSlol9j6UjIw6899Czn2Vl5bBnLHxPvTHVjSdeIVNPl7qKzinpVQHhtc7P5cq1o2Rb2eslda4fT/7sFJTLfkpY9G54fSyvXcTvjZeoq5p2l5PfF/Dzl5AfjvJE9ZH5PHd9SSbmFdvDCyL9uamPVBumI0+yXYVfxbTLmY6wz2TsV0LXmYJ+JErrVR/zdBWFzXffY+mYUZPpsG3Xz4PL2JJSfwSEfVJs06L2kPs0ub1dnboVfdtCYD/u6+uanlc/u3yvGbDvfU5mUb2UxhDXcSIJ+EBq7BPXU2zzTpntX/F02N5z5zBPst9IIDv+u+9Xsv1ITq8OndjcjPke2imjFQ6tY2a8sZ2p4x06lpPMzMipdPyu25rhTHN+O5P+Ygaz4zx38vx2Zsche8pKJp9/Tio9U8nkv5jM5NuvObSOmSFxXiyTE3EZrunrtmZw8luZHW8kM+lbrcK68OrmuJ6XZ93WDGbGi+uYY+50JlXPQ+uYGQI52LL5ZcnqVbIMnp6YSiZf7lqJdmRl4tWD3xay7cjK7izbvXx83R7byrcR4fUuOlXT7nLyq0VKLw55+O0hrg9f/2I7sjI7tlYykohlPrTdKa9Sfdy1oeiYsO1V2O897WNCu5W3ca6PyI0HamxJqj+6KUts08dy3LeHQHYXHbqOLeL+LVW++/RS8rnWS2kMOZYj7kPbhfVxK5+9PLEMQrk86zeMwvgv06/k+pGY89uZfJl2UK63PNoNE1jLsNkciXTerCckLhZGqxkWh+elQ6jdQ9PHwCgzU6suLgXik3geXSR+Fa9D+UELABvKP7NgmOi8KVUu/qhDmN6GfWbOY6wwo9wQyZPPBssBG4xjPYth8mUIiYuFERYc9Di+qIPpVbuHrIPxuUjAbGY3eqnSqxyRMPGvNRgwzHoODW7Ts7o1pvJmDfoYzDDwdOdBO4qpLylFuSFJ4GWHx7F1ry4uxQlDkmBmGhKXBJPerlM17a5G/ubCbw/WLk8csLjdd+FcwtXBGCdjX/r+CLb/HR3D1bFl6+NqvzbUWp3ltoY+5ha+rUTHwqS3oeY8+1PZlppHeDK/PSIxnle2A2sZlmZbYEzlr/CUogCxSOXbf3wshtn7uxhP00uhNIbYz/Nn6Q778yUS/aZG2oblx38Wt/1Ksh9JoI+Bia/XsZFAjc1nGz81ESaQ5Pw5nIAFmYkpLqeM5wFER2K8vhSZiSkqllxsqK0BTpgzkVAsOqVnG6vGKhUnk0OHyMd0KKixAdCh+qAFxrE5GIsUHDzP5lvjxffoPZPBvWyh7gxWSa9qOqxouQ2QG4xtqLEC5dkpwk+8cucQ50k7ul5vOWDDsMekrmHb3PWcDqFhwL5aGxBtU9HuCvLDB+3FH2xk4WwuOwXlSkui0QYYs/MwL7FUtFTfsvVx1SV3U9Or0bWYlulj7hgW5irb2VobEA0VttRcO3D9jLVRcN6M7DQbBojCLvW1NsDKhW9EstVagXBRf/Y0vSQKY0h9rRkn9AaVNt0MpPoNd/MV9gul8T/Sfb9y24/cIAr3QN/f01q5RbvOAAD5WLYOxqwcGLkdvAnFcrEcFvc3Gwu82SATYjBgWDHrUR80R2JsMhBcy3qbJphRru+PX3mW5T3Csz0CfNj4GWDKykGGHpxjcE7xOrmO5Gk7ipG7wSjffNS1u8/3CHhJSFw6iuLYeOy8xFIZm2Z315usZVialoIEUZv7pz5tu4/5xlGXgHOuEZ+OojgdHPFxQRoAerD1jhY534p7BER4ml4S92NIfS2AMF0z8/c9spMNt/1Kvh/xYfdIRCL94xznPpLPfCe/dsME/fpjmGOJUQ62sdbGAwXF7h7bYD14d0tILsuRHPW1Csumeh0GwIbaChvOGgwIBzd41dhQXWvDsMciW12HUK9XKbhl2VRPbtY6hOm5GZYsatrRNe/QMAiW+pTPsbMEdmBX0+5q5b+3hCfnoCgrFigulV/e5R5NTDdYsLmEnWH7pz5tuY+psSXvqTebcUIU6nJBb0BqVhKM5jzBOydCQnWAbJhOiKfpJVEYQ0JCdc6wpFewNiqEXVnyNj/58d+J237l0o/EWHDQzG6SbKlHbbXlDPCNlItjFnzAf7bZhvJc7ndFnuBZ3QaXhhbG3Ni4mPAaZx7scuQJvgFYy5BdrHwDG2uwoSC7FLAvMeojMR6lyCwGxhsUBgmfxJMkYotyKOlVFvGgaEP5B/xwAYdgsGH3LJwozhM8f11fwv1WbEf5G5dUu1aXsHWROldfkocCxOJX0axsyu2uIP89fbmJBQX855TPn3PVPYdTPsB+02JRqg+H1A2jWTcRP/UxH6FsS3bU9Ue+TYtvnvUleYJwgZNImLJigeJMp0MQHQuT3oJMwfPrIjvh42l6KZTGEKkyKsqE9iU79nHjzGfO/Ktz8yTCWuqRH//d9yv3/chVZqGza0FBtoROmzHmaydMEB0Lkz6TjUNxj3WEJ6fDlJYpiG8ZU3PYWFq//jibloIE+wnBI1bs5pB52Skoty/r6GOQkXoOCfxYqT4Wa7PYP0Pi0rEWmZhnj4PpY7E2NRLzFJZ5wsdGAmYbb1BiDRkwIFJm9hwSFwtjcR5vSUqVlkRI1FPFVbJ6Vbw2CcZE9vEYQAdTaiyGZfPCBBLtiOgkrI3PxLy0FBTY0xmSUBQHAHLtyN64CrJlwgf6GGRkgVvC4+Xh7pxoiVRVu8vKfy/RIawmk9M9ILdUGxIKFPDkFSyRKtVHsg0ljnnIve5jPkWFLanrjxI2HZ2EdEOKIwY/LD4JJn0eJO87jnEsEwk1bDsYs5JQ4+iTbBmmrHQ3FdF5mF4a+TFEB2NWOpAmtlX2L9exz9Whs48z9vyNqekw1WRK60QNsuO/TL+S60cCdDC+Got9afZ9CZFIT41EOc+21dRbjg4MwzAeXUEQBNFGqC/JxLyaWD+/OZAgWj/aChMQBKEduDCBzx4NJIh2jHbCBARBtGuEb3ID2OXpnBZ4/pwg2h8UJiAIgiAIjUNhAoIgCILQOOQMEARBEITGIWeAIAiCIDQOOQMEQRAEoXHIGSAIgiAIjUPOAEEQBEFoHHIGCIIgCELjkDNAEARBEBpHI86ADeVpKYJPcxJtkZZtx/qSTCSkqfm6IthvxCe2RptS85VDH3wJsSJPWVecju7NFxft+KhuiXnN+ESuO1j7TfDkC34EcY/QiDNwr2A7+70d/JqLBQWJmcLPfyqh5kbQ3uG+P+7pl8G0A/v56QGpOTBFK6fWBuwX/YzmUs/6G0HcA8gZIAjC91gt2IdY/IocARGR+FU8UFBMqwNE60LDHyqyoTwtEwV2D1307fDq3BRkmu1pRd+6r8hDQrazMxtTc2DqV4alaaU4AQDZKSgXXyNCmD+Xh33grMhDQjaQntUfm+15Sny/XJiH+2/Pu5UZvGNpKShw5CHSDS9vZ5kW9lvghiQUJQMFiXmAYBbI5lHznP2YvL7FiD86YxTNMPl1d/l2t5XXFirOs3Vw/bKdXQZx2SwWUZ09q5/7trPnm46wz5z5GSV0K9U+ToRpFL9vLmUf0e7ORyI91X1WAFBvNgOPJfHq70l/E9fHM91KXeOxjYjrI7JHZ3qxnYPTlY3X/4VpQgwGDCs2oxqR7vsrQdxrGE1gZXa8kcykb7W6+c0wx3KSmRk5ldyvSibf8TfD1G3NYGa8sZ2pYxiGOb+dSX8xg9lxnjt5fjuz45CwnHzHb/eyzODlz+bJu+7QOmbGi8nOMiWuEcorklGMrMyVTD7/HHc+361uOPkEZVUy+S+K6y3UhTiPY1vdyGqvy4vrmGM8eVh5OT246EpYN0FdxbKJdc1YmR1bK53l2uslztcFYb6e1E++7dh8+WVL6cN9+7hebz/mtHeRTg6tc8lfoEMXXXBluLM3iX4gpx95fSj1VTEq6q9kIyJ9HMsR11WYX93WDFf5BTYm7mMSfY4g/Iw2wwQVpShALFJ5M4Hw+FgMM5u5TUORMPFmiiEGA4ZZz6HBcUSHUPuMXx8DoydLoRWlKLBGIp0/E9XHIDVeh/KD/KVDHUyv2mc/OhifiwRqbGyc3lqGzWZhHiFxsTBazbC4jUV6ILM+Bia+bsbyym4Gw8J4eca5m9lZ8PdiwJTFmxmK5TUkOWdh0bEw6W3YZ2ZnbdXFpUB8Em9FJhK/4umWPZ/Om/XqYIwTrQpYy7A02wJjqvuVHa/rp7LthvHqEBIXCyNsqHXMjJXbZ5iEDk4csEi0oQ3ln1lgTBXqe4bBrlP2vDg/U6rrSooQHcL6CY9I6kdJH4p9VRq5+ivZiABrGTab+X3RWX97fiGhOsAhjw2WA4DRwMuvwoxyvQGRjvJ0CNPbUHNepgIEcY/RZJigvtYGWLllbgE61FqBcD1cl5LBDVb6SIzXlyIzMUV56dVd2XoDgkXHQ0J1wAF2QLc7AKHiGxHnkIScP4cTsCAzMcUlf+N5AOLrvJFZtGwMfX/la2QIHxuJE9mZSChWCmeYUQ4d0mVuwvybihAbamuAE+ZMJBSLTultqIcFB83AgLFy9TcjO83m8cY31fVT2XYDQsUycjcPN6EqcfuIrw9xyY+XrxUoz05BucQ5AKixSskjB5tnGO+IW/0o6ENVX5XAff2VbARCJ+78OZyADjPE5fTr75gghEQbYEQpKw8s2AcDUuOBsx9wDlqtDcMei1UIaxCEf9GkMwBANu7IxgcBU1YOMhyOwTnurA7GrBwYuV34CcXyewMkCdP5YGBQuOkI8ExmNn4bifSPc9j8K/KQ8FkzxY1OQtHHnG4TU9zG6QEA+v4uzpInuHd4LJCasQqwAtAD5QctMEUrzX55eFI/j9rOlZZoH+l9EYAqnbmgQ5jYtmT1414f9bVQuUfAMzxy5BXtMRJjDXnYbLYhEtxeCb0NA6ylsFgjgQM2DHiOnjohWjeaDBOEhOocs2xXbLAcsKlYIo6E6eMcrPVwZ7BwSdFJfa1NvZPQrz+G8ZeNVaNGZgsOmnXCZXpFJAZ/bnYoJiQuHUUfyzxe1a8/hsmGO+TlCA0DTtS4e/afXZ61hxQk0RuQmpUEoznPq3cIqKqfV21nx5v2kbMvtu3O1nqms3q36e1IL4O76EdBH/J9VT3O+ivZiAh39nj+HE7wnITgMB1O1NjQUAOMN+jAOgg21Jy3ocYaibECR8uGGqunDhZBtCyadAbYOLMFmYKXf1hQkMvOgkLDwIsfss9LO8IFFXmC9wg0SAwq7gdWN2Vby5BdDJjiVc5EuZhuwQf8Z/1tKM918+y/osz8gVs8+FtQkC0VSxXtoQgDyj9zll+dm8dbdhbJZrXhrCd1s5ahXOW7G9h4srC+zvqzey9OFOfxbtQ2lJeI6xcJU1YsUJyp0iFoZv3k2s4Fde1Tns17aY6sfUnpBKgvsf/WIfIxHU4Ul4ryk9MLe42zH8joR0kfsn3VPXL1l7cREZLysTo3PudcrQgxGDDMnIdMszO8Fz42EuXZeSg3GISOm9WGs7wwYHUuvYiI8D8aDROwL/+oScxDQqLzmCkrHQAQnpwEo+OcDqbUWAzL5sIE/frjbFoKEuyXCZY72YG1IFtuKV4HY1Y6kJbpUrYnoYbw5HSY0jIFsVRjag6MUollZWY3T83LTkE5t1xrfDUW+9LsMdVIpKdGopy/DB0dC5M+k43zcnnZdWaXx5iaDlNNJmq4+oWilCerfH3Dk3OQnpsiSh+jTjH6GGSknkMCPwauj8XaLLvsSShKzUNCWgoKuEPD4tNd9ebIJxMJNXJL/t7Uz4O2kyhLsX0AGFMNOJiYgkx+/u7sKzoJa+MzMY+nExiSUBTH/hkSl4614Jb3AVafqZGYJxOaCDEYgA8sqI+LYWfjMvqR14d8X3WHbP2VbESEqz1KhFW4fTknwng3/n79MQwWDBgrtJ16sxknDLH0WCHRqujAMAzjbyEIgmhvSDx/T4B9j0QpwjzdZ0QQLYw2wwQEQbQw7ArG2ey29nrulsSG8rQ8lBtiyREgWh20MkAQBEEQGodWBgiCIAhC45AzQBAEQRAah5wBgiAIgtA45AwQBEEQhMYhZ4AgCIIgNA45AwRBEAShccgZIAiCIAiNQ84AQRAEQWgccgYIgiAIQuOQM0AQBEEQGoecAYIgCILQOOQMEARBEITGIWeAIAiCIDQOOQMEQRAEoXHIGSAIgiAIjUPOAEEQBEFoHHIGCIIgCELjkDNAEARBEBqHnAGCIAiC0DjkDBAEQRCExiFngCAIgiA0Tid/CyDm0o/XcOXqddy41Yimprv+FocgCIIg2gwBAR0R1DUQvXp0wwM9u6u+rgPDMEwLyqWam7d+Qo3tAgICOqJn927o2qUzOnbs4G+xCIIgCKLNcPcug1s/3caP166jqekuwnR9cF/XLorXtQpn4Oatn3DqnBUhD/REj/vvQ0DHAHTs2BEdyBcgCIIgCNUwDHD37l003W3C1f/eRP2lHzG4v17RIWgVYYIa2wWEPNATvXvcj86dW4VIBEEQBNEmCQjoiM7ohICOAQDYe+zQAf1kr/H7BsJLP15DQEBHcgQIgiAIwod07twJvXvcj4CAjrj04zXZtH53Bq5cvY6e3buRI0AQBEEQPqZz507o2b0brly9LpvO787AjVuNuD+oq7/FIAiCIIh2yf1BXXHjVqNsGr87A01Nd9GFVgUIgiAIokXo0rmT4qP6fncGAKADPTZAEARBEC2Cmntsq3AGCIIgCILwH+QMEARBEITGIWeAIAiCIDQOOQMEQRAEoXHajTNw6fIV7P7XV/jL/9uCrFXZ+HPBJpR9sQe1523+Fu0eUomCJRkoqG5GFtUbMX9JBuY3Nx8CaNiOrCVrUd7QzsryJS0sd92utZi/ZCOqWib71kuz9GpD+Sp2DJi/ajvqfC2bHG3VjtsB7eKZPsuRaqz96GPcuHnT5VzHjh0R+/RU/H/P/BKdO3duZkmVKFhSKhpYemHaonkwBjcz69ZA9UbM33gZ0xYtbR/1IZpHw3ZkrTJDN2spTOH+Foa4N9hQvmodtulisWZRlL+FcY/GbLPqkwwU2AxYs+jpFiujzTsDf/v7DhR9VoIOHTrAOPnnGB3xKIYOGYSLFy/h+MlT+HvZF9i6rRyHLceQmf57dA0M9K6g6o2Yv/EMImYtxRqe8VV9svbees4tSJXlDBBsQISfHYGqTzJQgFisecHTwYh11qCRAaKt4X27ti7qdq1FlmUo0hY9jb7+FsbXNFTiUAMQEdPybdRe7KG90KadgW+Pn0TRZyV4oHcvLEh+CcOGDHSc6xYUiof6h+IX4x/DpqLPsXP3XmT/+S/4/bzfelGSDeVlZ4CRsS43mYgX5jWvEgTRWgl+GmkrW24mQhBeozHbjHhhKda0cBltds/AzZu3sPbPH6NDhw5YmJokcAT4BHbpgrmzExDx6CM4VHkER45950VpVtQ0AH11+uYJTRAEQRCtkDa7MnDgUCWuXPkRMVMnYsigAYrpX5k7C68s/AP+ue8ARj36iIelRSF6ZCkKdu5E1ZRZiFBIXfVJBgqOOn9HiJetuZADH0Gahu3IWnUSP1v0PFC4DtsagL5Pvoy0KTo317vuW6jbtRZZO6+4PS+Ai7+x4Q4zspaYgWADbxnUda+EQB7wlk5nA/mrzKiTLdM1v4hZS2ECv16lmL+kFMBAmFayOhfWSVgvgc43ZmA+AIyMxZoX9M4YqGg50h6Hc9aTi5fyNi+J6ymFq1xOmQVlHXV/3jWNhN2oLMuB3U4cbelh/Vziss4wzDSbB/ZVLd+u0vWXqpfYbmTqLoOcHblNE2zg2Tbg6Cfu6u7Yf8M/x+kfBmGIoXoj5m8Ery5q6umFLlzsQQhf/3VcH+LboLLtOe0j2sLlNVIiDOALe5DaM+AyLsrrxBGmiDzGXcdLLxgT4aIzx7VGm2w6O6r6rYz892LPABg/Y/nutFfXffzJp8yMF5OZr7+pUH3NgiXLmZlJ85mbt255UeJhJn/xCmbe4hXMW19Y3aSxMjveXcHMe/cfjM1+6FghM2/xCib/GD9NIWPhXWX7Yg0zb/EaZkc9d6D+H8xbi9cwb73LOyZIy8+PYWxfFHLppGW0bFrBzFssLFMKyyaR7Dz5BXWu/wfz1uIVzLxNh4VyvbuGeUt8vQusjIL8jhUK6mPZJMzbcZ0ob9d6sXnz83K0iUt+4vpKpKv/B5Pvtq35MgjbybKJk8muJ5f2F+tZjd2oKYt3zqXdvKgfJ79TBh/Yl7gd1OqIS+dpuWx/EdmIgh25XmNldmxyXsPauhd27tCfuA15elFTT9Vp5OzBDS5tztX/XVddu9ojV5BlMsgAACAASURBVOd314iul8YX9uBIc6zQfd+QK//dNcxbYhkkx2xh+Y5rBXbAta9U31bSnYL89rGqOSjda9tsmKC+/gIAIKyf+qX7sFA9bt++jQsXL3lRYhRMK5fCNBKo27kO85dkIGuX6LHF6p3Y1tAL02bzPMPwWTCNBKrK7I/o6GBcJPQI+06ZgAhcQU09P7MrQOTzwhlHw3bk77ziMmPsO2WWMN3IWMFsL8JoQF+cQYXHjwqyeyVcZo/BTyNt1kDg6F7hI0ANwM9mK2yqarDBhl742ShefuGzVGz4i4JJ5HGz9bqMOp88hsSGgiIiebOY4KdhklsVqN6IgqOuM8OIF0Tt++TLvPrpYIwZCDScRJVdbjV2o7Isu1zzN4rbzYv6ucNn9uVESUdV5WbUBRswl1/uC7GIwBlsE/dDWZTtyGa7Aox8lKdXHYwveLpZMArRI4E6S6Vz1lh9DFXBAxERzO/rlag46mwXNfX0WBeS9uAB1TuxrcF1JhvxwsuYFnwF28orBcnrdBOavYFXsc+IqLNdBoKHCjY/S/YNMQ29MU2wciG1P0wH42wD+jaYsa1adK3AlqJgWiRKp1J3XsvvQ9qsM9C7dy8AwMXLVxRSOrly5SoAoGeP7l6XG/HCUqzhOwWfODtCleUMMHKCy5KhTtcLaLgAQTdt2I4s7nn++dxyn81mE10n7Lh1R06iDgMRrdDRBAM+AATroJPIX5GGShxqEN247YQ/ighcwaEj/Dx7o6/SkwjBOuhwBdtWefnsN+89CPNXmVHn4kR5ix5hwUDVRvXPOLNPXwxVePpCQn8hfdCXJ7cau1FXFoD67ciSHPg9r587fGZfDpR0xN0wY8Q3ZLZOdTar50XK2JFO1ws4Wurq7HtIRORAQb+vspxB38gnEa0DqizcuME5x2EhgLp6eqgLt/agHtY+H5W4MekQEdkLOHpMGEJs9t4q5T4jpq+uN9BgRtYnldIJ3BHcB4KSuDFvmlGFjUvpRJROre68lt+HtNk9A3rurnPqzH8QoWIPAMMwOH32B3To0AH3d+vW7PIjXliKNdUbMX9jKQqqo2AKt6HOBqDBHgMT05v73x7r68V7np89Jhx67AOEE5vtChA8FN51aS+ov+DZY5PijiVJFEwr2Th+wZIMANKxcRccMbyBMK1cKojr+QYdjIuWou8nGShYlYFtUNovwLW3TtfMx8vU2I3asq5g20Zuv4eL3J7WrxXRYIMNzji2C55UQYUd9Z0yD2t0GzF/4zrM3wm3cWBFwh9FBEpRUQ1EhFei4mgv/MyoQ4RuILDxGKoQBd2Rk6izO3lq6umRLuTsQS1221N/hXgSc08In4U1i7Yja5X7PQiSiPtU/QXU4Qq2cX1EjGc24IHuvJXfh7RZZ2BMdBT++n8l+PKf+zHNOBmBgV1k05d9sQdNTU14fMxo330yOfxJTAteh22WSiA8Cn11ACQ2qvGp+qQUVV4OLjpdL+BevlAxpA/64nILZMzemIzgNtZszECWwo23vNCMOqnNSCrK6uvB2OR4hKeauxnY3JXpWb6K8inZjaqyemHaogmoWVWKrFWQtDH19WtFcLOt5r9gxgM7Cp+FNSsBu6OeteSCF4MzO1vfZqkEcAxVwUMxLRhA8KOIwF7UNdhQZ7mCvpFRbDupqmelB7pQtgdlfGXn9wDH44Y2brKx1vMXwnFj3s+a+SI5u0Pkke58IX8zaLNhgpDgB/HUlJ/jwsVLWL/hr2AYxm3aH2rO4/9t2YrOnTph5oxnfS6LfVmMXV485vnyd7W6a9ilJPdxM5/DLekLQwEc1cdQJbWc5yF9p8xjQy5eLPWyYROV2GyitOxyq1vCZyHtyV4S1znxur29yEd9WVEwrYxFRIMZWXKvklVRv9YDF+KwtMwSqrwdcXFgr/amcEvBNhvKLWecN33oERZ8BYeOVKJGEIZTU09PdaHSHuRq4db2bKiyiPdXtAZ0MC6KldiHpQK5MU+MlE64cdG+quud7pohfzNos84AADwX90t0v/9+7P36G6xYuVpyY2DZzj34w4p3cPv2bXTvfr/iCoI0lSiQeL951SfrsK1hIKZxM1p2I+AZFIg7XfVGx3v+2Tgw/4ZeiQLRY4ZuCZ8F08gr2LZKGPet27Wxhd7lHQXTrIGo27lOGD9tsMchn/fca23YjgJBLJa9KfPjjK4diJud8I9xmymFSA+UbOzWjHxeuVWfiF8rXYkCQbyO66wyS/N9pzyPacFnXGyj6hPP9kOosRvPynJuZHLeADyvn6/x3nniNpBJxPE907U6OxLnyToLzv0wnjjlfUcNRd+Gkzhk49/0WSehznISNsE+EDX19EYXUvagHve2x45/Ji9XlnzlTAMSY6DopqyeKEx7shfqdq4TfZvFhvJPxLo7I+xT3LjI3/+jVne+k9972myYAAC6dQvCyhVL8Kc1H+H4ie/x6utL0bNnD4T0eQD/vX4DFy9eRuNPPwFgNw1eunwFf/zTB1i2eAHuu6+rh6WdccS4HQQbkLZStJuUi4ezzyDz0i1i/+w7ZR5MNmfclo0NxQIuewakiXhhKdJ2rUUWP6YVbEDaFA+roxZHLIuLn9rlaMaSrW2nMC9x7LrvlAmI2FnK6ZuLnb3wMqbx9hmwOjUgX7BngB0ot23k4m725eDwWUh7ci2yeOWy7zXIQAFf6UdFcXvF5WReHJ5vGyNjPXxbmLLdeFxW8NNIWwRkrTIja8lJTFs0wYv6+RbJdlV7sRs77Pvky0jzQAZ1diTu6yJZ7eHBVRnYpvSOheAo/CzYjG0Qvua776ih6LvTjLqRImdMTT290YWLPXiy/OzG9lzGP89olj24cFkU5/f+mzHOPSPCfRkRs9jQpoORsUjT7RX0qb5Pvow1gnCnWt35Tn5v6cDIra/fA6qOn0HEcOm3B6rl9p07+LxkOw4dPoJztecF58L66TF3dgIeCuuHjHdW4z/najFsyCD84fVXEdjFm1UCgiAIQsu0xe8qKN1r2/TKgJ3OnTphxrOxmPFsLK5evYaa8zbc3y0IvXv3Qvf7nU8OLF28AJn/uwYnvj+Nd9f8GYtfewWdOrULFRAEQRCE17TpPQNS9OjRHSOGD8VD/UMFjgDAhhXSFy/AgIf74+i3x7Fpc7GfpCQIgiCI1kO7cwaU6BZ0H5YtXoCxP4vCwIf7+1scgiAIgvA77WLPAEEQBEEQ7lG61/p9ZSAgoCPuNDX5WwyCIAiCaJfcaWpCQID87d7vzkBQ10Bcv3HL32IQBEEQRLvk+o1bCOoaKJvG785Arx7dcPHKNX+LQRAEQRDtkotXrqFXD/lv8vjdGXigZ3c0Nd0lh4AgCIIgfMzFK9fQ1HQXD/SU/1qv350BAAjT9YG14RI5BARBEAThIy5euQZrwyWE6foopvX70wR2bt76CTW2C+jUKQAP9Lwf3YK6olNAgL/FIgiCIIg2w52mJly/cQuXfvwv7txpQpiuD+7rqvy23VbjDNi59OM1XLl6HTduNaKp6a6/xSEIgiCINkNAQEcEdQ1Erx7dFEMDfFqdM0AQBEEQxL2lVewZIAiCIAjCf5AzQBAEQRAah5wBgiAIgtA45AwQBEEQhMYhZ4AgCIIgNA45AwRBEAShccgZIAiCIAiNQ84AQRAEQWgccgYIgiAIoh3QnLf2dvKhHD7hB2sDrt+4hdt3mtA1sAtu3mr0t0gEQRAE0Sbo0KEDOncKQLegrnhIH6z+utbyOuJLP/4X1oZL6NKpE3r37I5uQV39LRJBEARBtCkYADdu3sKlK9dw+84d6IMfwAM971e8rlWsDFz68b+osV1AyIO90LN7N3+LQxAEQRBtkg4Aut3XFd3u64ofr11Hje0CACg6BK3CGbA2XELfPr3R4/4gf4tCEARBEO2Cnt27oUOHDrA2XFJ0Bvy+gfAHawM6d+pEjgBBEARB+Jge9wehc6dO+MHaIJvO787Af6/f8uibywRBEARBqOeBnt3x3+u3ZNP43Rm409SEoPtosyBBEARBtARB93XFnaYm2TR+dwa6BnZBhw7+loIgCIIg2icdOrD3Wjn87gzQewQIgiAIomVRutf63RkgCIIgCMK/kDNAEARBEBqHnAGCIAiC0DjkDBAEQRCExiFngCAIgiA0DjkDBEEQBKFxyBkgCIIgCI1DzgBBEARBaBxyBgiCIAhC45AzQBAEQRAah5wBgiAIgtA45AwQBEEQhMYhZ4AgCIIgNA45AwRBEAShccgZIAiCIAiNQ84AQRAEQWgccgYIgiAIQuOQM0AQBEEQGoecgXbBUayKMmBVJZVFtB0ubF2AUVFrUOVvQQiCaOfOQN1WpEQZMErwjwYfgpCF6zfkhBGEdmi3zsCFrQswKmY3ppSZcaTS/q8My8eJ0qRuxQUv8q9abcCo1Ud9Jq/WaU5bqIXajCAIQppO/hagZTiKDcv3Y8LyMjzbl3/8QTybPd9fQhFE26DvM8ipfMbfUhAEcQ9pnysDdadxGsCghx70tyQEQRAE0eppn85A3/GYMg7YkO9m2ZmLiU5evh/Y/0dMjjJgVNQCfF7Hna9cI9pnwIufcudmbQCwwSTYh+B2Q1TlGmH+jrS8MlQskbtcI1GWMI2wTDtVq93UzUVmg2JeAHh7M5zyqK6fUluorJerblzbU6rNpLmIz1MNsvI7whqOuvNlYjc+erJPxRf5ubYre13K1os8PUi0o3iPgMueAedGTkcZ/HCLeG+OVFtLpKlV0AlBEPeOdhomeBDPpr+JXTF/xOSoP2JOgRmLoninuWXQC1sXYPLOSfgy+xn0cZy8iM/zgY2VZkRwRy5sXYDJpgUYWLYaz0bNx5HK+ahabcAsFODIgpGOK9XGuy9sXYDJywdiY+VqroyL+Hz1PtlrqlYbMGvDOCwvMztCH1Wr1wjSbDAZcHp5GY5UPui8JmYNBlfOd5aTGoPleBNfVnJ1rlyDUSYDwNMRK99+gd4ubF2Df0kJVrcVKTF/xN45Tl14VD/ZtlBbr6PYsHMSvqxc7bhWkEamzSSp3IRdT5bhSLZ9ZekoVkWZMHn1ING1u7EscxJWVJqdMnP6wPIyHHmGJ28UsNEhrzu8zU+iXTmZNwCYIF9b1ZzOX4Av5ppxZAHvYOUajDJtwpwCM3KinLJMToWzLV3SOG0MGOgj6QiCaA7tc2UA4G4y7IbBDSaZGbAL7L4C/qDd55m5mIP9OHPeN6LVntkPzJnMK+NBPLvA9SbooHIN5wisFuyBiFggurnMKUDOM87QSMRv3sQEbMIXjlWNTVi+fxyWp/PKipqPjXN4qyh1W7FM5AgAQJ9n5ov2X0DSEfCqfkoo1QsjsUjkRLBpzuCUu9UMOaLmC8oDRmLO8nHA96eFDt9+YEq6sNyqv/4Re8e9iRV8eRcUYA42YZ19hu4Ob/Or3ITl+2dio0AHI7Go7E2fOQIAsHfIXKFTjYv4PH8TMKeAd5x1xCfs/yM2VDrTTFheJrKn1dg4x4fCEQTRLNqvMwCAvbE7nyLYYOItmSohWNZkZ1inf1B5rQKhA8cBG0yqZan65yZg3CT8XHwzFjHnF6IZb99BGASn3FX/3ATMmetyUw8dOA7Yfxa1AC4c2I29mImpUVDgKFZJOAKO/DyonxJK9XLAD23E/BF7m+nA8Zfd2TDGWdHS9kAMFujyKL7YAMyZK3Z8+mHgOGCvojDe5ce262TXVQdOT75iwsB+wgN1+7Br/zgs/41M+3Bppjzmun8ndOA4l2MEQfiHdhomEMM6BT/fugCTl2fi88dWu85yHdiXV9kl+Zy+zmOnfSRNn2dW48hDazDKFINRywGMe1NyeZzlIk59D2DIIO9n1vx89pswaoPUeXa5tvbMfmDcJIQq5LbBZAIwExslltw9q58PsK9QYKYzvGNfXvcCxxL2nAIcqeSHPkQJxw0Q6onbuLrXZICkiocoFOxVfnb7UMjbB7hsyD1/FnuxH3tjDBCrBuDCE+fPYi+AKS0vHkEQzUAjzgBLn2fmYs5yE3YduIhnn5F+0qBqtQkbvLx59XnIg/gnF8d2xKOjzrqJKT+IwT4Z6Ll8hsjHzC8MHAd8r5zbnIIyDMyPcR8LV12/5nIRn2dKr1B4hZswiSq4GfEgb65tRn6q7aPfAEzAGR8Ixs9vHKaUyTjXdT4ukyCIFqGdhwmk8fiRw8ovpWdmkrjGqav+uUkmvT226z6+zS67f9nsNyeqyafPQwOB/bvxL8VY+4N4NrsMy8dtwizZ3fLK9WsJ2HCHr7iIf+3cryIdu3y/4Z++erGRuvzctquk3bqGTrzWVd9BGIT92HVAJhzkNo1anRIEcS9on85A3VakuDzedBGfp7Kz/jncLEvqxsfGz/nHjmKVyfVmLjkAR03GHOzH8kxe2ZVr2EfaeFStFt482cFYHC920ueZdMmbrjgfJdiNkJswS6ybyjXOzZVR87Fxzn4sjxE/CrlG4tHCB/FsNruZjS+bp/UDPHFCXGUYPATCtuBm92JUOVXcbJx/A76wNRMS2UnK8uzcmZL7JTxtK0/yk25XCbu1P3JrWqOoK3WwGyv3Lo8Rbc69iM9X22WRTiOlU/bxUJlHWAmCaDHab5hgP/tYoQDxUnLUTCwfF4PlMQYsB7db/5nV2HjGgFmOOOhMbKwsAER7Buwhh1lRm7g08xHBzYJPx/DKnlOAIwXAKBN/qXQTd52dmQpL6Oyeh8GrDcLr5hTgiCc6wUgsqizDwNQYoW7GvYkvs50/IxaY8eXABZjMjwWPexNfSr6UbiQWcfqZFcU+PjbV4/pBui0UNkw65S3D8u9jnGWOexNflr2JZaI9A9JtJlGfsjdxOsa5t2LC8jJ8uTzTdc+AZD3m40jZAKTEcPsl4MwjR111vMjP2QbOdpWyW9Z5OxNlUtSVWpz7Q4T7GuYUmPEsL82XWIDJvDQe6ZQgiBanA8MwjD8FqDp+BsMGhvlTBIJop3AbX5eXiR6VJAhCa5w4U4OI4e73tbXPMAFBEARBEKohZ4AgCIIgNA45AwRBEAShcdrvBkKC0DwjsajS7G8hCIJoA9DKAEEQBEFoHHIGCIIgCELjkDNAEARBEBqHnAGCIAiC0DjkDBAEQRCExiFngCAIgiA0DjkDBEEQBKFxyBkgCIIgCI1DzgBBEARBaBxyBgiCIAhC45AzQBAEQRAah5wBgiAIgtA45AwQBEEQhMYhZ4AgCIIgNA45AwRBEAShccgZIAiCIAiNQ84AQRAEQWgccgYIgiAIQuOQM0AQBEEQGoecAYIgCILQOOQMEARBEITG6eRvATp36oQTZ2r8LQZBEARBtFs6d5K/3fvdGbh95w4ihg/0txgEQRAE0W6pOn5G9jyFCQiCIAhC45AzQBAEQRAah5wBgiAIgtA45AwQBEEQhMYhZ4AgCIIgNA45AwRBEAShccgZIAiCIAiNQ84AQRAEQWgccgYIgiAIQuOQM0AQBEEQGoecAYIgCILQOOQMEARBEITGIWeAIAiCIDQOOQMEQRAEoXHIGSAIgiAIjUPOAEEQBEFoHHIGCIIgCELjkDNAEARBEBqHnAGCIAiC0DjkDBAEQRCExiFngCAIgiA0DjkDBEEQBKFxyBkgCIIgCI3Tyd8CEER74k5TE+7cvu2z/Dp17oxOAQE+y48gCEIKcgYIwgfcvn0bFy9dwo0bN3yed1BQEB584AF07tzZ53kTBEEA5Az4BlsxkiavwJ4Jy/DVn+MR7G95iHvK7du3cd5qxRc7d+Kjjz5CZWUl7t692+x8O3bsiKioKPzud7/D1CefRD+9nhwCgiBahPa/Z6DpGk7tLsTCl+IRPSISQ0dEYui4eDwz7z3ssflbOA4JGaN/9TIWFuzDqWvixEewckQkho5IxZbWIr/GuXjpEr7YuRNJSUmoqKjwiSMAAHfv3kVFRQWSkpLwxc6duHjpkk/yJQiCENO+VwauHUHuK0l4/3Aj+7v3QIwIDUTD6eP49oszOPDiQkzU+VdE3DiO3JfnOGQM1A3HiF4XcOr4Nyh99xuU5k9B1l9XYfpDfpaTkOROUxNu3LiBjz76SDFtz549MWrUKDz88MMICgrCzZs38cMPP+DIkSO4fPmy7LUfffQRJk2ejDtNTbSHgCAIn9N+nYHGI3j/N7ORexro8UQqslfMwuOhgY7TDV+txx6/j6kXUPo66wgEjn4Jee+m4nG7c9J0AV/nLkTSh7uQNvc9hG1diMeD/CosIYF9s2BlZaXbNCEhIVi0aBGSk5PRrVs3l/M3b95EXl4e3nnnHVitVsk87PnfuX2bnAGCIHxOuw0T1BS/i9zTQOCkZdj655cEjgAABD/xEqZH+Ek4O8f+hvd2NwKDZmPjOp4jAAABffD4q3nITggEagvxfkmt38QklJEKDXTq1Amvv/46Dh8+jNdff13SEQCA++67D/PmzUNFRQXS09PRpUsXVfkTBNF6YBimVeallnbqDBxHSf4RAKOwZHE8wlRMpBp/2IfceQl44mdszP7RyQlI+fAbNDSJEl47ji0Zs7l0ExAzrxDfusT1uTxPbsfKefZ9ABMQ89Lb2HLcmbiyLA81AIyvJCFKctYfiInPJyEMQOXn+3BKVd2J1kCXLl2wYsUKZGVloV+/foLObf9bfEyn02HZsmVYuXIlunbt2nwhrl7C1vWn8cvXTiIomf03eskpvLbzCpfgGra+cxIj3rGiTi4fyw8ISj6Jdyyupw6uP4mg5B9wULVQ17A54ySCMs7Ll+mW69j6DluX+OIryskBWfnbBIry38WPJ6x4553vMYJr56D532PFft8/2aIelbbVjujQoUOrzEst7TNMYPsOlbUAHp2Gx1XE2hsPv4dnZhbiFLojKm42poc24tviv6H8g5fxz50L8emW2RgRAEHoIVA3HjPnDAeOF2LWa93Rw02eNcOfxsxXpiAQ11BZtBlpz36Dhs+LkTz8Ar4/2QhgOB5/pLt74YaOwlMA8o/V4qrXCiHuJR06dEB6ejoWL16Mjh074urVq+jRo4fgPP9/+9/2dPPnzwcALFq0yPsZQs15JK68js0AZjwSiLfv547/9w7+ZrvD/bgN22XgJs94z/7rP/jfvzfhFwsHYYa/99NIceUqdvwH6NsR2GG+jrPxvTDA3zL5m+9q8esPbuFsjwAs+FU3RIQwOHv4Fv59QzyTuZe0QdvSOO3TGbDTu4vLTdqFxm+w8uVCnMJAzN1UhCWjuXBC8mxsmfcs0na/h5yyeORM6+4MPcS9jd1vPY3gAABIxdyiVEzKOMPL8wjeX1yIUxOWYXcub2ViUjAmPZ+N9z/dh7lLh3MH+yBQbi9AgA9miMQ95X/+53/wyiuvoGNHduFtyJAh6N27N373u99h8ODBOHPmDG7cuIH77rsPAwYMQE1NDT788EPU1NTgwoUL6Ny5M0wmEwoLC2GxeDGdvdmAFe9fx+agLvjH4v6Y+KBwAXC+468H8NuVD+C3vHN1J37CX/7bEb/wpuL3gLqvbuAv6IzcKUDyzpvY+h0w/xF/S+Vfqr65hYPojOJlA/DUfdzBn/lVJLRF2/I1Vls9vvzXfiQ8F4cAN/t8mpqasKV4GyY8MQah/fzrIbVvZ+AnoFEpzfFvsOUGgGmpSB7N21cQEIrps2cgbXchyvd8g6vTIlC59wiAUCS/aHcEWMImTsHEjH3Y48jzX9hUC6B2BSaNXOFaZm0DrsLuDPwEyDnwTbeUakC0Ijp27IgPPvgADzzwABiGQVNTEy5evIgLFy5g0aJFitf/+OOPePDBB9GjRw+sX78eY8aM8Xi/wNmyq3jnZge8neLqCAi5hs0ZNiSiG84s7Y49GTYk2gDgLhIzTiJR1w1nlvZDXw/KPrj+JCYdDsTu3IcwVuYYAFyuPocl629hcyMwvF8gPnwlDGNl5b2C7V/fBQZ3Q/wUoGrnNRQdvoT5jzzAS3MXZ/efw4r/+4nLtys+nuQ8++Oes9B/ehvzZz2Mtx/n9mY0NmDFoiv4S3gvfPdKT9j2WPG/ZT9h+1WgriMwY2wvrH4hGD07gl2yX9eIZS/0wQDLJayovoubgQFY8lI//Dbc6bjfOmXFmv+7jg3/YXAWwNiRPfD/t3fvUU3f9x/HnySEhAABUQSBTVCrKCqgVtT5s6j1Uq0XOtviqdtPV52XX6vitMLWjXq6eTmdtV6qtbbT2vlTa9vp5lDb+ZN2rmqrFKQgvYB3hSoSQEgCJPn9ES4Bwk1RUN6Pc3IOJN/v5/tJ/Mr39f3csn++L55YKPguh9U7ilmvB1+1gpgx3iRM6ICmCfWvnxl9vgVc6/n8btxg/VY9b1yDXJUTMwd5sqryPQHk3WDrjkK2nreQaYGQjlr+99UAOiRmEXwQtv+he9XdfG6t5yp/XzfNhZP/MLK3g9351MC5lTqilLAPypj7TADroirviG6x/jd5xHd25/ryLng25a03gV5fwLWcHxvcxr+LL16ejd4+Ntm/ko7zzyNHuXL1OksXzq0TCMxmM69t2ErK2XTKzeXMePapFjv2nXg4w0AHHwIBTh3n6/xoAjs0sK251BYYfH3qtiJ0DSYKSCosxAQYywGC8fFq5PiVZY5bws6nQ+q+7haADg98AgC+JCmliKcD6ukq+P4sRwD+K9j2nkSb1rdvX0aNGgXYmv5NJhPu7u4UFdUzsMSOWq1GoVBUdR8MGDCAwYMHc/LkyWbUoIRvsy3gqiEqtDlDgtRE/dyLdYl6Ys87sTzak8f81S32x7iOghKWfOTC3Oe8iLlczPqjJka+cZ2MVwPqb/a/UsyBPJgy1A1PHQzxK2JrcjGp070Jq3irxtOXmb6rlAI/NbsnuKK5XEz87urloT0HaJj7QRl70gtZNbST7clzBnZYYOYATzSYSE0zEza2Iy8NciY38SYxn+uJD9CyeVT1AND9B/KZOl7H5vBSDhwoIXZLLr3WdiVKDVy7xvx1xSS5K4mb5kEvnZnUFAtGQJ12halb0FDQhQAAENhJREFUTHhF6kie4ErB8VvEHbxJvNaFdVFujdbfkbAxbjz7VTGzVmaTMtqLxU92wtd+baqc68z6420u9NCy57eeeF68RfxuPVMVSo495w2Gm6xZo2eFSUHCBB2RneHCifLGb6RqsBB7XEHyiu5s1ykA+/Pd8bn1kx4mln+oZ016EauitLYwdN7AEQMsGtGxRc+9a7k/smrtJsrKyx2+rlKpeHnZwhYNA9OmTCD93Ld8fTad1es2Exe7oCoQmM1mVq/bTFp6Jt2Du/LzyRNa7Lh36uEcQKh+lLHPqYGjvPnu2aad1Lk36vbJXzxvu9sPsA8KNzHVHpdTUorjzOlD6LDBDK39CAtAjZqhjz+LGvhky14yHLYOmEj6wDbIMGLkYFnZ8AEwbNiwqou51Wpl/vz5TQoCACaTiVmzZmE2V58Mw4YNa2YNzOiLAU8l1Y2ON1mzoHoQoeMBfy74hvoQ3gHAiZB+PkSF6rDvpFrxtn0ZtsfI5GZWr5LJmZeW/ZQpg3wYFx3E5tEKyDOQdL7+XS6cNHAEBVMHeAAeRA1SgMFE0rnKlpMiDiSWkuqqYffLlWX/lNdH2A3G0nkzJRRyU0o4ZQGwcOq0iVxXDVMfdQE8mPJiN+aO8iZIpyPyGQ9mAjuyDTXq4jfUm+WjfIj6WQBxUQqwlJGaDVDCkd3F7EXF9oRuzB3lQ9QgPxbN7oIvxRxJNHGqqzs7/tuXEB8dkdHezPOBrWeKKGhK/R3x92d7go4EnZX1n+YTvDSL9advV7xoIfXTYvaqNbyxMIDIQHdCfhZIXH84lVxMKpD6sZ4VtxVsXhzM8gm+RA3yZeaLATR3slXC5C6E6BxdUuo5t9QdGR8OnDNysuKP9IUzBpIULowbUHdGzd3o0+sR4pYscLiCp4uLit+/tJBej3Rr0WO6umpIiIule3BX0tIzWb1uM2azmbLy8hpB4PfLF+Hq2vrdwQ9nGEDN0JlxRAFZf5nDM2uOc8U+EZhNXPniHfalAqHDmaEF/rmJzcl2G5mvsm/nXkDNpMgw1HSixyNqIJN3931pFzBMfP3xHjLsD/9IGJMAjrxds0ygMPUoJ25W1DLylySMVEP2Jn6xdC8Z9uvOmG9yYuMcXthjgm6ziY8OuOtPRdx7PXr0qPo5Ly+Pw4cPN2v/48ePk5tbPf7avrxmMVqpvny5MuVXXiT+yp3ljbVqNWBcdzWrIms+5na8w8I6u9DbtfrXoGAVYCW3oL4dbnHghBW8NERWpBzf3hqisPLGicqVGU1cyAF6aapaCkBBSE/7C4sLQwaowFLKyW8BSz4nz0FYuLZiHwsFF3PZ8fYFpv/2B0bG6lnjoDZDgqs/SF9/W92NJoASUrKA/m5Eudbey0DmReDibbpUBapcZt0Aii0Ym1T/evj4snxlN66/6MYiVwvxf7lObFIxUEzmeSsYjAx9ofKYWYxMAQxWjBSRmWUFH1eigu/mcqAgyK+5+yuIHKohzFLKqXMWQE9SqhXfcDdbC0sLC+3di7jY+TUCgYuLrUWgZ4+WDQKVXF01vPzSQnp0CyItPZM/b9jK6tdtQaBHtyBefmkhGvU9eLN34OHsJgAIiGbt9qv84n/eIeO9Fxj5Hui6hRCohRvZmdwogef/OhvUg1mwYjR/X3aUd2c8TvLkaIZWzCZIyjGhG7eKJY/bmvAjZrxC1J54kt77NcNSnuDpYT78+MXfyPAOow/nqwOBx2iW/Gk4n/zuuF2ZLhRm7mffsRAS/m+0bTtlAE+/to0rM+aw+cgqphxZZaujy02yMm/aAkfAE7y+9QUi6pwvX7FuQQx/rfEvOIFXPvglEffwYxUN8/Ssbtw0mUw17vKbwmKxYDJVB0j78prGg5DuufAfI0lXYGYggBshg9wIoYjcxNuNFVCvIaN/yqLwms+deud7tubdcZHVyhuZNZFezB4DYCihz4Lva76WUkySqVP1BURR6066VtmaAW4s36W3jTeghD0GJ2IGVaSaipH59NQSN92T8K6lvBVX6DAQNKh2Hez103H9uVrdggpnPCvbJhupf/2UePb2Z9XKfIJevknssQIWRVUcx0dL8m860KX29pRywfYjdbLL/RDqRoyrkT1p+Sz3M3Ekz4nFMd6N73enh6sIBKvXbcHJiXsaBCq5amyB4NU16/n6bDoA3YO7tqkgAA9zGAB0kS9w4NPH+ce723gn8TgZ2ZlkoMYnZDCTnvwlMyq6830mruVY90Ns3vw2+/6+k68BXbfRPP/aHBaMD0FXOe7D7wk27TayesWb7Es+xLuXghk7Yy3vT77Kb48dr9E6EBi9iWO+7/DKn/fw2d938jVqfEKGM+O1OYyzb+/X9id2378Yd3gbb76byGeZlXUMgUuZ3Lh6nMNfXmVSnZYBEzcyM7lR47nBLfsBimazv/hrtVqcnZv3X0ypVNZYnKi5YQIg7DFXxv2nhBU7rxG1zJ+g+/7dRhYMJkANWPJJyXawSYGZHIttiiBYSD1Xhu3u0nF5qckmUnFi0QRPxtltU5BcwPSUUj5LKSUqUomvF5Btsg2Cq1G2HbUnj4XqWZNuYC8mUr1c2V0xIyE12cQpFGyPCbAdR9/cefJq23s4V8IpE0SqHbz2QykX3LV2d/+Vmlj/xiiUeKmAMivgRpA/kGziW4uWkDotQ6qK1w0k5VDPlD8rhqpmJiMp31louUZlb6YMzyf+eAlHOpZywFVNXLPGujRfaO9evLR4Hgonp3seBB4kD3UYAKBDCJOWrmXS0oY304U8QdyGJ4hrpDj1I9Ek/DWahFrPb8uIrrOtz7DZvPnx7MbrqPSgz8QlvDlxSY2nTd+8wy9mbuKT3z3FlCsbeX/BYHTK/sRlpDRaT9E67JcT9vLyIjIykoMHDzZ5/9DQUDp2rG57r2954gYFdmHdlAtMOFBMn6VZLBqgso0fuF3Oew0PqCbIXwHJFg4n5eLlpyQ8qlOzZhOE9FThm1zGii1XMQ135vqJ2+xxNGjHZCR+w1UWDXeBy8WsPmHFN9SDKY4uRpZbHD5lBVcNMU/61OzL9itlXEoJa07nszzSlyeG34KDJczfcJW44S4YzxWy4lTtO2sXhgxwwTethLgTMG60W9WgRb8OToCFw0k3CAq1kJJ4m0PNeP/gwZTJ+US+bSJm5UVWj9XiqzaTmmIlZnYXxo/Iw/cDI9P/eIlV0e4EYeZCehE5od2Y269DE+tfU+quLHYUuzAkVIMvZaR+UcIbN2DcKC1BKAj6mYbIZCOLV18gf5KOCG8zOedLSFF5s3yMB5ET3Hg2pZhZr2ejH+9BL52FCyfKiXgxgLBeLkQeNLJixyU6THKFc4VsvXxnC+LUd24FPaph3KcGXjlqJWqoe7PHKtyJfn0cDOy+RwwGIyvXbiLr/EXC+4cCkHI2nT+9tpHfLXuxzbQOPKRjBh4O6r6zef/t2fTRmsjY8mue+cMhrrTmOiKiUWlpaVU/Ozk5sXHjRvz9/Zu0b+fOnXnrrbdqTEGyL6/pFASNC+LEYncS/K0c+cpE/CkT8d9Z6BWsZveLHWtM8bPnO9KLdf6Q9HkhsV85HnndEM/hndg+QEHBDyVEv3+bb7t7E+doHYDObiSEl/PW+3qij5bhFerOsV/74mgYlfGrYt6y4PhCEejGlI5AuoHPCsF3fBdOjFDajr9Dz350bB9f98+c5lE35ikg16IgZqhd//94H/4WquDU53pi/lIMT+qY18zPQBMeyP5faZhaVsqsXXomvH+bb11VaADPqJ9wLMaFqNsmpm/JY+hWPVsvOhP+k8rjN63+9jw7K8nJNhK3S8+EXcW8l6dg3rRO7J5WMY2qdwD752uZqipjxa48hm7Us/o0hPSouAj5+7Ml1p0EnZnVH+qZsKOQA6UK22j+7j5sGaMiSG9iekV9Vo28szBQ77kV6MXMrlZSDQqeGdLQ1K8Hj8Fg5I+vbeD7rPP0Cw1h2cK5LFs4l36hIXyfdZ5X16zHaGrevI17xcnaGosg20nNPE9YSHBrVkGIO2Y0Grl2/To9uncHoEOHDuTk5KBSqbh8+TIBAQFkZGQwY8YMzp49W285ISEh7Nq1i4iI6hEfVquVwMDAqtaBH7Ky8O/SpWWWKhairbDksyPhJgtUzV/Xoi0zGIysWL2OC5eu0C80pMGphb9fvuietxA0dq2VlgEhWlB+fj7x8fFYrVY++ugjnn/+eQIDA0lOTiYtLY2xY8fW2H7EiBGcPXuWb775pkYQAFi5cuWddRMI8SBIu87W/+SyY0MeC/KcSJjs/UAHgdr31Qf++QkXLl0hon9ojSAAtrFBcbELCOvXh6zzF/lwf2KDZd0P0jIgxF2o3TIA4O7uzr///W/69+/PU089Rd++fYmNjaWsrIyePXvWWHdApVJRVFRU55sKMzMzGTJkCIWF1atfSMuAeKikXSJ4iwnUShY/15lFg9wb36cNs1gsVUuQA+Tk/sjRzxpfjnjvxweJ6B9K717V04hrl9USGrvWShgQ4i44CgMAAwcO5NChQ5SVlTFt2jSys7NRKpVcu3atThm5ubn4+FRPMSkoKGDixIl88cUXNbaTMCBE21VeXt7s2UP3o6xK0k0gRCs4c+YMkydPpqSkhGPHjpGYmNikWQWXLl1i6tSpdYKAEKLta+73iNyrMu6EhAEhWoCjJr2TJ08yaNAg9u7dS0REBKGhoQ73rVy++MMPPyQ8PJzPP/+8SeULIdoOpVJJWVnZXfX3W61WysrK6u1WuJce/nUGhLiHnCuWNo2IiODMmTN1Xi8oKGDmzJls3LiRsDDHM6iXLl3Kd999x5dfflnvXUHl4EJnB2urCyFan5OTE87OzpSWlqJSqZod4C0WC2VlZTg7O1fdINxPEgaEuAvOSiVarZZ58+YxZ84ch9tYrVZOnz7N6dOnHb6+c+fORo8zb94824qGrXDHIIRomso7epPJhFKpRKlU1vgm0tqsVisWiwWz2YzZbMbFxaVVWgVAugmEuGsdvb15fMwYtm3bxsCBA1usSV+hUDBw4EC2bdvG42PG0NH73q3ZLoRoGUqlsmqQb2lpKUajEYPB4PBhNBopLS0FQKPRtFoQAGkZEOKuqVQq/Lt0YeKTTzJy1KgWL1+r1dLR29vh168KIdoeJyenqunCjQ0IbCvjgSQMCNECVCoVfr6+lJvNlJc184tlGuCsUknXgBAPsLZysW+MhAEhWpCzUikXbyHEA+fBiCxCCCGEuGckDAghhBDtnIQBIYQQop2TMCCEEEK0cxIGhBBCiHZOwoAQQgjRzkkYEEIIIdo5CQNCCCFEOydhQAghhGjnJAwIIYQQ7ZyEASGEEKKdkzAghBBCtHMSBoQQQoh2TsKAEEII0c61ehhQKhWUm82tXQ0hhBDioVRuNqNUNny5b/UwoNWoKS4xtnY1hBBCiIdScYkRrUbd4DatHga8dG7cKrjd2tUQQgghHkq3Cm7jpXNrcJtWDwPenh6Ul5vJ0xe1dlWEEEKIh0qevojycjPenh4NbtfqYQAg0K8T12/ckkAghBBCtJA8fRHXb9wi0K9To9s6Wa1W632oU6MMxlKu5NzE2VmJt6c7bloNzkpla1dLCCGEeGCUm80Ulxi5VXCb8nIzgX6dcNW4NLpfmwkDlW4VFKEvLKbEaMJstrR2dYQQQogHhlKpQKtR46Vza7RrwF6bCwNCCCGEuL/axJgBIYQQQrQeCQNCCCFEOydhQAghhGjnJAwIIYQQ7ZyEASGEEKKdkzAghBBCtHMSBoQQQoh27v8BBNrG8R5E+7AAAAAASUVORK5CYII=;" vertex="1" parent="1">
                    <mxGeometry x="114.75" y="200" width="479.6" height="420" as="geometry"/>
                </mxCell>
                <mxCell id="5" value="" style="shape=image;verticalLabelPosition=bottom;labelBackgroundColor=default;verticalAlign=top;aspect=fixed;imageAspect=0;image=data:image/png,iVBORw0KGgoAAAANSUhEUgAAAnoAAAL/CAYAAADx12pnAAAgAElEQVR4nOzdfVyUdb7/8RepsGsHywQaBDtqP82Dm45rIxbajdsh3ESjfaj0WLOkqBWw0835tckuZbCR7a5um2DniGC6nt+h/BUr1Eqs6Xa0G51MLG+7UU9yJ96t8ltPuOn8/pgZuGaYGQYEcYb38/HgIXPNdX2vz/d7fa+Lz3y/1zWG2Gw2GyIiIiISdK7o6QBEREREpHso0RMREREJUkr0RERERIKUEj0RERGRINXX15uNJ0/z1zN/49vmc+iZDREREZGeExISwvfCQrl6wJVEXXOVf9t4eur23N+/43BtI98L7cegq8Pp//0wQkJCujxgEREREfGPzWbj7P80c+KvTXx77u8MjYkitJ/PMTvPid4Xh+sYOOBKIv3MFkVERETk0jl28jSnzvyNkUMH+1yvzT16jSdP873QfkryRERERC5TkddcxfdC+9F48rTP9doken898zcGXR3ebYGJiIiIyMUbdHU4fz3zN5/rtEn0vm0+R//vh3VbUCIiIiJy8fp/P4xvm8/5XKdNomez2fTghYiIiMhlLiQkpN1vRdH36ImIiIgEKSV6IiIiIkFKiZ6IiIhIkFKiJyIiIhKklOiJiIiIBCkleiIiIiJBSomeiIiISJBSoiciIiISpJToiYiIiAQpJXoiIiIiQUqJnoiIiEiQUqInIiIiEqSU6ImIiIgEqb7dUeiqT+Dn78Cxv7W/buSV8NLdMO+m7ohEREREpPfqlhE9f5M8sK/383e6IwoRERGR3q1bEr32krx+fWDzozB1lH/rGzV/+CI/iDMz4tEyjrnvtyyLEXFZrGsA+IzFcWZG/PazDkQul4Wzn7H84UdYvKWppyMREREJaD1yj96Kn8Dt18Pq2dC/X0e2bOajja9z/V0/Im5LGe9+010RSo86U8vO6l18farZsaCWimceIelVJe0iIiIdcckTvYyb4cGb4PwFmL4Kzv69Axuf2sS60hjuejSLmT/4jHVbDnVbnNKDTFMp+mQbRdMjHAtOsKd8O193YORXRERELkGid/X3W3+fNBSW3WP//YkK+LiDI3JnPtxIVUwKt48axg/vjGHva++xtyMFHN9O8TNzueUmMyPi4rllzous+7IZaOYvuWZGzHqdr537enchI+LiWfypc9sNpBtfG7RMGW97j+fvm8yIuHhmPPceNedrqcqdy/g4Mz+YkkXx7ubWjc4eYl2uI5ab7mRW7nvUnLe/tfO3ZkbELWXdu88z4yYz6WXHgWa+LnuRWQlmRsRNZlbue6x7yb7eTkP9lj+Wwvg4MyMSUsgs2U8z3h37cCWZ0yYzIs7MiIS5rP2yvXaC1inxrewtybKvk/AIxbubad69hvQp8S3xOevT4fZpKCM9zlHvhjLS4+ZSDFAylxFxZvsxaPqMYmdd4yaT9MJWzvjXC0RERHqNbk300izw1c9hTDRED4C3HoArQuD/7IRlH3S0tFrK175H7L2TiAPibk0htraMv+z2c/Ozn7H4wUf4Xc0EFr72Dh++vYSZ/JHs+56ioiGMH8ZPhd1b+LQBoJlPt20Amnn3k/0ANO+r5i/cw8TR3nZgZXHpIaa/VMobj1v4et1TPDzjeT4a/zzr33iOxD5bWfzCH6kBOF/Luv+dSvb2fyL/rS18+Fo6V5U/xcPF+w3lraH486n8YVs1RSkRnHl3ETN+8UdILaByUykLR26leHXb+i0/n8ofNm1h868m8PVvH2Dhu57vcztWnsUdDxdx7K5s1ldupPJXtxJ2tr12MhRQWkD5tU/xxhsvMmfgdhY/kcqs4nNkvPYWa9KGsbM0m+JtxjSzA+1jFPljlnxQwByAnxaw44MtPDG2iarcuSzeN4EXK7ewo3IJd/Vt8pnUioiI9Ebdluj1vQIemwSD+sP7P4OtGfavUtlVDw//304U+M1WyneFcVe84wmOEZOYGVPL8kr/7ts6tnEFxQfH8Ex+Fsk/iCFy+CSeWLaIxLNbWfneIQZMuJVEtrL3y2Y4f4CPy3/EMz+fSs2OfRwD9lb/Ee6ewA/DvO0hgoceephx18Uw7oFUZgJfT5jLM3cPI/YHKdw/PQx21dofINldxvObI3hi8UJuvy6cyB/M5olHYvh6xcbW0Tmm8uSjExjQB+A475dvoHnskyxdMInrTTGMS32GZ1Ld6/cjXvzVbOJM4cTekcWTdzdTUb61zUMrsJ91y7bSnLKEPyyYStx1EVx/x8PMHNt+O7WY/AAZdw8jdvhU5tw3CmrDmLnAXv+bH7yP22mm5qgxyexA+xj1CWPAwAGEAYQNYMDAcML6GFcIZcB1E3jiX6cS6asDiIiI9ELd8j16AN9dgH9eAX/5GcRda5/CPfMtzHgN/qcj9+U57K1cw06a2TnHbJ/Gcyp9h48WjOFmrwmYXc1/W4HZjL7OsHBgDEOAqvomGGjh9snw/LYDPBe5nXfHT+KNO+H9l7azs8lM45Zmkh+awACvexhGpPOWsjBHYtLf8S8QG2tpWfPYwf00U8vvZpn5nUsZ5wy/RxIZ7vy9jq+2Aan/RGzL+2Fc1d9Qvy+2AvBkgpknjUVO/rZtqMcPsbMWbr9pFO7N1m47OcXEtLTFgP72ioc544mI4XpomQa387992hdO4s9X8MRz2TyZ9DqYJvHE717kobHh7W8qIiLSi3Rbogf2r025/d/gwywYfg385A/w36c6UdD5/fxlXS1h0xdSNH1Y6/JDZaS/8DpV25/k5sm+M73Yf7QA1ez5BsY5k5hTtRwBbr9+MBDBD28dRfNr21kXvZEBt75IZEwzE2MW8+mHt9K4exI3d1EiETl8FGHUkrF2DXOGGd8JZQAYRvWcBhF7I/Dl1xxjjGPkqomaWkP9Rk4Cwln652xuMySA9A1tm5xGxBDXH4r3HqQ5JcIl2Wu/neo6UeNuEDGBjMKNZJzaz9pfPsDzDxUQ98HCdhN+ERGR3qTbH8Y49jeYvBweeRM2ftn++h7t28q62jBmTr+Hm2+Z0PqTeh9z+sPa8vZvxI+cnEJy/89YnF1Axe5ajh3czvJfLqKq/1Rm3m4farr+5hTialezeHkTd40fBozi5rvgo+LVVIydzM2mTsbvbtStPDT8EMuXrubTU/aHQY5Vl1G8w9v3xsVw811jYMtislds5+tvDvHRikUs2mKo34S7ub3/BgqX/4mvmwDO8PVfiig/6CnzGcNdjwyj+T+eIv3VDez95jhfb17Jul3+tVNPCOsPfLmdnQe3s/PL41S8uoad3zRxhnCiru25uERERC5n3ZLoRV7p+rqhCYq3+7++q2Y+Wl9ETf97SBzvlrT0GcNdqWHwzp94v72RwoE/YunbK8i45j0WzbqbW6Y9RXmfdNa8/SKJAx3rDB/LXTFNnOmfwu0j7Ivi4u9h7+79xE2bYJg2vUhhY3jiNXssT027k/EJd3N/8T4iY72PGMbOXMqaBRb2rHiEpPueoyoyiyWpQP9Q+wqmqRT853Pc/N9F3J80mfEJqSzcDLHXei4v7qE1vPHsJL5dt4gZSXcya8k+GOhnO11yY5j5QgpxOwqYNSubj86GEdG8kcx7JzM+4V4WfTGJ/P98UqN5IiIibkJsNpvNuGDX/kOMHTXM2/p+0f91ewmcP0TxfSksjnyRDwv1IIKIiEhv1F7e1i336M27SYlbl9u1hux9w5lzy1giv9vHu8Uvsnh3GHP+fYqSPBEREfGoWx/GkC40MJzTbyxiVu5xmgkjctQknlhZRMYtmq8UERERz5ToBYrrUih8K6WnoxAREZEAcsn/r1sRERERuTSU6ImIiIgEKSV6IiIiIkFKiZ6IiIhIkFKiJyIiIhKklOiJiIiIBKkAS/QaqMrO5NnyhnbWq6ZkXhF7OvyeZ3uWZ1Kyo+3vl5vG8jxSl1d3voD6Sp6dl0lqB9unqzSW5/lxbH3p+LHtCG/xXXzcnXPJ+2J9Jc9mV9LY6QK69/i0cdHxdk5X9oc9y71f7y7na1Ew8XUMRAJBYCV69dVsjTUztKyiRxKRy13U9BxKM8z2F534I7enrIKhWYWUrkpndLdE6KaH/hD3OjuKOvcBQMenx43OKCR3usn+orPHUS6KjoEEuoBK9BqtVobGpxNvqWabPsmKiIiI+BRA/zNGA9Ufm4jPh9GYydtWTdp4c8u7jeV5PFZmH14fmZLMUMOWvt7Dy3pgJqdDI1sNVGXnUVJvf5WYVUjaeByjIhV8gdtyqimZZyU+C/IKqh37S6bWWUZ0Mq/kJxGFfepgW3w6FBRR5ShjWq0zVhNp+TkkRtvjLyCdXEt1yz4fm1dh3ydFpBY4PokaynbaszyTPCtgzaTKkk5pSgPPLoNJsRWUWB1t0QV1aWEoyxnjNPd2dNuuJUZgZEpO66dsdzta69oao+vy1rJdjxuW9NZRUcdUYxUAZtJ8/sckxnJa+479mFgYWlZhb9cMDGUa6lFfybPLYPZEK3lux9V33Q0xusTuXudqUuc5y/RVZwcPxydtsP2tY+Vt+57vGN0YjkPret5jcjkvW5Z7Od88OGbY3r3PxqY0UFIGafnpsMzz/t3PP5f2cjkn7Mfd/n9Pe+/HLdstgyzDOf56rLMtqinJbmBafhLHlmeyLd54/rYexxic9fBx/N3bz9t1zb3/RSfzSr6Jtz2V7aHOo53tFJvM4bIKSMkhdzqGY2QiLcVESY3FpV3b7y9ejrPxXDb2Q7/r0dHrr+dj4Oz7Ipc1m5vqfQfdF10ePllhm1240/Fip634wRW23cb3DK+Prs9tfe3rPR+Ors+15ayvt9lsNtvuwgxb8Se2Nr8b7S7MaFm/Rd0GW86DubZ365wLdtqKW17vtBU/mNFSJ3tczvfqbe8udN1nS8x1G2w5D7bu6+j6XJcyWmKo22DLWbjBdtTmLM8Yh2cudXPsx/X1xdelTfu0xNh+G7SW4a0+rnHYPllhm+0s36X/uLVVC2O59v23rmMvu+027nG3PSbe+5uhH7dzXI2xO7n0C5fj4cal7u718tJ3nTEZjo+vGDt1fLzGbNze7Vz3WL6nddrGa39tbC8v9XYr33s7e47fv/5vjHmnrXhhbmtbG46XS7u69WG/j79bbF6PtaE9vJbt3ifcYp1teG93YUabftex/uKlb7pd012Oq7/16OD119sxELkctJe3BcyI3p5t1STGpztemYm3FLFtB4weD421DSRm5bR8So2ankximf2joq/32qp2GW3BYh+1aF8126xmZme4rVt3BFLSDZ/6zExLqaDA2kDidPvrHMen26gYE1gsjnVNxMRCjaGoxCzHp/BoE0MxE+/49BsVY3Jd0SMTMbEN5GUXEdORUcroZKY5R0m6sC6+jGzZhwnzRBNbaxtgPNTWQJU1s/XYAIl1QJtP1K1xMN5CYoGVYwC1DWAtInWeYVXn8XUZHXCW20ANyWS1jDKYmZZioqDduB19bJ6VPZiJxD6KbGxz1xEWE7H1OI5t6/6iLBZGftxAIw1UfwxpC9qO1IChXzjPCY9tYuReLxidkgzLqmmc7jbq5ImXGDt1fFz6kLfjYCI2upq87ErDqFgDNfX2B7NKWtZ2tKP7/gzxEp3EbEtmy3UDzMw2jiJ53L/jd0/tXGelypJMqYf29tyPjdcHwzUMK4cnJjPp49a+mhjv+Xi78+/4+3ldM7RVZKyJkbHOfmsi1llm3RG+qK/msXkVhu2GtNzHmfiT1mNUW2My9FsTiT8xU7LN+Z4//cXzddX9mu5yXAf7WQ9Hm3XFNUvkchcgiV4126xtLwxgn749VtOAYx6jDV/vue+jZF4FsfmF9gv3jiJSt/kZXn0Dh6OHOKYeL0+jMwoppZqSeZnkeZpKuuxd/FSJx+mhHUWkvjmEV1alt07TgP2YXkS03jSW5/FYTTKlq5zTj0XtbNFATb2J+Mt+iugij4+344CJxPxCEh1PhH/hmP7u+K0Vnd2/d421DYyM9eeDoGej4+23oEyLhUkWM2YqeHtHA7GOW1S6xkVc17zxMkV8zOVVe/3Wj/4SANdVkUAQGA9j7LDa729aVWj4SSfRWkFVvf2CWfVm69OBjeUVLQmhr/dc1DdwGBMxzvuNtnXgyapoM5OooMD9EfzBQ6CsiCrnfT9U83YZTLJ0/o/DxTGTtiqHNKxU17e/toserYt9RLKkrPNPu0XFmPjCw9PajbUNEGtyJL32DxRAyzF9u+Whn2reLvP+FQtffFzt2scsFo9JyLEaQ3JQX83Wdo+DmXhLNXld9qSfiVi3vrqnrAImmi8i8e/I8TE+SNXah7weB6foJHJXpZNotbIH+yjf6/585UW9oa/XV/K61Uy8h3v52t2/B1EWi9s50UHjLSTWWHm7ZgjmaHt5h98sYmus577TKRdzXfNk8BBGOq67vtn7besxaqDqzdZ76vzqL16uq1ExJqoKDF/T4+O4di/7/YOdPv4il0hAjOi5Tts62acqXrc2kDg9nZxtmS3TCSNTkknkiH218T7eM3IM/+fNywQg0eLf1ImdicT8dGrm5ZFaZl9iv2k4idysI6QappgSswovzQ280WYmkee4kT6H2Ddbb2gemZJDbkdjiO6GurjEWOjzk/vojBzSsvMMU68dHNEZn84rKXk85ji+4DhG05NJnOec0jWTaHG+ayJxQTLPZmeS6thfWorJ6yjfyNgjFMzLtN+gHp3MK/me+8/olGTIdvSTaLNf7eded58POngy3kJiQVHrDeRufRVLOqWeynM7Ps6HMfyJ0fvxMcO2TFIdc+AtfcjrcXCddkzMKmQ0MNq9Dt5GqaNN1CzLJNX5QEB+jsc+E+V1/z60OSeMD2P4w0x8bBGvxybb43YkNjXepm3djqNfExUXdV3zXJ77dcBbfxydkc7QlmNkIi3F3DIf6l9/8XZddT+XvR/XLudyDNz/JolcnkJsNpvNuGDX/kOMHTWsp+IREZEg1PKtAB35kCIi7WovbwuMqVsREQlgPX3bikjvFRBTtyIiElhcny6/hLetiIgLJXoiItLloqbnUDq9p6MQEU3dioiIiAQpJXoiIiIiQUqJnoiIiEiQUqInIiIiEqSU6ImIiIgEKSV6IiIiIkFKiZ6IiIhIkFKiJyIiIhKklOiJiIiIBCkleiIiIiJBSomeiIiISJBSoiciIiISpJToiYiIiAQpJXoiIiIiQUqJnoiIiEiQUqInIiIiEqT69nQAHXXi5ClONzXR3HwOm83W0+FIgAgJCSEsLJSrwsMZdM3Ang5HRETkkgiYRO/c3/9OTV09ffr0IWJQBP369eWKKzQgKf65cOECf//7d5w6dZLTTU3EDo4mtF+/ng5LRESkWwVMoldTV8/3vvd9rhk4EGw2bMCFCxrRE3+FENqvH9dea+LkyZPU1NUz/B+v6+mgREREulVADImdOHmKK0Ku4JqBA7E5kjyRjrIBNpuNa665hitCQjhx8lRPhyQiItKtAiLRO32miauuvkr35EmXsNlsXHXV1Zw+09TToYiIiHSrgEj0ms+do19f3U8lXSe0Xz+az53r6TBERES6VUAkejabjT59+vR0GBJErujTRyPEIiIS9AIi0RMRERGRjlOiJyIiIhKklOiJiIiIBCkleiIiIiJBqhcleid4K8vCmHGtP5akOTz58np2He1YSc1frSd/7hTGjLOQuf7ExYV1dD2ZXVGOiIiIiJtelOg5xM1h8avLWfnqcp5/aAxn1v+K+++dw7Kd/n7VxgHW/MuvKG1KorB8E0unDeriAOv4U04G9xR93sXlioiISG/T+xK9gUOZMNHChIkWfjzzaVa+U8IDUQcoyl3L/vP+FHCOM3XAbVOZPCScsC7/1pcT7HvbysG/dXW5IiIi0tv0vkTPXf8beSQjCQ5vovqIY9nZQ7yVn8aUBAtjEpK4P38ztedxTLOmsRpgdRpjxj3OW0eh+fBmljw1i4RxFsaMS2DK42vZf9Ze1K6XLYwZ93t2tezwc5aMszDmZQ8jdm3Kt7BkZ9vVnGVu2buWzKQExoybwsOrD9B89gCrH0/CMs5Cwtxfs7HOsNEJK0XOGO+YxZOrD9DsfO9IJflp9u3GJCRxf+khn8t91RfOcXD9r7n/Dgtjxk3h/vzNvLXErQ28ta+IiIh0KSV6QHhEBHCA2lPA+Treyp7DIusoni/dxKaihxjwztNkrj4AEVNZvPllUgFSX+aDzXncHQFN+z9jwPSXWL95ExtensGA93/P/Ss6MfXapvxNZI3xtvIbLNsQwVNFa1mcGsH2l59mdlox5x4o4Y+vzmH45+tY+AerPZk7+zlLHs5gxfmZFFduYsOimzj4chrP/bkJOEDRz3Io7T+HP1RuYlPRfK5v/n8+lvuub9Of85i9aD3MfJk/Vq7lX0d8wJq1hrB9ta+bV/+9yOWeSuPPq/9e1PH2FRER6WWU6Lnbu54X349gwQtPM3lIOBFxM1nw0GAOFm9iV59Qwq8eQBhA2ADCr7ZP3UYk/Qvptw0j4upwYm57iLkJ0PzVQY53dN9eyvcsgQcfSmL4kGH8ePZMRlFH6D3zSR83mJiJc7jvNmg+UkcTcHxzMasP38Hzi2Yy6tpwYm6bT1bSOf70zgeuMfYNIyJuBovm3Oi6K7fl3ut7gi3vVNJ84+Mszkhg+LWDGTvzaZ6a6Wf7utVw/qPpzP/ZI21qPv9njzD/0fQONKyIiEjv1LenA7gcHP/mEJDAsMFw/OMDNFPHsp9aWOaylo+HNY5aKV1bzsZPD3G87gAH/wokdGvIQAwxVzt+/X4okQDfH+BYMIiYocBX9le1X34AwDN3WHjGWERCM3ADc3//S47l/p5Zd/6e8Btn8osXnubHQ7wt91XfOr62AjNHEdOyk1AG9G/d5fGDHWtfZ0L36r+tsL9WkiciIuI3JXpNVlav+ICwmS9z97UQNvwGwqjjkZJiUocZVwwj3NP256zk35vBlrvzKFz6NJHhTfz56Rkscr4fGgo0c+YcEAqc/7Zbq+NJzIgEIJzF7zzNZEPSRR9Hnf7XDLLXzOCpug9Ykvk4z/xiGGPXzCTG0/KVQ1nttb6DiBkNfHWQ49xIBABN1BruFYzoaPuCS2KnJE9ERMR/vW/q9tRhtn9sZfvHVv60OodZSRmUhqex8vEE+5TpDZOYO/QQK5atpfqv54BzHNu1ntc+bfJcXtMJas8ChBEWdo5j/7WWNR+0vj18xBRgPStWWqk9eog//fY39octfAjtD3xlZddhK7u+uvgqR9yUxOT+laxYUcnBJoAmDr5fwjuHQ4HPWb2kkoNHmzjXJ4KYlqE4L8t91ncw8f98I3zwa54rsXLwyCG2l+TxgqE9Oty+DvMfTVeSJyIi0kG9L9Hbu5Zn5mfw8PzH+e2GZuJz1rLpP+Yz1jnSFXojC1Yu55GBm3kmJYmEO6bz8OoDRMZ4GW8aNIUFjyfQ/M7TTL37p6xoSiDFMG0bPmU+S2fewMGiDKam5rFvUhoP+AzwRu5dNINRO1/l/p/msP1/uqDO1yaxdPUvmfBNMQ9Pn0LCHXN47r8gJgpgEOF1JdyfNIWEpPmUhc1n5e9mEuNteTv1jbn3N6zMsLCvOIN75uaxcdB8Fs8E+ofaV+ho+4qIiEinhdhsNptxwa79hxg7api39XvE3gNfMmzo0J4OQzrj/CFWz53Fksg8Nr2c5JjOvTwcOnyYuBtG9HQYIiIindZe3qZ79KRrfb6WRfuHkTpxDBHn97Pxtd+wZG8oqQVTLqskT0REpDdQoidd6+pwzryZx/35J2gmlIgbEljw6qukTwzt6chERER6HSV60rWGzGBp6YyejkJERETojQ9jiIiIiPQSAZHohYSEcP68/jNU6Trnz58nJCSkp8MQERHpVgGR6IX268e5cz7+ZwqRDjp37hyh/fr1dBgiIiLdKiASvX+4sj+nz5zu6TAkiJw+fZp/uLJ/+yuKiIgEsIBI9AZdM5AL5y9w8uTJng5FgsDJkye5cOECg64Z2NOhiIiIdKuASPT69u3LtVERfPvtt9TU1tLU1MR3333X02FJAPnuu+9oamqipraWb7/9lmujIujbVw+di4hIcAuYv3RX9u9P7GATp/56mqamJk6cPInbf+oh4lVISAih/foRfmV/Bl59FaGh+l4/EREJfgGT6IWEhBAWFkbEoGsYePV5Lly40NMhSYC54oor6NOnj0byRESk1wi4v3h9+/bVH2oRERERPwTEPXoiIiIi0nFK9ERERESClBI9ERERkSAVIIleA1XZmaTOM/xkV9Lo7+Y7ijq+jcGe5ZmU7OjEhj2hvpJn5xWxp6fjkA6qpqSzx62+kmc72bcvOwHVfw3HLJiOgS++jk9vaQORABMgiR6AibT8QkpX2X9emWjlMb/+IDRQ9WaDfdv8JKIuNowdRaQur77YUrpPdBK5q9IZDdgT5Dyq6ns4pt7kcu8flzuX/itd7yKvCbq+iAScAEr0XEVNz+GVlAZeL2/o6VBERERELksB/T0lURYLLKumcbp9pG7P8kzyrPb3RqbkkDsdqrLzKKkHsjPZmpJDbkwFqQXOERcTafk5JEbbt90WX0jaePs77q8B+2hNQTVQTeq81m2N2sZgwvnJt8T5ydeSTmmG2bCfdCgoogpIzCpkWm0ej5U1uMTXWJ5HAclM+riIknpH2Ya6JGY5Yq2v5NllkJVvptpQ9xLDPu2qKZlnJT4L8gqqATM5q5KpdW4TncwrhhFQz/WyT11VubSlp2Xe69/apoAlmbQaKyxwtGt9Jc9mV/AFOOLzMNLjqO/siVbyyho8tsWk2ApKrI7tjfsz1LGx3Nnmxvhc43aW634sWsrx2D88l4HbPkemJDPUvW649cP6Sp7NPsJsRzs0lufxdkwOaYPt6x4rb9tvvB67Nu3muT+3WS86mVfyTbztPMYu/cpXe1kYWlZBlSWd0gyTYT0TaSkmSmos9nJa+m8SeGtnwLXvmUlLaWAr6Y5+aWRcz9h33dcxngvu525Ra59s827VhswAACAASURBVLo99rJjUxooKaOdPtHgtV18X5+8led+LqbDMu/XBP/6mo/rS4q9HG/9sMWl7lPgep1xu7aJBD2bm+p9B90XXQbqbe8uzLW9W+e2uG6DLWfhBttRm822uzDDVvyJp/W9bGuz2WyfrLDNLtxps7XZ3vW1y3uGbdwdXZ/r4b1627sLM2w56+tdyna+3l2YYZv94Arbbmd9Hmx9z1je0fW5ttkPOuux01b8YEbrvj5ZYZvtaAdjm/isu1sZruXbY/ZYf0OZR9fnutTLWY77srbt4dhP3QZbzoOG+D5Z0RqDSz1s3tvdrc3sr13b09uxa411p63YuY2nOFvay76Or7Zy3Yf3Mux1bd2nvUz3GFzb8+j6XFvOwlzHvtzb0XO/8Xpe+NjGV/u69FfbTlvxg97OM/f2aq3b7sIMtzYyvDYcd+/t7H5O2fuy737n1v5tlhtj8lUv42tDee791a3s1ti8t5OvdvF+ffLd7m3bxPs1we++5u36crn2Ka/nvUhwaC9vC+gRPQBiTUTRQHUNVFkzWz65AyTWAW0+dbuNLkUP6aKbhxuo/hjSFpjbLK8hmSzDKMLolOSWkUiAxCzHSFW0iaGYiXesGxVjgprWkkampDs+HZuIjTaRluLY1+AhjOxUzGZyHJ94o2JMYLG0lB8T69x1A7Ve2jYxxsQXBXmUxLSONER5WAa4fqJ2bA9H+MKSTK7zGI1PJi26yP573RG+qK/msXkVrWU4jlWbT+LRhvaNTmK2JZNtO2D0YPt705wjaLUNYC0idZ5hW4t95CE2upq87ErDJ/0GaurtDwGVtKxsIrYeInE9FuaJJrbWNsB495EiH2XUNpCYldMyQhk1PZnEMqt7zQyj1maqPzYx+yfwem0DjG+gBgvTooF61zaIslgY+XEDjT6OHYO9beO7fSNjTYyMTXbEbSK25fxqr72SW+7rqq0xGc4TE4k/MVOyrU3VwWs7N1BTb2Z2yzllZlqKiQLPRbiO1jpiGt3mutB6LtjLq6DA2kDidC+FdogxVm/t1AA1ZnLy/WuXVt7bfbS3c9ELv/uaL5dhn/J13ov0BgGd6O0pq4DYHMcrL9MELuxJXs1PCik1TO11jQZq6k3E+zWdE2i8tW06pavsUz6pBY51xntYVldE6ptDeGVVessU+zbsF+CRsT4utm2mmy+e56k7SMwvJLG+kmfnZfKFJZ3SDPA2XdyxDwaey9hT0wAxfmwebWYSRVTXm6iJtZA4Hoa+WU1jzBEOT0z2Y/rJ2/SZv/F3hD/t1QXnSX0Dh6OHMM2PVRvL83isJpnSVc6p+KKL2HFX8dRO1ZTU+9cl/CsPiPZwLvpq94vua92ha/qUt/NepDcI2Icx9izPJK/G+anQRExsAyVl7T3taL8gxDruaWq0Wh33f9k/VVZtc25fzba2gyvtMBNvqSavzROXJmKpoMDw0MiesgqYaA6Qe0Tab9vRGYW8kgJbrQ0elzXWNjhGXsHYtlEWC5RVtD45vaOidaR18BBGWiv8e6Kv3kq1c736Sl63mon3MIIRFWPiC+P+3DmeKEy0WtnjGOW7uId9vJcxOt5M1ZutX0XRWF7hMupmLMM8EWrKrBBvBszEx1opeLOBSZb2/nD5e150BX/by36etK7XQNWbHYwv2swkKni75SuPqnm7zPN+j9UYPkzUV7PVa3+qZptLeTja196GLX3bZxn+8NZOvtvF+/Wp/Xb3dH56i63zfa07dE2f8nre6+tgpJcIoBG9BkqMQ/iWdErzW0d7RmfkkJadZxie9/RJ0D4l85ijnJEWc8uUZ9T0ZBLnOYf3zSRavIQx3kJiQZHHhzHcY3B+ikzMT6dmXh6pZYbYL8mnS/uF+zGPD2P4z1vbRhqnxBw3VDd6WBaFl7aNTiIrJY/H5mXaX1uSSYtuaHkvN+sIqYZj7vVTebSJmmWZpDpvxM7P8fz1HOPTecW4P5w3d7vesJ+YVchoYLT7cXPcxO2Te//wUkbU+HRytmW2TE2PTEkmkSMei4yyWDhcdoTZGfbXo+NNfFEzhCw/RsX8Oy+6god+7qW9RmekM7RlPcctCDVtVvO9rwXJPJudSSpgfxjDxGEPa45OSYZsx76izT5GtMywLZNUx/xvYlZhy7r+l+Fn7F7ayVe7eL8++Wh3D+ci4POa0LG+5nZ9SbmYdvFcfpf0KW/n/eCujlfk8hRis9lsxgW79h9i7KhhPRWP9GqOpx87kogYntIMjBFScWd/gtLTE7P+8/iUvN860e8uhR1FpG6zdPntC71BV/QpkUDRXt4WsFO3Enwayyuoslgurz+20s2M06Sd5GO6XnqjLuhTIkEkgKZuJfi4Tpnap2U0ehHsXJ+CdZ0m9ZfxuwF9TtdLr9AVfUokWGnqVkRERCRAaepWREREpJdSoiciIiISpJToiYiIiAQpJXoiIiIiQUqJnoiIiEiQUqInIiIiEqSU6ImIiIgEKSV6IiIiIkFKiZ6IiIhIkFKiJyIiIhKklOiJiIiIBCkleiIiIiJBSomeiIiISJBSoiciIiISpPp6WnjgUO2ljkNEREREupjHRO+GYTGXOg4RERER6aBd+w/5fF9TtyIiIiJBSomeiIiISJBSoiciIiISpJToiYiIiAQpJXoiIiIiQUqJnoiIiEiQUqInIiIiEqSU6ImIiIgEKSV6IiIiIkFKiZ6IiIhIkFKiJyIiIhKklOiJiIiIBCkleiIiIiJBSomeiIiISJBSoiciIiISpJToiYiIiAQpJXoiIiIiQUqJnoiIiEiQ6tsdha76BH7+Dhz7W/vrRl4JL90N827qjkhEREREeq9uGdHzN8kD+3o/f6c7ohARERHp3bol0WsvyevXBzY/ClNH+be+UfOHL/KDODMjHi3jmPt+y7IYEZfFugaAz1gcZ2bEbz/rQOTBwbUdAsTZz1j+8CMs3tLU05GIiIgEjR65R2/FT+D262H1bOjfryNbNvPRxte5/q4fEbeljHe/6a4I5ZI7U8vO6l18faq5pyMREREJGt1yj54vGTfDgzfB+QswfRWc/XsHNj61iXWlMdz1VhYDalNYt+UQc346rNtilUvINJWiT6b2dBQiIiJBpdtH9K7+fuvvk4bCsnvsvz9RAR93cETuzIcbqYpJ4fZRw/jhnTHsfe099nakgOPbKX5mLrfcZGZEXDy3zHmRdV82A838JdfMiFmv87VzX+8uZERcPIs/dW67gXTja6Omzyh+LIXxcWZGxE0m6YWtnAGgma/LXmRWgn35rNz3WPeSmRFxS9kJ0FBGepyZ9LLjLUW5T7s2H3yPxS1lx3NL5hr2nm1vvw5Ht7L4vsmMiDMz/r6V7DyLRy373PYez983mRFx8cx47j1qztdSlTuX8XFmfjAli+LdhtG2s4dYl+toy5vuZFbue9Sct7+187f2Oq5793lm3OSsX8faoiWmXc46uNUdaP6yzBGvmfH3vUjVuqWMiDN7PkYiIiK9ULcmemkW+OrnMCYaogfAWw/AFSHwf3bCsg86Wlot5WvfI/beScQBcbemEFtbxl92+7n52c9Y/OAj/K5mAgtfe4cP317CTP5I9n1PUdEQxg/jp8LuLXzaANDMp9s2AM28+8l+AJr3VfMX7mHiaPeCm6jKncvifRN4sXILOyqXcFffJpqBM+8uYsYv/gipBVRuKmXhyK0Ur+5Yrc/s28WAlKVUfrCFzYX3MGDzUmYt/8znfu2sPP/8Fka/UErlb2YTuauAJ9fu97EnK4tLDzH9pVLeeNzC1+ue4uEZz/PR+OdZ/8ZzJPbZyuIX/kgNwPla1v3vVLK3/xP5b23hw9fSuar8KR4uNpa/huLPp/KHbdUUpUR0si2sLF5WzW0vlVH5G3vdM511OPUeC+97nnV9ZlP09kbW/+/h/GX1mo41roiISJDrtkSv7xXw2CQY1B/e/xlszbB/lcquenj4/3aiwG+2Ur4rjLviHU9wjJjEzJhallf697DFsY0rKD44hmfys0j+QQyRwyfxxLJFJJ7dysr3DjFgwq0kspW9XzbD+QN8XP4jnvn5VGp27OMYsLf6j3D3BH4Y5msvoQy4bgJP/OtUIjnO++UbaB77JEsXTOJ6UwzjUp/hmdSOVTvy7ifJuGMYkQPDib0jnYcmQ/OXX7s9iGLcb6s5v1xI8vAYrr87lTk/oKUunkXw0EMPM+66GMY9kMpM4OsJc3nm7mHE/iCF+6eHwa5a+/a7y3h+cwRPLF7I7deFE/mD2TzxSAxfr9hoH50DYCpPPjqBAX2ATrdFBA89nsXN10Vw/d1zeSi+tQ7HtpRRcdZ+PG8fHkHsD2fz3M9nd6RpRUREgl63JXrfXYB/XgF7j9qnb4dfA2e+hRmvwf905L48h72Va9hJM8VzzIyIMzPixlR+VwvNpe/wkR/379f8txUwM/o6w8KBMQwB9tY3wUALt0+GddsOwJfbeXf8JKbfOYGbt2xnZ9Mh9mxpJvnOCQxoU3I4iT9fwRMj3+PJpHjHFGcTUMdX24Dx/0Rsy7phXNW/gxVv2M7alxYyd1YqSQl3kr2lvf06Wbh+cOu6YQPb29EwIiOcYQ4gDKC/418gNtbSsuaxg/tpppbfzXIcizgzM16uhbPnDOVFEhnu/L2zbWGIiTAIbX3H0/EMu9JnFi4iItLrdOvU7bG/we3/Bl+dgAs2+Mkf4L9PdaKg8/v5y7pawqYvZM3KFa0/v5hK2NnXqdrefqYX+48WoJo9xvsCT9VyBLj9+sFABD+8dRTN725n3Y6NDLjVTGTMPzExZhOffrifT3dP4uax4Z4Lj5hARuFGdn9QyjP/ZGXxQwV81DyI2BsBl9G3JmpqDdv1/R4AjWdbE7Tm7wzJUvN2np/2CMXNt/LcK0W88ed3yJ/c3n7bbYqLFjl8FGEM44m1W9jxgfEnk3Eet/CjLToag2kscJCvDF8hc6b+IgoUEREJQt3+MMaxv8Hk5fDIm7Dxy04Wsm8r62rDmDn9Hm6+ZULrT+p9zOkPa8vdHkLwIHJyCsn9P2NxdgEVu2s5dnA7y3+5iKr+U5l5u33Y6PqbU4irXc3i5U3cNX4YMIqb74KPildTMXYyN5s8lXycilfXsPObJs4QTtS1ziGoGG6+awxsWUz2iu18/c0hPlqxlELjPYURwxgXA3v/cw3rdh+n5tOVPP/S9tb3m05QcxYglLCwZo5tXkPxlvb2ewmMupWHhh9i+dLVfHrK/jDLseoyind4+w48T22xiEVbvKzuh9j4HzGOrTyft5KPDtby9YcrWZi/tfMFioiIBKFuSfQir3R93dAExds9r+tpfVfNfLS+iJr+95A43m1qrs8Y7koNg3f+xPvtjRQO/BFL315BxjXvsWjW3dwy7SnK+6Sz5u0XSXROaw4fy10xTZzpn8LtI+yL4uLvYe/u/cRNm2CYdjQKI6J5I5n3TmZ8wr0s+mIS+f/5JDeHQezMpaxZYGHPikdIuu9J1g2YyzN3GbcdxUO/e5Lbz/6J7Fl3M+s/w/npgkmtb0dM4Yl/nURz+VPc8c+pFDZNZubk9vfb7cLG8MRr9rZ8atqdjE+4m/uL9xEZ62XEE/e2eI6qyCyWpAL9Q71u49N1sylclcXN+4qYOy2VhRsH8eSvZgNhhPXpXJEiIiLBJsRms9mMC3btP8TYURf33XT6v2692/lbM7NK5vLG3ie9THP2EucPUXxfCosjX+TDQteHSDrr69WpJL0UwdL/KiD5Eg5wioiI9JT28rZu+cLkeTf1nsRN/LRrDdn7hjPnlrFEfrePd4tfZPHuMOb8+5ROJnmfUfzcPq6fOYkfRpxjz1/W8PxL+wlLLSBRSZ6IiAjQA/8zhvRSA8M5/cYiZuUep5kwIkdN4omVRWTc0tm55kEMOFVG9oMvcuwshJlGcduCFfzhkQno2VsRERG7bpm6FREREZHu117e1u1P3YqIiIhIz1CiJyIiIhKklOiJiIiIBCkleiIiIiJBSomeiIiISJBSoiciIiISpAIr0auv5Nl5maQ6fkp2dHHZ2ZU0et1vEXu6cHee7FnurFM1JZdgf53VWJ5H6vLqzhfQchx7po6N5Xk8W95wESV05/FpoCo7j6r6tu9cfNyd4X9d9yzP7IH4/NAF52/PtP3F8/eYXPQ5zeV+Xnng65rfjQK1L0ngCpgvTG4sz+OxMhM5qwoZ7Vi2p7ySxvFJRHX3zqOTyF3V3TsJHFHTcyh1vqiv5NllkJXv/3HYU1bB0KxCcsd3U4DuOhGjdNzojEJy/Vhvz/JMtsUXknapjn8vPn9djsmOIlK3WSjNMLdZz+Wc9pfOK5GAECCJXjVvl5nIWZXekuQBjJ6e1GMRiYiIiFzuAiPR22GlymIhzccqe5Znkmd1vIhO5hXHp8zG8jwKSGbSx0WU1MPIlBxyYypILbBPUyRmuY4sHCvP47GyBtf3jJ9cHb/Pnmglr6wBMJGWn0NidNs4RqbkkDvd5BapfWquxDk1Z0n3+AnbO9ftW2LcUdRSJ9eYqimZZyU+C/IKqgEzOauSqXWWYWgr+0hLOhQUUeUoe1qtsz1ay7S3aTq5lmqeza7gC+CxeRX2WDDEYSi7zXGyZlJlSac0pYFnl8Gk2ApKrGZ7Mu+tLu5tH53MK/km3p5nj9djW9ZXtolxmns7usTppX09McTpst4OT23g47gb17ck++znrvGZWz782I+JhaFlFfZ2zYASZ7tg6Isd7r/t1NWgdaTOvc+1buNy/J1tYzhGvspvNJybxrq7qjbU21E3/D1/jW1rIi3FREmN5xGw9s9zXPqeMd6Lv1Z19Jw2npfVpM5zPeZgOKenm9rE4ek8vlTnVWvbejt/vJXr//58XfNbr0uG9nXZv/e+7l4XZ3vgs51EuoHNTfW+g+6LetzR9bm2nPX1Xt/fXZhhm12402V95+uj63Ntsx/Mtb1bZ7PZbDttxQ8a1v1khW32wg22ozabzVa3wZbzYEbrfuo22HIeXGHb7fzdy3rGfe0uzLAVf+KMot727kLnfr1xXad1+522Yue+PdS1TVt8ssI227i+MXa3Oru2R73t3YWtMe8uzGgtx0c9XY6HsW38qrNbOzn20/LaV13cYnKJ17bTVvygl327xOirDdzj93YcfPSjT1a06Ytt+65hP3UbbDnGuD9ZYYjNlWvcnvq55z7jUo92jqsx9nbr6sa1/3rfpu3xd2/z9vuQt2uCx+UdOH9b62/vF576vH/nued6dMm1qoPntMu51eb4tm03X+V5bVef23XyvPLaFwzleayTn/tr75r/oJd6u5Tf3t+Utvv1u31F/NRe3hYQI3pRMSa+2Gb/9N1WA7U1ZnLyWz91R01PJnGelT2YiQRGpqQ7Pr2aiI02kZbiWHfwEEYai4pOJsv5yTw6idmWTLbtgNGD3XZpWC/KYmHkxw000kBtDVRZM1tGUQAS64Bot+1dRqy8rONRNdusZmZnuLZDY20DiVk5raMbxtjHA5jJcYxKRMWYwGJpaY+YWKgxxpvlGCWJNjEUM/HOesaYXFf0yERMbAN52UXEeBxt8SI6mWnj/ajLYFzaPjLWxMjYZMe6JmL9akM7Y58wTzSxtbYBxjdQU99AVXYmJYY6xdbD6DZlt7Yp4y0kFlg5BlDbANYiUucZVrU4+q6n484RaIkFGJ9MWnSRH3F76ufJLm3uOgLmqAd47b/VH0PaAk+jy57r6nsEws9t6tzqj5lpKRUUWBtIbDNKVu0yStnSrgZRMSa+KMijJMbHiJHX89dkqL+JxJ+YKdnmvrGf5/kOK1WWZEqj3bftomtVB87pzvB8fni6/vqzXSfPK/e+4On8GTyEkdYini03jqp2YH++rvmG6xLg47rt5VpgtUKK5+tgZ9tXpDMCItGzn8z2i6HfyUOPaDsl0saOIlLfHMIrq9Jbp1b8Lb6+gcPRQxxTJJen0RmFlFJNybxM8gJySsLblKD/PE7leTnujbXd8/RdY3kej9UkU7rKOb3lPXm0a6Cm3kR8B5LlS6uaknkVxOYX2pOnHUWkejpxxqdTusrevqkFzqlbf3Sk/u2f5421DYyM1R/uVhd5Xnm7bkYnkbsqyf7U8LwGw7TpxZ/Hfu3fh2M1DQyNVx+QnhcYX68SncRsSzV5Lo/CN1C1vJJGTMTEVpNn+GqAxvIKqiyWjp/k9Vaqnfdg1FfyutVMvN9PBtpHs0rKfH9FQWNtA8SaHMlPNdusPld3FW1mEhUUuD2aHxVjoqrA8LUEHY69q5lJW5VDGob29FPP1sVEbHQ1r1/EVx9ExZj4oqyizVdEeDvuURYLGNffUdF6H5AHX3xc3XIO+Ornx2oMiUZ9NVvbPQ5m4i2u59ElMXgIlBUZvk6mmrfLYJLF7Q9kfQOHMRHjvJdwm+84R2cU8koKbLX6eyzt9W899g1UvelpH/6d5/bjWuT2NTldeK0KKB05r6rZtqP1d2dfaO+6GTU9h9IsM1Xbqju2Pz+v+Z25bo+ON7tey9rl/auVRC5GYIzo4bhwl+fx2LwKxxL7p+ooICojh7TsvNbpsuhkXsnvyAMOzu1M1CzLJNV5M3Z+TocuwKPd4/DwqdI+VeOc2jOTaOlIgCYS89OpmZdHapl9if0TbDqvpOTx2LzMlvU6GnunRZuZRJ7jhuwcYt9svWF5ZEoOuR0dIeqOurjEWOhjRLRt+3b4Ruk28TuOkbfjHp1ElnF9SzJp0d7/QI2MPULBvEz7Df4++vnolGTIdtQj2ux7lNm5jVv/dXkYowuNjjeTV9D6MEZu1hFSDdNsiVmFbeN1TKvlOdop0eK53i7T1Y6HdfDzD+fojHSGthx7x7SphzlQf85zot3r5Vinq65VnTHeQmJBkceHMTqlW84rM2zLJLXA/qqlL3g7f1ymU83krLK3pd/78/Oa36nrtvu1wOVhDJFLJ8Rms9mMC3btP8TYUcN6Kh4RkcuC8UlUEZHLVXt5W2BM3YqIXFJeppBFRAJMwEzdioh0J9enlL1MIYuIBBgleiIiOG7o74Z7EkVEepKmbkVERESClBI9ERERkSClRE9EREQkSCnRExEREQlSSvREREREgpQSPREREZEgpURPREREJEgp0RMREREJUkr0RERERIKUEj0RERGRIKVET0RERCRIKdETERERCVJK9ERERESClBI9ERERkSClRE9EREQkSCnRExEREQlSfXs6gI46cfIUp5uaaG4+h81m6+lwJECEhIQQFhbKVeHhDLpmYE+HIyIickkETKJ37u9/p6aunj59+hAxKIJ+/fpyxRUakBT/XLhwgb///TtOnTrJ6aYmYgdHE9qvX0+HJSIi0q0CJtGrqavne9/7PtcMHAg2GzbgwgWN6Im/Qgjt149rrzVx8uRJaurqGf6P1/V0UCIiIt0qIIbETpw8xRUhV3DNwIHYHEmeSEfZAJvNxjXXXMMVISGcOHmqp0MSERHpVgGR6J0+08RVV1+le/KkS9hsNq666mpOn2nq6VBERES6VUAkes3nztGvr+6nkq4T2q8fzefO9XQYIiIi3SogEj2bzUafPn16OgwJIlf06aMRYhERCXoBkeiJiIiISMcp0RMREREJUkr0RERERIKUEj0RERGRINWLEr0TvJVlYcy41h9L0hyefHk9u452rKTmr9aTP3cKY8ZZyFx/4uLCOrqezK4oR0RERMRNL0r0HOLmsPjV5ax8dTnPPzSGM+t/xf33zmHZTn+/auMAa/7lV5Q2JVFYvoml0wZ1cYB1/Ckng3uKPu/ickVERKS36X2J3sChTJhoYcJECz+e+TQr3ynhgagDFOWuZf95fwo4x5k64LapTB4STliXf+vLCfa9beXg37q6XBEREeltel+i567/jTySkQSHN1F9xLHs7CHeyk9jSoKFMQlJ3J+/mdrzOKZZ01gNsDqNMeMe562j0Hx4M0uemkXCOAtjxiUw5fG17D9rL2rXyxbGjPs9u1p2+DlLxlkY87KHEbs25VtYsrPtas4yt+xdS2ZSAmPGTeHh1QdoPnuA1Y8nYRlnIWHur9lYZ9johJUiZ4x3zOLJ1Qdodr53pJL8NPt2YxKSuL/0kM/lvuoL5zi4/tfcf4eFMeOmcH/+Zt5a4tYG3tpXREREupQSPSA8IgI4QO0p4Hwdb2XPYZF1FM+XbmJT0UMMeOdpMlcfgIipLN78MqkAqS/zweY87o6Apv2fMWD6S6zfvIkNL89gwPu/5/4VnZh6bVP+JrLGeFv5DZZtiOCporUsTo1g+8tPMzutmHMPlPDHV+cw/PN1LPyD1Z7Mnf2cJQ9nsOL8TIorN7Fh0U0cfDmN5/7cBByg6Gc5lPafwx8qN7GpaD7XN/8/H8t917fpz3nMXrQeZr7MHyvX8q8jPmDNWkPYvtrXzav/XuRyT6Xx59V/L+p4+4qIiPQySvTc7V3Pi+9HsOCFp5k8JJyIuJkseGgwB4s3satPKOFXDyAMIGwA4Vfbp24jkv6F9NuGEXF1ODG3PcTcBGj+6iDHO7pvL+V7lsCDDyUxfMgwfjx7JqOoI/Se+aSPG0zMxDncdxs0H6mjCTi+uZjVh+/g+UUzGXVtODG3zScr6Rx/eucD1xj7hhERN4NFc2503ZXbcu/1PcGWdyppvvFxFmckMPzawYyd+TRPzfSzfd1qOP/RdOb/7JE2NZ//s0eY/2h6BxpWRESkd+rb0wFcDo5/cwhIYNhgOP7xAZqpY9lPLSxzWcvHwxpHrZSuLWfjp4c4XneAg38FEro1ZCCGmKsdv34/lEiA7w9wLBhEzFDgK/ur2i8/AOCZOyw8YywioRm4gbm//yXHcn/PrDt/T/iNM/nFC0/z4yHelvuqbx1fW4GZo4hp2UkoA/q37vL4wY61rzOhe/XfVthfK8kTERHxmxK9JiurV3xA2MyXuftaCBt+A2HU8UhJManDjCuGEe5p+3NW8u/NYMvdeRQufZrI8Cb+/PQMFjnfDw0FmjlzDggFvDp+5wAAIABJREFUzn/brdXxJGZEAhDO4neeZrIh6aKPo07/awbZa2bwVN0HLMl8nGd+MYyxa2YS42n5yqGs9lrfQcSMBr46yHFuJAKAJmoN9wpGdLR9wSWxU5InIiLiv943dXvqMNs/trL9Yyt/Wp3DrKQMSsPTWPl4gn3K9IZJzB16iBXL1lL913PAOY7tWs9rnzZ5Lq/pBLVnAcIICzvHsf9ay5oPWt8ePmIKsJ4VK63UHj3En377G/vDFj6E9ge+srLrsJVdX118lSNuSmJy/0pWrKjkYBNAEwffL+Gdw6HA56xeUsnBo02c6xNBTMtQnJflPus7mPh/vhE++DXPlVg5eOQQ20vyeMHQHh1uX4f5j6YryRMREemg3pfo7V3LM/MzeHj+4/x2QzPxOWvZ9B/zGesc6Qq9kQUrl/PIwM08k5JEwh3TeXj1ASJjvIw3DZrCgscTaH7naabe/VNWNCWQYpi2DZ8yn6Uzb+BgUQZTU/PYNymNB3wGeCP3LprBqJ2vcv9Pc9j+P11Q52uTWLr6l0z4ppiHp08h4Y45PPdfEBMFMIjwuhLuT5pCQtJ8ysLms/J3M4nxtryd+sbc+xtWZljYV5zBPXPz2DhoPotnAv1D7St0tH1FRESk00JsNpvNuGDX/kOMHTXM2/o9Yu+BLxk2dGhPhyGdcf4Qq+fOYklkHpteTnJM514eDh0+TNwNI3o6DBERkU5rL2/TPXrStT5fy6L9w0idOIaI8/vZ+NpvWLI3lNSCKZdVkiciItIbKNGTrnV1OGfezOP+/BM0E0rEDQksePVV0ieG9nRkIiIivY4SPelaQ2awtHRGT0chIiIi9MaHMURERER6iYBI9EJCQjh/Xv8ZqnSd8+fPExIS0tNhiIiIdKuASPRC+/Xj3Dkf/zOFSAedO3eO0H79ejoMERGRbhUQid4/XNmf02dO93QYEkROnz7NP1zZv/0VRUREAlhAJHqDrhnIhfMXOHnyZE+HIkHg5MmTXLhwgUHXDOzpUERERLpVQCR6ffv25dqoCL799ltqamtpamriu+++6+mwJIB89913NDU1UVNby7fffsu1URH07auHzkVEJLgFzF+6K/v3J3awiVN/PU1TUxMnTp7E7T/1EPEqJCSE0H79CL+yPwOvvorQUH2vn4iIBL+ASfRCQkIICwsjYtA1DLz6PBcuXOjpkCTAXHHFFfTp00cjeSIi0msE3F+8vn376g+1iIiIiB8C4h49EREREek4JXoiIiIiQUqJnoiIiEiQCpBEr4Gq7ExS5xl+sitp9HfzHUUd38Zgz/JMSnZ0YsOeUF/Js/OK2NPTcUgHVVPS2eNWX8mznezbl52A6r+GYxZMx8AXX8fnsm+DizjHRAJYgCR6ACbS8gspXWX/eWWilcf8OmkbqHqzwb5tfhJRFxvGjiJSl1dfbCndJzqJ3FXpjAbsCXIeVfU9HFNvcrn3j8udS/+VrneR1wRdX0QCTgAleq6ipufwSkoDr5c39HQoIiIiIpelgP6ekiiLBZZV0zjdPlK3Z3kmeVb7eyNTcsidDlXZeZTUA9mZbE3JITemgtQC54iLibT8HBKj7dtuiy8kbbz9HffXgH20pqAaqCZ1Xuu2Rm1jMOH85Fvi/ORrSac0w2zYTzoUFFEFJGYVMq02j8fKGlziayzPo4BkJn1cREm9o2xDXRKzHLHWV/LsMsjKN1NtqHuJYZ921ZTMsxKfBXkF1YCZnFXJ1Dq3iU7mFcMIqOd62adCqlza0tMy7/VvbVPAkkxajRUWONq1vpJnsyv4AhzxeRjpcdR39kQreWUNHttiUmwFJVbH9sb9GerYWO5sc2N8rnE7y3U/Fi3leOwfnsvAbZ8jU5IZ6l433PphfSXPZh9htqMdGsvzeDsmh7TB9nWPlbftN16PXZt289yf26z3/9m7/6ioznvx92+/SaXHLm1swA5CUpXg12CujlokGkiJ8aA5EZtpr0JWKVEI+j2AWVeTrig5BtGKZsWYtSqSGwmkoX5vVG6cKklUvmrogWqUCKPXX41B84MfE6BNq6uekDbfuX/sPTN79uw9M6CojJ/XWq7l7P3sZz8/9zz7efYeotP5TamFd9117NOuApVXImPstdQl5rEj36IJZyHHZqGqLVGJx9N+54JZOQO+bc9Kjs1JI3lqu9TShtO2XX0YbV/Q990Kb5v0+xyMEneszUmVnSBtwmlaLoGvT2bx6ftiHmwxvyaE1tYCXF9sSjxm7dC4TjRhzK4FeNvEKPBpI6NM69fkHPieR9sfhQhbLh3HuYv6TbeATteBVWtdBzp0mzv2uVav2uf60uVynd6a76r8yCi8ybEul8v10TZXxtYWl8vveN/PPvs0x+h9uWetwb5O14FV+a7Vezp94nZ/Pr0135WxaJvrtDs/i7z7tPF9uWetK2OROx8trspF+d5zfbTNlaGWg7ZMAuZdF4dv/EqaDfOvifPLPWt98uWOR7/NvzzU83Tsc61epEnfR9u8afDJh8u83HVlpnz2LU+zuvOmtcVV6T7GKJ2e8lLCBCor33OYx6Hk1XtOJU59GnzL88s9a12rV61Vz6UvR+N2Y9ovAhwTqHx92qurxVW5yKyf6cvLm7fTW/N1ZaT5rKl383LW9ymlLQdud7ry99uuTVOgfGk/a+LTt1dd3N60mZdToHIxvz4FLnf/MjG/JoTc1syuLyG2KcN09eVaELCsA+U9wHVTiEEs2LhtUM/oARBrYRROHG1Q11TgubMDSOsA/O4mdbNL0fdcp4eHnTg+hJxlVr/tbaRTqJlFmGhL98xEAqQVqjNV0RbGYCVJDTsqxgJt3pjG2/LUu1ILsdEWcmzquUbfw/h+pdnKavWOflSMBRITPfHHxLpP7aTdpGzTYix8XLaOqhjvXfEog22A7926ejx8wceJ6ax119G0dHKiK5T/d3zBx50Onllc641DrSu/5yyjNeUbPZeMxAKOnYCJo5V989wzaO1OaKogc7Hm2ERl5iE22sG6ov2aGSMnbZ3KS0BVnsAWYjshCt+6sD5oobHdCdP0M0UB4mh3kla42jNDOWp+Omn2Jn3ONLPWVhwfWsj4Oexsd8I0J20kMi8a6PQtg1GJiYz/0ElXgLpjtNkxgcs3KtbC+Nh0Nd0WYj39K1h5pXue62pvs2j6iYW0n1upOuaXdTAtZydtnVYyPH3KyjybhTLjKHxna9U0TfS7Lnj7ghJfLWVNTtLmm0TaJ9q0mpWTE9qsrC4NrVy8zMt9ollfNBFyWwskhDZleI3o+AI8dY3vtSAIw/o1zbumnqclklbWRDcGbV6IMDKoB3pn7LUQu1r9ZLZMoKUM8tp+vpUdmqW968NJW6eFpJCWcwYbs7LNY8ebypJPZpkaZprBto4KMt+5h9+8medZYj+GMvAaH6sfHGn4LTdfO+OlO0gr3Upa535eXFzAx4l57MgHs+Xivt0YGMdxps0JMSEcHm0lmQocnRbaYhNJmwZj3nHQFfMFnz6YHsIXlNmSbKjp74tQyus69JNOJ59G38O8EIJ27V3HM23p7HjTvRQf2uBhYBmVk4OqztCaRGjxAdEGfTFQuV9zWwuRwTXC2t6/Z61N69foOhSW12Yhghu0L2OcKS9gXZv77tFCTKyTKnuwtx2VL5lY9ZmmrqYm9fkvZaai7pj7eAfH/CdXgrCSlOhgnd8blxZiqaVM89LIGXstPGgdJHeRwct2Yv5WfmODxian4baudqc68wrash2VmAj2Wu+b0ydqvTOto+9hfFNtaG/0dTbhcIfr3M/OJitJBjMYo2IsfKw9n576RmFaUxNn1Fm+a3vZxzyOiUlW6t7x/hRF195an1k3bRzWB6HN3gRJVsBKUmwTZe84SU4MMEhWjw2tX1wPoZaX0k+84ZzUvdPH9EVbSaaWdz0/eeTgXbvxebvbNDcTnQ4aTduTg2M+8aGWr1KGnrYdMI5QmJVT4HIxvz4FL3ej/mmWtv63tb7TpivgtSDawhhNH9det4PVb8h5l7flRRgbRDN6Tqq0yxOJeewo9c72TMxfTU7ROs2ynNFdrrIk84waz/hEq2fJc9T8dNIWu5f1rKQlmiRjWiJpZRWGL2Po0+CePUorzaNt8Toy7Zq0G8wqXX/KhfsZw5cxQmdWtlHaJRP1If0ug22jMCnb6LkU2tbxzOIC5XNiOjnRTs++tYVfkKmpc7PZOKIttG0pINP9EHvpauOf55iWx2+058P9MLbvA91phVuZCEzU15v6MkBA+vZhEseoaXmsPlbgWZoeb0snjS8MoxyVmMin9i/IyFc+T0yy8HHbPRSGMEMRWr+4HgzauUl5TczPY4wnnPoIQptfsMDnWpbOi0UFZALKyxgWPjUIOdGWDkXquaKtAWZ1rHCsgEx1/TetcKsnbOhxhJh2k3IKVC7m16cA5W7QF4GA14S+tTXd9cUWWgkYXSMgwLUgwHXbrG6MzyG/0CBuT0NcLpdLu+Hk+UtMnjD2ZqVH3NbUtx/7MhDp1L2RJwYd5a1cozdmQ2f4lnzI+tHuboQTFWQeS7zujy8MDn19u1mI21ewcdugXboV4adrby11iYm31petGGDaZdJ+CrBcL4QQt7tBtHQrwo/vkqmyxHI7zl7cXnzfkvRdJg2V9rcBAy7XCyHEbU6WboUQQgghBilZuhVCCCGEuE3JQE8IIYQQIkzJQE8IIYQQIkzJQE8IIYQQIkzJQE8IIYQQIkzJQE8IIYQQIkzJQE8IIYQQIkzJQE8IIYQQIkzJQE8IIYQQIkzJQE8IIYQQIkzJQE8IIYQQIkzJQE8IIYQQIkzJQE8IIYQQIkzJQE8IIYQQIkzdabTxT5fab3Q6hBBCCCHEdWY40PvvY2NudDqEEEIIIUQfnTx/KeB+WboVQgghhAhTMtATQgghhAhTMtATQgghhAhTMtATQgghhAhTMtATQgghhAhTMtATQgghhAhTMtATQgghhAhTMtATQgghhAhTMtATQgghhAhTMtATQgghhAhTMtATQgghhAhTMtATQgghhAhTMtATQgghhAhTMtATQgghhAhTMtATQgghhAhTMtATQgghhAhTMtATQgghhAhTMtATQgghhAhTdw5EpG9+BM+/B91/Dx426nvw0uOw+McDkRIhhBBCiNvXgMzohTrIAyXc8+8NRCqEEEIIIW5vAzLQCzbI+84d8MFSeGxCaOG1eo9s4IEEK/FL7XTrz2svJD6hkBonwCk2JliJ33SqDym/UW7ltN1YbXtX8dNndtL67c1OiRBCCBF+bsozett+Dqlx8FYGDPtOX47s5ejBncTNeZSEBjsHPh+oFIobo5fuz85z9mI3l/95s9MihBBChJ8bPtDLnwGLfgzf/m+Y/yZc/UcfDv7qMDU7YpiztJAFD5yipuHSgKVT3AgRTFlm58K7hUyJuNlpEUIIIcLPgA/07voX7/+Tx8CWJ5T/L6+FD/s4I3f5yEHqYmykThjL1NkxnP3tIc72JYKe41SuzGbmj63EJyQxM2sDNRd6gV7q11qJX7iTVve5DqwiPiGJjc3uY/eRp/2s4V4yrnyvmuyHvEuy3cfeoGBeCvEJVqbNe5bK0726I7+m7b0NLHzISvyPZ5P32nG61SXM3ouH2PiMjWkJaloLqjl7VT3syikqPftSmLu+kcvutAQ9p5t7+biRs1WFSpk8tITK0730nq4mb1YS8QkpLFx7iDbPsmovrfYNLJyV5Cm/unZ1l9NOXoKVvLf2Ufl0CvEJm2kBei/YKXlSTc+TG6ir2Ux8gtVTji2brJ6w2jS17lilpimbkgPt3mT3HKe8YDYPJFh5YJZS5nkJVvLsPabVLoQQQtyuBnSgl5MInzwPk6IhegTsfgr+2xD4f1pgyx/7Gls7e7cfIvZnySQACQ/biG23U386xMOvnmLjoiW82jadVb99jyPvvsICfk/Rk89S64xgatJjcLqBZidAL83H9gG9HPjoPAC95xzU8wQPTjQ7QSOvvj+c0v90cOG5SfQ2b+aXiyv45skKjvzxPV6ZcZGNi9ZQ95XmkPrNbL6YwoZ33mPXkgkc3bKEor3KgOXyuZOMsG1m/x8b+GDrE4z4YDMLy08BV6hbm83Gc9PZsL+BE/tfYc6dV+iF0M6pt6OMvT98ll27NpA18jgbl2eysPIb8n+7m+qcsbTsKKLymDJYbLM/y09fOM7E1bs5cfgt8r//ewqWvsFZzfN19VveY8SLDVw4u4IpXx1i1ZMl1NyRQcW7B9nzq3HUv1UdvK52lFEZ8RR7dlez3Ponti8vo+4K8O15yhct4dXPUli5/T0+eCOTy29vpT54jEIIIcRtacAGenf+N3gmGe4eBn/4H9CYr/yUyslOePr/7UeEnzey92QEc5LUNzjik1kQ0075/tBeaOg+uI3Ki5NYWVpI+gMxRI1LZvmWNaRdbeSNQ5cYMf1h0mjk7IVe+PZPfLj3UVY+/xhtJ87RDZx1/B4en85U0yXGGPKX2Yi9A6CHuspqWues4ZVfTCBqZAypzxSSfnUfNQ2amaf4p1izLJk4SwxTljzLygeg/mAT3UDU4yvIf2QsUSOHE/tIHrkp0HuhVfcCylBG3Dud5c89RlSo59RLeYr8x8cSO+4xsp6cAO0RLFj2NFPujWHGoidJpZe2L68Ap6hZ30jUsg0UPxLDCMsEspblEXuxggOawXbskkIW3KuWeYOd2qtKmaeOiyR2agbFz2cEr6yUp1hpm0DUvZPIz84A9tF8ATh9kPKLEWQVrSRrqlqHa1eQEDxGIYQQ4rY0IL+jB/DP/w3/ug3q/wck/FBZwr38Nfz0t/BffXkuT3V2fzUt9NKSZaVSu2PHexxdNokZQZ7xavusCchg4r2ajSNjuAeo67wCIxNJTYGSY3+iOOo4B6Yls2s2/OGl47RcsdLV0Et67nRGmJ5hLFF3uf/fwZkPAFYxLWGVT6hU7dulMTGa+IYTMRL459fKR+dxtr9lp+7EJbraz9P6FZCihEt7fhvLi4tYMXcnWJJZ/uoGcieHeE49TRpGDIsEIGKYuiEyhjhQlrOdrZy9Cm1bMonf4htFryb++6IiPf83KvOI74XwMJ62XDQv63R/dp5eEkkYp4lj2FBGBY9RCCGEuC0N2EAPlJ9NSf2/4UghjPsB/Px38FmgZUQz356nvqadiPmrqJg/1rv9kp289TupO76CGSmBBxCxP0oEHJz5HKa4Bx5ftfMFkBo3Gohk6sMT6P3tcWqiDzLi4Q1ExfTyYMxGmo88TNfpZGZMHh5igkcz8RFg+AY+eD7Zd3A4bDjQofz/6mV6gQiAb3vovghYRxDRe5ySeUuon7+BN35TRNSIyxxY/jhF7jgip5O/9SD5X51n+388RUluGQl/zAtyzmtkiSNhGHyxpJpdC8b67IoYAX6/dQNEWSYDF/nECVMsyrbLne3+AUMU9cNxwE5aOwA1Pnr+zCfAff2OVQghhAhfA/4yRvffIaUclrwDBy/0M5JzjdS0R7Bg/hPMmDnd+y/zSbKGwfa93pcRzESl2EgfdoqNRWXUnm6n++Jxyv9jDXXDHmNBqjILFTfDRkL7W2wsv8KcaWOBCcyYA0cr36J2cgozLIHP4RXJg3OSidi7jfIDl5S0XbnEgW3v06odj+4to2THKdqcl6jdtIby9giybMmMuPJn2q4CDCUiopfuD6qpbHAf1EPta9W0fH6Fywxn1A8j+3bOfvvvpD41ltZtm6h09CjPBH51kprtx7l8h/ERsUmPMoVGSta9wdGL7bQeeYNVpY39T4I1maxhvVS+uIGa0+20nbZT8mKF0RhTCCGEEAzQQC/qe76fnVeg8njo4X31cnRPBW3DniBtmm7Ecsck5mRGwHvv84dgM4UjH2Xzu9vI/8Eh1ix8nJnznmXvHXlUv7uBtJFqmHGTmRNzhcvDbKTGK5sSkp7g7OnzJMybTmyQU/jkaf4r7Fk/nU+25fHIQylMe7KY+jtifOPILGTBV5v46SwbK/YOZcH6HaycGQGRs1j+XDK9e5/lkX/NZOuVFBakuA+KILL3IAU/S2HaQz9jzcfJlL69ghkRIZ6z3yKYkl9BdW4UB/7DxsyHUnjk6W2ciYoxX86+N4OtbxYy41wF2fMyWXXwblb8OgOIIMJkcBg4CdNZ+XYxWcPfp2jhz1j42p9JK17JDID+xCeEEEKEuSEul8ul3XDy/CUmTxhrFj4k8rduhZnWtzKZ+1Ikm/+zjPTI4OGD6f2ghAcK3if/7WMsn3zt8QkhhBCDSbBx24A8o7f4xzJwEwCnqCw+R9yCZKZGfsOZ+mpKXjpPRGYZaf0a5PVQu+n3MOtRHhw7lO4jdtYU22HyKuY/cL3TLoQQQgx+A/oyhrjd3c2Ir+wULdpA91WIsEzgJ8u28bsl0+nfY4MRRN55nJJlZaz4Chg5lhnzi9mz3EacLN0KIYQQfgZk6VYIIYQQQgy8YOO2G/63boUQQgghxI0hAz0hhBBCiDAlAz0hhBBCiDAlAz0hhBBCiDAlAz0hhBBCiDAlAz0hhBBCiDA1yAZ6TuqKCnhxrzNIOAdViys40+d9xs6UF1B1wv//t5quvevILHf0P4LO/by4uIDMPpbP9dK1d10IdRtI3+u2L8zSd+3p7p9buS1qXXP5dO7nxaL9dF2/JN1a51OFWp/96+dO6orWUdfpPVfAOuncz4vX8RrqF7davjer7whxOxlcA71OB42xVsbYa2/KQORWN2r+anbkW5UP/fiyOmOvZUzhVna8mcfEAUmhzk36QhWh6fdAUup1QPn0836amL+VtfMt5gGi57L2Rl0HhBADalAN9LqamhiTlEdSooNjg2AmQwghhBDiZhpEfwLNieNDC0mlMBEr6445yJnmvavt2ruOZ+zKEsB4WzpjNEcG2odJOLCyuk93tMrSSJW6NJJWuJWcaaizG7V8jG47DqoWN5FUCOvKHOr50ml3xxGdzm9K5zIKZWblWFIelFVQp8Yxr92dVgs5patJi1bSX0YeaxMdnnM+s7hWOScVZJapyz2auN3OlBewrgloKqAuMY8dNicvboHk2FqqmtSyuA558dDE5U7jPH056o7zpBEYb1ttPiNxwptXbxp9t3vj9q03EvM0syXKElUdAFZybManQ59uTdtR6iSRMfZapVzz0cSpyUfnfl7cAhkPNrFOV6+B865Jo0/azdLmG07fttz7fNqDu6xM61+jz/Vq0m8MdGv6pzecWd5C6Y+B+7jh+dR68vYLTTv3Ob++TwRvi4rg9enp5/MtpvXnd47EdHI0cSjHrSb2nXW0/dybLp9ryBYoVOvJ9Bp6ooLMY4m+53R/1p5f1579nKgg8517NO3CQdXiWmIDHSOECI1Lx3Huon7TreGjba6MrS3qhxZX5aJtrtPafZrPX+5Z6/0caF8AX+5Z61q9p9Plcrlcp7fmuyo/cvn9X+v01nxPeI+Ofa7Vi9a6DnS4N7S4Kj2fW1yVi/I9eVLS5d7X6TqwyvecnjR37HOtXuQ915d71vrE4UlDxz7X6lX7XF+63PFp02HMJ2/qeXw/X3te/MrHk8bgZeCNwyw/vulwfbTNleGO36f96MrKQxuvcn5vGCVu/2P06favE/P2pmnHQepVm3Y3n3bhUx/6PPmmW9tWA8Xh3x7M6l8n5HrV16OuX2vj05Z9xz7XasMy1cSnq2+jdBmGCXY+fb8wO3+gtmiS/tDq0//aZHiMvr4+2ubTRj1161MGmvRryyrY9VVbhmZlqt2uidubF11bMItHCOEn2Lht0MzonTnmIC0pT/1kJSmxgmMnYOI06Gp3kla42nNnPmp+Oml2Zfoj0D5/Dp/ZFhKVmZXgHBxrspKRrwvb8QXY8jR3pFbm2Wopa3KSNl/5vFq9Ex4VY4HERDWshZhYaNNElVaozjxEWxiDlSR1RmdUjMU3oCELMbFO1hVVENOXWcrodOa5ZyCuY14CGe85hwXrgxYa250wDdrboK6pwFs3QFoH4He3700H0xJJK2uiG6DdCU0VZC7WBHXXr8/MgzteJ22kU+iZObMyz2ahLGi61Ta2uIkzWIlCmQHRlrnvzLGF2E7UuvWeb1RiIuM/dNKFE8eHkLPM+JksT7tw9wm/MtHnAyba0mGLg675c0OMgyD1H7yPGNerk7ZO5QWrKk9ItTz059eUDdFzyUgs8PR/w/obfQ/jmyp4ca9m9rPjCz7udPDM4lpNvPfQBb6zzYHONxrffoHJ+aOVMjJsi01NYDPuhyHVRSjHoKuvaenkRFf4H6ym6wxWJnY6aIxNZ2000OkN0rdrqJZuttWsrAGlXeBpT77XeyHEtRgkAz0Hx5r8v+hBWb7tbnNCjPGRgfbpz6EsFWxlRzTqEkSIyet08mn0PeoS1a1pYv5WduCganEB64yWUm95QZZ+QmC43OteMnozz7tMDkqdXkNqzXTtXcczbenseNO9vGjw5evDSVunhaSwXb7q6yMSOmb1Fz2XtW/OVd5QXexUH18gwPL2dT5/AN1tTsYkhXID2X9d7aG+yeq9aeZYLWOStvqFCP0aqqUM8tp+vpUdmiXvQEbNT2dMkYOu+RaOtaUzL7+v5xRCGBkcL2OcaFKeb3pzq+ZfHmlNtdR1wsQkK3XveN/y69pb6xkQBtrno9PJp1iIcT8TdawPP18QbSWZWsr0PxMw+h6wV3h+0gAcvGuH5MSBvcibs5Lz5mpyaMLRGTy0j5uaF2VGssre/5+OGRVj4WODt7W72p0Qa/E8F3TMPVGh1um7npd+HLxrN//y/PhDh28bS0w0HLx0tzkZH6uWWaeDxqD1YCUp0cG6fv9sjoVYXds8Y6+FB619G+gPSP1biI12sDOUn9fo1LTZzv3sbLKSNC1A/alGzV/NjkIrdccc6ixfrSYPfT+fXrDzG5mYZKWubGB/wmhUYiJo2/uJWu/Mmj49tnQ+PVahDK4M8hjwGjr6HsY3NXnO471uKjcosaOAjjlKAAAgAElEQVTVY5qaPM92mrOSFNuEY28Tn3rap+/Pwggh+m5QzOgZT+Mrd6I7m5ykzc9j9bECz5LMeFs6aXyhBJsWYJ+WujyzbnEBAGmJfbnrt5BWmkfb4nVk2pUtyoPXc1lb+AWZmqWptMKtN+bh4mgryaxTH4hXHrp2X+jH21YryzN9im8A8uKTxq0BZ0Qn5q8mp2idZum1jzNB0/L4jW0dz6j1C2odzU8nbbF7SddKWqJ7r4W0Zem8WFRApnq+HJvFdJZvfOwXlC0uUL7MotP5Talx+5loS4citZ1EW0MqP33eA76I4se/bZKYx44Qjp+YZGVdmfdljJDrP+R6NUib2WxztIW2LQVkdirH5ZSqS4lm9eeznGpl9ZtKfejzYFqWZufTGWXafgLQt0WflzGuk+i5FGrPkZhOTrTJgDraSnJbLY0PphsP/gNdQ02vm8rS/jNqWY9PtDI+hGRPTLKwrgxWv3mzboaFCD9DXC6XS7vh5PlLTJ4w9malRwghxO1K/xavECKoYOO2wbF0K4QQIsw5qXvHQVqSDPKEuJ4GxdKtEEKIMKYutY+3rWatye8oCiH6RwZ6Qgghbq5peex482YnQojwJEu3QgghhBBhSgZ6QgghhBBhSgZ6QgghhBBhSgZ6QgghhBBhSgZ6QgghhBBhSgZ6QgghhBBhSgZ6QgghhBBhSgZ6QgghhBBhSgZ6QgghhBBhSgZ6QgghhBBhym+gN2TIEFwu181IixBCCCGECJHL5WLIkCEBw/gN9L4bMZSr/9U7YIkSQgghhBDX7up/9fLdiKEBw/gN9O4a8T3+/NcrA5YoIYQQQghx7f781yvcNeJ7AcP4DfRG/eD7fP3NP+j+y98GLGFCCCGEEKL/uv/yN77+5h+M+sH3A4Yb4jJ4IO+bf/yTT9u7+O7Q73D3XcMZ9i8RQdeAhRBCCCHEwHG5XFz9r17+/NcrfP3NPxgTM4qh37kz4DGGAz23rr/8jb9e/jtf934jL2gIIYQQQtxEQ4YM4bsRQ7lrxPeCzuR5jgk00BNCCCGEEIOX/I6eEEIIIUSYkoGeEEIIIUSYkoGeEEIIIUSYkoGeEEIIIUSYkoGeEEIIIUSYkoGeEEIIIUSYkoGeEEIIIUSYkoGeEEIIIUSYkoGeEEIIIUSYkoGeEEIIIUSYkoGeEEIIIUSYkoGeEEIIIUSYkoGeEEIIIUSYkoGeEEIIIUSYkoGeEEIIIUSYkoGeEEIIIUSYkoGeEEIIIUSYkoGeEEIIIUSYkoGeEEIIIUSYkoGeEEIIIUSYkoGeEEIIIUSYCjjQa9lkJT5B82/TqRuVrtA0byZ+qZ1uw52n2JhQSI3zBqfpurs++ei2F9569ScGD6edvITNtNzsdPTFTU3ztfTbU2xMsLKxOfQjbp3+fQOuu047efpzNG9Wv6dCq+9bp7zCm5TzrcFkoKdcaBZSzYWzDs+/XRy8bhfNlk1W8uw91yk2IUQgA93fBn1/vsZB4fX9QpvEyrMOVk69TtGFG4uNirNlLLC4N5xiY9ZFSg87uHB2BVP8DgiXm34h+udO/0091CzNpnX9QS7YIn32THluxQ1KlhBCCBECZyutjGOOJXhQIW5H/jN6zgbqGrLJ1w3y/Cmzft6lXe3dsHoH1Wwnz29/DzVLrSysgvoXZhPvvtNSl2Fr1OViz7KFZ0q+n8vHHUZpCJ4H/QxFt73Qd5k40LKxLs3eeJS8b2zWnld/p6mE8R7bapq1/qRRuxzvOwPje16fclbjabEXhlQP/rM7vnfU3dp4fOrEPA3KjIld3a/G5dTWbYClrmD1YVfj8ZRVgLLQcc/kdJuUjWG6/cpAV15+5a3pIwHqp1u7X5cXv/7mVy76dujbNzYeNSuBUOMP0ncNZtR8ZskC5jHENJu1g+bNxM8qoZ5qFvqkM7R20LLJyswXGqEq278d9uH643+d0KTb6NpowKwdGsehu/5pytNd9ubXC//yvPZ8B7o26I/X9AnDulM57eQlZFNJI0Wz/NtMf66HofXpQLPDuri1YUP6HgwwOxnKtdowLl2bc5eNX77N+rAuTyGX87W1QX179/vuCVBuPo+mmT4CFiZceidecd23ZLery2+H1knXhvsnu57e3e3Z0rW7QHOcst/7udu1a8lk130vn/SEb37Z93jXiVdc990/2bXhhC4t9xe4dnW6NyjxeI4LmNZgaQiSB5+41WM1aenaXeCbfo3ml19xNfvkwf3ZHY93f/PL/mnUxtv88mRdGejKJ8Q0du0u8C1fn7LVn1f57BtWs79zt+tpfV355F9Xt66Trg3uc3Xudj19v7Z8TvqUjVkalPT7twVvGk66mk3TE6Q+fNpQkLLQcZerPrxvufvWn7JNkya1LZqVt/scnrbbudv1tDZONby+fwXvb7py0fVfb579262ecfwB+q6evl248+3OQ9A8Bk+zeTswOn8/2oEmbaFef7Ttd4OuP+rbg9m5PecP0A7Nrq++59f3N7Prhcuw/HaduMZ8m14b9LRlZXBcsPBB89fXa5H++8+oPWh07nZt6GM9mfdVnWDX6gBx+aZZrUfdd5VxGzT43tqtiTNIO+pvG9SXuV/eA5Wbrgy7TpwMMuYZ3Pr31m3zQSpTiinVzPpF2ZaQ23CIes+IOZnSEhtRAESyYGk2XGgNPGpOKSZX81xKy+FqUtev0TyLocRTv78hxNF3gDQEy8PU2eQ2XKINgA5aKaY0p5HWDoAe6vdD2gzjWc8pz2meE5k6m1wu8onmTiJ3u3f/lKxiUt3nMZhNnfJcNblm2etrGnOqvc/9TM2mNEUN63depawqD2vu3rRlZbGRnwOtn/X3mSxNeUydpJRFKGnIWaJpCwpvGiYxxeSZpqD1sdTdRkJMh15ONRW68D5t1CfdPdTvb/RpAzCJ3PXJpuUdNeNRUkmmNGuSss+SQpq77jThjzw3yZvnrGJSq8yfqVX6VramXLIpRW37at/w9sVIFpQUk2peAibxX0vfNRAojyGkOVg78NGfduAn+PXHm95J5K6HuqMmfUp3bTQUrB3q45i6QvMc4CTm6Pu02fWCHmper/ZtwxYbCzxxXUu+Da4NA+VarodGfVpzHYmyLSHXrP9ZbKzUxJ06N5l6bWc2/B406atGAlyrA8UVNeNRUt315GylNaeY0hR3fZziQFU2c4zaYHM1Rfh+l06xaa6ppu2Ia2qD+jJn6gp25fSh3DzfnRA1dZI3njDk/4ze6LGegYdZxrs/uwjxs3X7RxPnroTr8qxED59cgLhZusFUCOkLRfA8jCYupZoDzSuYwkFa52az8kfZxB8+xcrRrdTxKKVm+XTayZtVQr1nQzKloSSq4xL1KWNDC+tJbz/TqD8v1dQnVPtuTxlLN9e5A1hsVByGvFlWioDc7epD50HS4C+SBa8fhKWziX8ByKnmwnNG4ehbfVyPshg9NsCgqIPWhmTiSny3Rv1oHOxvNT6HJY44LnFfX/qVeowxpW/VV6llp5HbYdY3+mJg+66HJo8hpflGt4MAuj+7CA3VzEzQNYScDmD0NcauCtgOQVlum01Rg3dL6vpQIjZuw6EImG+bybXhRuvztaiD1gaobLBS6bM9mTgnTDHoty2blMcdPHKWmCQmcF/t23dtkLimxhHXsI16p43Uo4eIm1VGatwhio72sOBHB6nMmc1Kg1iv7XoxUG0wWF5XcGG7sqwLyZQeLvObRAgn/gM9SwppKSXK4MGkk5l/KSUTd52uURDJffFQ91kPTNV9YaSMJfYaYw+eB+VOq+jwKeZwkbSsSLDMJjfrIC2zoN6sYTvt5M26RP5ZBxWA8gzCttASZfRF6GylFYgzPKCfaTQ6b0oxpa/bbsxdjcVGxVkbnp+R2O5gZZA0GM8CRbLgdQcLcD9PYjDY62t9XI+y6LhEPWPNTmB+QxQfd/3KX203xpS+lbvU7IvUoG90XKIeyA/p5APbdz00eTTsz9o034x2EEDUj8ZBzhKTm5Pr9PZywHaofMG2LnVw4XVlS8smK+UhRdz/m/rA+cb42nCjB3t9vhaNJi4lmdKS0AYLLZuslMcd5MJZpW902wuZadpZg/XVvggW1yTm5DRSfvQU7B/HnNchavSjUNxAy9yLpJp8uQe8SQ3oWtoggL4NKoM75csyhHKbuoILZ1eo14ZCCOPBnsHSrTpNneX/4GPLJvWh0amzyW0oocjnIdo1FPEoqdexoKbMyqb+hTWaByh7qCkugbkp137xDSEPylT2NsovuLdNYk7ORcpfryZ3lsmFSp2V83yZNR/U3eUFYIkjjmrKNWlq2a6dgfDXrzT6nTeFNHzL4lrExiX7LBm1bMr2lkHzZs0Dv6OJS+lvGk6xUfNgcGxcsnGwvtZHf8qiapumjZ5iY1a175KCD2VwXpmle3kpqw/1ZaShhEpPuar9RLtsoTNlVrYuDRqjx5Kqj+/1aqOQpvrcd9W2f8B9TqedohcafcMEymOwNN+IdtAXU2eTW5Xdp9/KC6pP7VCdERntDX+gyjCgAYM27LRTE0peAuXb7Npwo/W57iNJnQtFxaE80K/Odv8o0vO5fn9jwCMC9tU+ChbXlFnZ1O/fRl38bKVfWVJI4xDlAR5VMvoubbGHUhbX0gaVZd7K17UvH1b7zAwGymu3fbO3r1jiTCZSwofBz6ugjnRnszHBd9ozdf1B9W54EivPVvvuTynmSB/ufqdkFcOs2cS/oE6bmqVj+2bi1al8TxqCvhEcihDyoHb4urlrPNti46C+Kpv8102inZpNKbO9SxM52ebP2IWQptzt1eRWBZh56E8a/USy4PVqWnX13d+lkyjbGkr3e8vAJw+jx9I6y0q8GjZ1/UEqpvYnDaOJuzCb+AT1Y0oxR143GCj1uT76URY5j0KxlfgGfZ6MRdnKOEIhMxOsocUfipRi4g5bic9yp6na5+eR/Prb1BUcWe+bBk/71yyvK/WUTOl25VlSM0bx963vTmLl9mzis9Tlr5Ridq1Ppl470xEoj8HSHKwdWGzk51hZmFDteQygL+0gyraE3IRs4qtCrctJrDxcrEmvmuZrmVXoUztUno2b6amfbHJzzML682/DyZQetoVwZIB8m14brpUmr2obD6zv14AoWxm7Wq2+S9KGj5MoEymedk4yuTkmN6lugfpqkJz0Oa6ps8ltyIalZZ703hffSNGF4gCPARl8l+ZUcwGzlRjvcdfSBqc8d5DSpdo+Xc2unGrvjGCgvP4IijTXptztjrCdzQMY4nK5XDc7EUIMVsqyS4ClqBuheTPxr4/t34V/sLgd8iiEuAbepWD5sXFf8rduhRBCCDGoddvXUNRg8mbwbc546VYIIYQQ4hbVbS9UfqjcI5tdhn8CT8jSrRBCCCFEmJKlWyGEEEKIMCUDPSGEEEKIMCUDPSGEEEKIMCUDPSGEEEKIMCUDPSGEEEKIMCUDPSGEEEKIMCUDPSGEEEKIMHWDBnqn2Jhg9fzB6m57IfGaP0gf+LhCzR/q1uuhZqm1f38Y3GknL2DcfdS8mfilofwh5xscV79cQ7led8HagBBCCCHM3KC/jDGJlWcdN+ZUobLYqDgbyh/hNtayyUp5XKA/0i6EEEIIcXPJ0q0QQgghRJgyHug1byY+wer5l2fvAZRZLPf/3bTbuu2FPsd5l/4CLwWaH+emLP0q+4Ms4/mkPVBY7ZKgO32hnEcJu7AK6l+Y7ReuTZsX/fJ0yGkzCK9byg1UZr77NtOiS7tp+kzyanqOTXZ1vzsv2vLzTbN7ub5lk3+7Mi4fXTvosJNnmCchhBBCmHIZaH75FVez+8OJV1z33a9+PvGK674lu11d7n2du11Pu/e5ul27Xvbu69pdoAnb7dq1ZLJrwwnNvpdPqiEDHXfSteH+yd7z69Oji9d3n0F6fZx0bbi/wLWr0xuP9tjmlycHOFbZ//Tubu+GE6+47rtfs61zt+vp+/uZNjUubxmp6QmlzHzqxOVynTjpU1beNOvKzoe7PNzl447X+7lrd4HvfjXd3viUuvOpc7/y0ByvL5/O3a5dJ7zx6NuStmyEEEIIYcxwRm/KcyuY4v4wdTa5XOQTp/r/hkPUqzNR3UcPUZ8zWw0byYLnbESph0XNeJTUhku0BR1qBjsumdLD2vRkU5pSzQGD2cGWw9Wkrs/2DYs3vcHkbveeZ0pWcYjp10gpptT9zJ7FRn4OtH7W07+0pRRz5LlJno9TsopJrTqozmQFKzO1vgCmTlLO6WygriGbfM8zhZEsWJpN5WHzWb3c7WUssKDJTyN1RzWzcDlLvPsBpq5g5VT3h0nM0eRfCV/t3T81m9KURlo7AHqoeb3ap/yx2FjgiSuZ0hJ3fpV0c6H1Jr6sIoQQQgwOxi9jOO3kzSqh3rMhmVIAJpG7HoqO9rDABvX7obTEOxiheTPxWdWaiLLJDyUVfToukvviodVvew+fXID6qtnEv+C7J7cDsPgdcANdh7RZ4ojjkvezWZlZbFQchrxZVoqA3O0OZXDVcYl6qqlPqPaJlpSxdDPJM2gMJDYuOUiIHmqWzqaowbsldX0IEdNBa0MycSWhhBVCCCFEqPwHek47ebMukX/WQQWgPHe1zbM7asajUNxA9wyo41FK3YOU5s3Evz6WI2cdyqBBjSeoPh+nDJqYpd+uDABzlzo0s0q3iuuQNmerd3AbrMw8bxSrP2uz3cHK0WNJTSmm9HVbSIM6I22tjRBntlcZ5LUudXDhdWVLyyYr5SHFPJo49+zeTR2QCyGEEOHFf+m24xL1KWOJdX9uPkildr8lhTQOUbn9EMxN8Qwauj+7CPFx3s9HD2lmBM0FP66Rou3e5cVu+xqKKCbXYMA0ZVY2lVm35oP6fU5bQwmV2pdZiktAXfoNWGbNmzUvMYwmLkX9ryWFNEoo0r8AEUDl65oXQJo3s7BKu/Srp87KjXZ/PsWBqlDPFEnq3GTf8nHaqQnhd/xaNoXyUokQQghxe/Kf0ZuaTSmzmZmgrqPlZJPrEyCS1LlQ9MI4dp31fulH2ZaQm5BNvPrlnpqTTWoICQh+XDKlcQeJT8hWP2ez66zJrNTUFRxZX8jMBKt3W0oxR65hFsvMlKximDWb+BeSKT1cxoJgB/Q1bSnFxB22Ep+lfs6p5oI6yApYZqPH0jrLSrz6MXX9QSqmAkSy4PVqWhN8l489S7sGcudCUYJVHUQq+ZxiHBT3sv5MdckYssnNMQ3sJ8pWxhG05ZNM6eH+/86hEEIIIWCIy+Vy3exECCGEEEKI609+MFkIIYQQIkzJQE8IIYQQIkzJQE8IIYQQIkzJQE8IIYQQIkzJQE8IIYQQIkzJQE8IIYQQIkzJQE8IIYQQIkzJQE8IIYQQIkzJQE8IIYQQIkzJQE8IIYQQIkzJQE8IIYQQIkzJQE8IIYQQIkzJQE8IIYQQIkzJQE8IIYQQIkzdGWhn11/+xl8v/52ve7/B5XLdqDQJIYQQQgidIUOG8N2Iodw14nuM+sH3QzvGZTCC++Yf/+TT9i6+O/Q73H3XcIb9SwRDhgy57gkWQgghhBChcblcXP2vXv781yt8/c0/GBMziqHfCThnZzzQ+/jTDkaO+B5RIY4WhRBCCCHEjdP9l7/x1eW/M37M6IDh/J7R6/rL3/ju0O/IIE8IIYQQ4hYV9YPv892h36HrL38LGM5voPfXy3/n7ruGD1jChBBCCCHEtbv7ruH89fLfA4bxG+h93fsNw/4lYsASJYQQQgghrt2wf4ng695vAobxG+i5XC558UIIIYQQ4hY3ZMiQoL+KIr+jJ4QQQggRpmSgJ4QQQggRpmSgJ4QQQggRpmSgJ4QQQggRpmSgJ4QQQggRpmSgJ4QQQggRpmSgJ4QQQggRpmSgJ4QQQggRpmSgJ4QQQggRpmSgJ4QQQggRpmSgJ4QQQggRpmSgJ4QQQggRpmSgJ4QQQggRpu4ciEidTid2u51PP/00aNgxY8Zgs9mwWCwDkRQhhBBCiNvWgAz07HY7VquVf//3fw8a9ujRo9jt9pDCCiGEEEKI0A3I0u2nn37KjBkzQgo7Y8aMkGb+3HqPbOCBBCvxS+106/Z12wuJTyikxtmHxIpbi9NOXoKVPHtP/46/eoryp5ewseHK9U3XdaRvpy2brMQnbKbl5ibrhril8nqtbU0IIQaBQfaMXi9HD+4kbs6jJDTYOfD5zU5POGunduUS5r526mYnJKC291aRPe8N78DhcjstjpO0ftV7M5N1e7pyivJnMlmxVwZOQghxqxhcA72vDlOzI4Y5SwtZ8MApahou3ewUhbE/c2bvcVr/frPTEVj3uX0cvXjZu8HyGBUfHaNifuTNS9Tt6u+ttBw8z5Vvb3ZChBBCuA2qgd7lIwepi7GROmEsU2fHcPa3hzhrGLKX+rVW4hfupNV97IFVxCcksbFZ3dCzjzzP5yu0VK1i4awk4hOsxD+UTcmBdqCXo+uTiP/XNzir+fI6+9rjnm1t723wHPfArGy2XzBOu2E4g6Ujv+Xnb3s4+lohM39sJf7Hs8mr2kflUu3SdS+t9g0sfMhKfEIKC9ceouYl3fLY1UvUrM32xLFw7SHa3Pm5corKZ2xMS1COn7u+kctOO3kJ2VQCVGUTn2D1lpuG/zLcKTYmWInfdMo3L+dPUVkwmwcSrEx7cgM1FzSzbT3HKVf3PTCrkMoTuiXXr05RuVJNu3p8XTtADzVLrSysAqhmofu8ujL1pOFkIxufTCE+IYmZBdWcveo9Re8FOyVPpnjjr9lsmmdvHo8rdfqQWi+vHaf7W2+6fB4tuJYlQvexb+2j8ukUb3n3HKfcXW8P2SioOo+nVIO1mWb//PnVZaD4P99HSZZSZ/E/ns3C/3lJiXNWCfVA/Quzgz5C8fXn+9QyT2JmwRscVYvGXV+V71WT/ZC7LZn1T219NNK6Y5WSZ5/9arxH3qBgXorneJ9++s8O6jdlq3nNprxZ0z772neC1acQQtxgg2ig187e7YeI/VkyCUDCwzZi2+3UnzYKG8HUpMfgdAPNToBemo/tA3o58NF5AHrPOajnCR6cCHCJ5s+srPrtQU4c3kGx9U9sX76BGmcEUx95goh2O/Xn1Ki/PcXeynam5D5GwoU3+OWvdvL9p97iyB8PsmtZHL1Gj4adDzGcgbOVeWRvaSf1uWo+eLeCX/z9bV5t8O6/fGANP33h95BZxv7DO1g1vpHKtzQRfNtOza8yKTp+P6W7Gzjy2zy+v/dZnq48D1yhbm02G89NZ8P+Bk7sf4U5d16hN+rfeOWPZWQB/KKME39sYPnk0NLr7xLlv36PEf/+Fvt3FTP/yk6K8rfS0gt8e57yRUt49bMUVm5/jw/eyOTy21up1x7+uYNW63Ps+l8NHNm1iqkXdlKw1k43kczf1EDFLwAyqPhjAyfyJ5mkoYmNWxz85CU7+19+ghEfbKZgu9IO+OoQq54soeaODCrePcieX42j/q3q4Nk6sIHy9kfZ8Lad6iUTOLplCUUDuGRZv+U9RrzYwIWzK5hy9RQbFy2h/NtMfne4gQ9+PZ3WTU+x6oDSqIK1maACxn+e8txVbP9eNrsON3DktwXc13sFJhdwYvcqZgAzXtjBiT9uYH6U2Qka2LillZ+st/PB9jwmHisj+wXtM7eNvPr+cEr/08GF5yZh3j81Ue4oozLiKfbsrma59U9sX15GndrHuvcW8sjTFXTPKWLP/oPs//XDRGgG+kdfKuUP95ew590NZI08xavP/065gexP3+lDMQshxI0weAZ6nzey92QEc5ImKJ/jk1kQ0075fuNnyEZMf5g0Gjl7oRe+/RMf7n2Ulc8/RtuJc3QDZx2/h8enMzUCYBK5JRlMuXc4IywTyMrNABpp7YCIJBv5Me3UNKgDg5MH2X71UX45J8b3hMMiSbAVkxtsQBRqOABOcWDbJSJ+sYrizEnEWsaSuqyElQ+49/fwh7376J28gs3LkomzxDAlcyUrMzVRnLZT8kEkyzeuIvXe4UQ9kMHyJTG0bjuoeyB+KCPunc7y5x4j6o4IRowcQQRAxAhGjBxOxB2hpNfYgpWrWPBADLEP2Fj5fAa076T+PHD6IOUXI8gqWknW1BiixiWzfO0KErQHT86mNHMSsSOVtOdnAg2XaAMihg/n+0oi+f7I4YwYZpaCSHL/r0Jm3BtJ3OPZ5CbhaQfdDXZqr05iZWkhqeMiiZ2aQfHzGcEz9cASVi6ZTty9Y5mx5FlWPgD1B5v8XhC6XmKXFLLgXuX/3Qe3UXnxUTb8OoMEy3BiHylkxeO91O5tpDtomwkucPwadw4l6gEbpU9NgjsiGHHXUCKAiGGRQdrMOJ4ucpf306xcPgEaDvGhZ5wcQ/4yG7Ge4837p0fKU6y0TSDq3knkZ2cA+2i+AHCemi2N9Npe4XfLHiPh3kjiHnmaBdr+l1lE8eNjiR33GFlPToB2B2ec9K/vhF7MQghxQwzIz6sMhLP7q2mhl5Ysq7Kk6LbjPY4um8SMCN0BIxNJTYGSY3+iOOo4B6Yls2s2/OGl47RcsdLV0Et67nRGAHx7hbP77dQceJ/mth5az2tmZu6YwPzcSbxa2cjZJRPoPbyT3jlr+MlIYOQveWN9N6s2ZTLzpeFMySxi8wuPEatP/IQQw+n1tHP2KsxIGIc3e8OJGOn+fwefHAMy79fEFcH3NQOe7ovn6aWdVxdaedUn8m+A4aQ9v43lxUWsmLsTLMksf3UDuZOHB0tZH4wlSvO4XMT3IoBeer+F7rbz9JJIwjhN5Q0byijt4VfOU1tjZ//+k7T1XOJsv96o1qYhAoZ697R91gRkMPFefRqDiIlR2g7gqZN/ft2fxIXkPk0htn3cCMCKh6ys0AZK+TqENhNcwPiZQG55Md0vbuanD29mxOQM1ry0ivR7jWIyE0OsJj0jhil5+/qf7i1jibpLEzxQ//REqamP72i291yipR1SfzwBs1qdETfaLy1wK/QdIYS4doNjoOi1ZTkAACAASURBVPfteepr2omYv4qK+WO92y/ZyVu/k7rjK5iRor+MRzL14Qn0/vY4NdEHGfHwBqJienkwZiPNRx6m63QyM9SLcltNAT9dO4Ll21/hd2NHEPFxBQ8s9i7fxc55krS1ZdSfnET3Dsj6zSz1SyWCONsqds1fQdt/bubpglWsGD+JXZm62T6zcLO/C0DX1SuA8gXT+89v8IxERt5NHLC9tcOzn2976L4IjAO4m9j/A7jQSjeT1NmEK7RpHk+KGjeBCNrJ315NlqboYKiSh8jp5G89SP5X59n+H09RkltGwh9X+Q+cjUQog7a/9QIRwLdGA50eejXLZJc724EYRgyDqB+OA3YqMzPu38vu+TOfAPcB0M72JZmUjChk16YK4kYO5czrSWRXhZC2EEVZJgMX+cQJUyzaNAZx9TLubHvqxKrMgn73TqD7Gy6DUiff4g17HcSOTwaGs/l/FfET7SzmnUMZMexkkDYD3KHMvPX+3ZuqrzXPoAaMHyDeRvHbNla2N7JxaSErnh/HlLczgt+4eGjaDNDtvARM4vvfMw4drH8GFBlDwjCoPHuRXltkn+pgQPuOEELcIINj6fZcIzXtESyY/wQzZk73/st8kqxhsH2v8UPQcTNsJLS/xcbyK8yZNhaYwIw5cLTyLWonpzBD/WLv7v4TABFDI+DKJSqrd/pGNDKZnz7eTs2LG6gZmceCJPVKfrKaje9dovvyN0RExXCPWfrNwkWOZUoMnH27mprTPbQ1v0HJS8e9x90xmZ/8IoLeqmJK7Odp+/w8NRvXUP6VO0AMM+ZMgoaNFG07Tuvnlzi6bQ1rtM9jTXiY3HGXKN/8Fs1f9QK9dDvs6ksPPdS+Vk3L51e4zHBG/dD3TdWIYcCF47RcPE6LwUsmceNnAb+nfNtx2pyXqN24wXe2FYBLvFpaxtHPr9DWvJONrx2CydnMnwBYk8ka1kvlixuoOd1O22k7JRvtmmP/TPcFgKFEDIXLF35H1Q5d9BERwEWONl/iaHPf38KOTXqUKTRSsu4Njl5sp/XIG6wqbQx+4N4ySuzn6XZeor68lPL2CLJsyYwgkrjJMXB6B5X283R/fory0o0c7XPKzEVNf5zUYfvYWv4+rVcALtNaX8HeixEmbaaUGm0E4+4nDah5vYKjn/fQ+t4GSt4KMX5OUfnSPlqdV+i9I5JY7T3NncqNyyf/XxOtp4/TYvrI4u95tXQnLZ/30PreZlZVthPxCxs/MZkMC9o/A5rEnCVj6f2fz5L32j7Oft5D6wdvUHMyhEOvoe8IIcStYkAGemPGjOHo0dC+2o4ePcqYMWMChOjl6J4K2oY9Qdo03a3yHZOYkxkB773PH74yOHTcZObEXOHyMBup8cqmhKQnOHv6PAnzpntmIKb8rJSsySfZuHA2jzx/kIR/0z+jNZyf2DLovniJqJ8lk+B+dmjkcL54LZuZD6Uwc6mdocu2sXWBfjYvULgJ5L66gtSr71O08HEWvj2cXyxL1hwYwYzlOyjNHM7eFzKZu6iM7tlFFE/D86Uau2Az1csSObNtCXOfLKYuqpBXMoFh6qxgxCSW/3Yb+T84xLPzZjPtocf5ZeU5omKHAxFE9h6k4GcpTHvoZ6z5OJnSt1eoMxKTWLDeRsKJMhYuLOLoVfyMmF3I1sz/TutrS3jk58WceXgJuX6hEsn/RRQ1i2bzSNZm6n+0gl3b1NmfiOmsfLuYrOHvU7TwZyx87c+k/eppdTbPnYYMppzezE9n/RsrDk9g/gLf2Kf8rJQFE5p4NSuTZz/qx48k35vB1jcLmXGugux5maw6eDcrfp0BRAR+LnHBU6S1ljJ3lo28HbDg5d0Uz1TaZ0LWK6x85Ap7X8jkkUVvM+L/LCC17ykzZ3mMsreLmfFZBb+cm8K0hzJZ9QHE/hD820wprQ8/R/44zfHDH2XFqxkkXHqD7Lk2Vp1LoeCpUOO/mxHt21g4K4Vps/KoiSikeotan5GzWP7cdC7vWMVcgx8098pg+U+vsOHJ2cz9lZ2I+cXsWT7ddLYteP8MLCG3ml0vJvN1zRp+Onc2C185B6EsZfe77wghxK1jiMvlcmk3nDx/ickTxpqFD0k4/q3b3oYNTFt6jpX7q8nq0/NI19nVRop+XMjef6/m9DKDt0y/vUTlkzY2Rm3gyNab+3B4t72QmS9A6eEyFtza1euj9a1M5r4Uyeb/LCPdb6LmFBsTsqnMqVbfCB0MeqhZOpsiijnyuk1eGBBCiDASbNw2IM/oWSyW8Pnbtb1XaDvzPuUv7YTHX2H+DR7kdb+3mRpmM2faWCJ6GqnZuIYaJlH8uDrIOFlN0blxZM2cTNQ/z3GgcgMbT0eQ9fos+UIPySkqi88RtyCZqZHfcKa+mpKXzhORWUaarMYJIYQY5AbHyxg3UcuWFBZWDWdKZjF7nntU86bljRExcigflhbw6sUrwHDiZj5B6e5CFriX4kYO52+71rBwbQ+9RBA1IZnlb1SQP1PWkEJzNyO+slO0aAPdVyHCMoGfLNvG75aYLyUKIYQQg8WALN0KIYQQQoiBF2zcNjjeuhVCCCGEEH0mAz0hhBBCiDAlAz0hhBBCiDAlAz0hhBBCiDAlAz0hhBBCiDAlAz0hhBBCiDA1KAZ6Z8oLqDqh3eKkrki3rXM/Ly6u4Ixh+MHIQZWaHxGq26vMuvauI7PcAYTW5rv2ruPFvc4+7zPmoGrxOuo6+3CIYRzXVl83uq/flGtL535eLNpP1w0+7eDhpK58P104qFL7w3WLt+ha27iJm1Snwa4BVSfgTPkA5Vl1prygj9eagY8vPMYM5gbFQG9ikpW6Y5oO3OmgsRM+bddUbscXfJyYyMQbn7zrZAAvKiIsjZq/mh351pt0dis5b64mLbpvR4X7BVWYOFHhuSm57jodNGJh1IkmPo29CX9rcSDzdgN1t1lImuaknUSsfezXAenKZ2L+VtbOv3711K/4wqTOQjUoBnqMvofxbU7P3U9XUxMkWuFDh2fbmWMO0pJu1peeEEKIm6LjC4i1cOaYk+TEQfRHtW8pDo613UOUe9B8s5MjrqvB8SfQoq0kU4Gjcy5p0dDdBsm2dNji3uakvc1CrE17kLIsVAeQmOed+ejcz4tFtXwMgJXVb+YxEWWm4VhSHpSFdkzU3nU805buG2YLFJbOZVSgc8Sm86m9FmyrNXchymxeVSdQVEBVYh478tVdJyrILFPuPNIKt5IzzX870en8pnQuo3BQtbiJWJuTKjvklK4mLVoTtz4Oo7ICxrvTpuYpObaWqiY1HyZ50+rau44y0kn+sEI5ryd9ury60zNaU3ZqOe2MdZePg6oiJ/M8x3udKS9gXZM2zYHKzPe83vpVyiypENYZlHPX3nU8Y3eq50hnjP0Lktx5NqwD32N82pGb9jgsSj11VJD5zj2aclLT5W5r7vg0Za6Uc57f3WyXSXj8yt+4/gzryLDNKOmbqLaTjAebWGd3evOkmxXw1FdTAXXR6fym1OJXHsHbuBFN+zWrB21eTeL1b09mgwbj8+n7dyEVAeqtL/1D+X+3Jz/G5avldw6/8ycyxl5Lnbt9GpaJSTvo6zXUE7eDzMUGaTfqD9HBykljWh5rpwGsVtuyk7qiCljmPo/2s39/96lrbVoS08nxnMTk+mGYt1D6j75OteH01/E82GJ07erH95Y+L54ytZJTqhy21v3do+cTn2++/NLhjtegfGLsBRxLCnZdDpI3DSWcEl9IxxilCXe5hz5mGFRcOo5zF/Wbbgmnt+a7Vu/pdLlcLa7KRdtcp9VtlR+5XK6Ofa7Vq/a5vtSEzVDDKOHXug50+IdzfbTNlbG1pZ/HeNPhcrlcX+5Zq6Qv2Dm0+3x0ug6sUs/pSUO+51jXR9u8x2ri9Dm3eozyf7M4vWk2pgnTsc+1epFaxu7PJnnT+nLPWleGu/xcna4Dq9xxmKVHm64WV+Wqtd7zBDqH3/YAZeZDm44g5ayrY8/ngHUQrIw1PPHoyiZAvt31q/2/py8ECe+tF98y9IYLtc34txOf8xik3T+d/Wnj/vFp68h7nTArB33+jNJlHCbY+QL1b/N60PYPk/T3oXy15wtU19o8mJa1URvszzXU4BymNOEClVNg+voL0N/113p9mhcZtYNAfTXE/qOrU+WztuyM27E+fvMy15W/qt9lqi8bXfwB+6Gu7r19TTm/Np9+/cmsPWlo+26oxxilqa9jhltJsHHb4JjRQ3lO7+NjTuh08mlionKnlWRl3TEHOUlf8HFsos+dXlqhe9RtJSmxgmMdAF/wcaeDZxbXegNG3+NZ/u3bMXOVMCdg4jQnjg8tZJRa4ESQc/zcbFbCiJXV7ruKaYmklTXRDdDuhKYKMhdrgiZ6Zw4yNDOFbZ3qiyuegBZiO2GibjbAd/ZDDQMQnc48991oh3ne9Hkab8tT76YtWB+00NjuhGlm6bF6y5ImPn0wneQPvXn1X5J34vgQcpYZLdUbl9ko0M0cQFoHEG1+DO1Oxtu8d2+j5qeTZlemfLpM68BCbLSDdUX7A8xA6e5io++hCyvWB6GsyUnafGUZKsfmzp/vjKv7PObMw3vrRc3P4ibOYFXv9JW0hdpmfESnU6i2u1GJiYz/0GnYLvz1tY3759vbb2GiLR22OOia757h1peDlZhYJ+uKKojx3Jk7aW+DuqYCb1i07SO084G+f4dSD77941iTlYx8g7rtR/kGquvxtnRPHkzbcuI9jG+q4MW9mhmvANcA37LRXEODPu9l1B/0edCW07Uuz2raHFbm2WqVfhfzBWjKjGnp5ERXeA8zvX745iXk/qOpU6LnkpFYoH6fKOnK0M4oBzi3YZl3NFGXmM4Og7LvV5l26MpGW25qOs37oRknbWjKAIP+1I/21L822Pcxw2Ba3h40Az33l0BdrBNi85Rt6rN7dThIS8oLLR6T6d/ufhwzyj3QpImq2ER2XMs5+sh4acno4dLgU81d7mXoN614ljnMmOQtdCbpUctyXiwkJ1qx/v/s3X1QFHe+L/43J4kkpjRP4A4P2aiIV3F/OGAI0YVcolx0d6PZOVsoqR+XjSB4LpDUiXEritcgekS3NOytBNmrBNwQ7j0G7jobHxLkoOH8YDXK8qAnklwJEhOQWYbERCuumGT790f3zHT3dPfM8CA4vl9VVjnT3d/+PvV3PvP9dg84jCOtNoR/aEJ8sXpnG3r7TYj35YbhVmlpdH+2a5nNwyH2Xhumx+sPgHrLeynFe5DSX4dXV+fhglt9iR9qvb/agwOOZbA3xC3T4uLEQS4OeKc3DvkhgBgsHEZ48R5x0G4tR5phxn3dX8vEWJ4wXj71RL8e5uXuwQF0oHJ1HraFLMfrxWZ4sxw6WufX1W/DZyGP4pnRyoIP9Op66/5l4tPdq23iUh0wyuOb/vVwqw30GTy56dP4McrXzzDGroE+G2aPx4Mp/mjEn3nj7/Z4GAOAOFNiQ/OHcN1wG2JGAlrQ3GtCeKgXSYQ+itkth317stXomAXLkdnbgkr57MtwzuGjaWEmXLAe9uJnKcTZpXc8PHpu75UNCtITzZpGXDaD/CyIQ0pvC470PgpziBj0fPbHcjSHaz1JbUZ8XAe2+fDU1ECfDQg3Oe9/O93i+Zh58WbU/9H1EwgDhw47Z2c8tkHIMmzdn42UlhbVPmKQ6uivAy0tznteELIMq8JbcMTagumOmaF+Gz6DCWFSAHL+tIcye9j/guwBpoFDh1Hv9qS6d31mrHnfx6F4Iv+89TDwpBnTPNab+NRwJlrQ0W9CWLgNlVbv+pPm+dQ7+dpugDSeHUbpKNW957YWearraSs240C+9MsHoz6+GVwPwya2Z3OLVI9uY1oHTre6/n/EKn6mTIuLA+T10HrYOcvo/fjhw/XT34IOR7766/BOixnxGvfyDWfsEstSPnrtFPqoKj1XvTl4dV0omBCu6u/eHXcL3YLP81vh9pnRgwnmJ4HKDx0zHeJ7YeE2XOhdLnvPQMgybM3/AmmyaXWPswaGx5hgftKGyg/j8HqIN/t7Lt+L6ocxtCzIxuuWbXhxdZ7zLe0bfk1IKc5G7+ptSLM68ud+Q/M8y3KgQNonxKw/qzHssnmTHzPiw8vxTvhyMW/Sh16vzpPU83I3I7Ngm3O5SfEwhgZx6cqxPGVGSpwX2V2Qjc2n85zT9rMty5GCL5zbtNtAuVyXkr9H9eEqLnm8KNXh7DgzZsvLFW/CtlJgs6P9pSWdbdJ5UuI8fLP0sP/s8C9QujpP/DB1zmbJeddnhmtevBnbSlUPY2jxuo8DKWhB2mppFjouGwdWmADo1YNymXC2ZTO2hgBQ9SejWRnt86n42m4AtOpe/jCGlvNl29Bn0Z6J9NzWEr26hny50IzN+8XjhzUGLIhDSmm5xsMYxtfDcBmPaWbgdB7SSl1lFbcvQ768HuKWIzNEDEIMxw912by9fkJM6H0jD2n9gGNGWTMQH87Y5TZWyx/GGAaNsd9Vb9JrvetCVT9hziM0xhq962m06eZJZcSfeRNDgCAIgvyNs5/0YP6cGeOVH6KJq1/5dDDR+LKhvqwD5lz3/qj3RDbJnhYf76z4EfmTr3TreYrbbqOlW6LxNeGWFejOxt88IyIv3EZLt0S3mOp3o27ZsgKRN0KW6f/mGRGRhEu3RERERLcpLt0SERER3aEY6BERERH5KQZ6RERERH6KgR4RERGRn2KgR0REROSn/DvQ66/DqwXSn7CS/5+IiIjoDuDfgd7tiAEpERERjRIGekRERER+6jb5yxjS3yfMB7ZJf2Tb+YeF1X9/1Oe/RyqmHW6xodIK8Y9SQ/4XEeR/3Fz+B9FNyLSYUNkbhwO5Zre/9ad8rfxD6s4/zt4q+6PhIcvx+gtAqXTeF1cf1v0j7kRERETeuE0CPQDowLbT2TiwPxticFaO+rjNSBmltJuxGQf2ywLH/XvEQLG1HGllHVIwtw2V4dk4UGyGI3hDeJyHtG2oLygHXtiDAyFw5v38/uXo+6MNmcV7kBLi2ntrMXwMVImIiIi03UaBnhmbc83O/z9jOYzSFhtSPMVZXqa9yvE3TC9/gQv9HXhx9WHX5pBHMQAb+nrN2FzsyIMJKb8yo/K0p7Rt6O23ob4gD5XO90wI7zchLNyGbQXlCHPOGBIRERGNntso0LuF4rJxwBlUOnSgtx8IG1aC8uVfmdw9OIAOVK7Ow7aQ5Xids3hEREQ0im6jhzE6cLrV9f8jViAhzgSEmDC9vwUd0v1vAy0t0r11wxT6KGa3HEZ9v3qDGfFxHXjnkE16bUP9HzucW4PDTag/7XjdgdMtji0mhIfIj3NPN3P/ZmTCVQYFaemYiIiIyFe30YyeGTidh7RS8VVKvuPeNnEZ90VpaXR2nBmzR3KakGXYmv8F0mRLrY4HP+blZmP66m1IswLiwxhmoFfcZ9qK5UhZXY601WKeXEvKJqQUZ6PXeRzEBy+KzeiQPaAx27IZW6XyJGCb62GMkZSFiIiI7mgBgiAI8jfOftKD+XNmjFd+dEhP3U60e9lay5F2Ok5jmZeIiIho7HmK226jpVsiIiIi8gUDPSIiIiI/dZss3RIRERGRGpduiYiIiO5QDPSIiIiI/BQDPSIiIiI/xUCPiIiIyE8x0CMiIiLyUwz0iIiIiPwUAz0iIiIiP8VAj4iIiMhPMdAjIiIi8lMM9IiIiIj8lFugFxAQANVfRSMiIiKiCUYQBAQEBBju4xbo3Rs4Cdf/NjRmmSIiIiKikbv+tyHcGzjJcB+3QO/Bqffjy6+vjVmmiIiIiGjkvvz6Gh6cer/hPm6B3rSHH8CNm9/B/tU3Y5YxIiIiIho++1ff4MbN7zDt4QcM9wsQNG7Iu/nd9/isbwD3TroHjzw4BZPvC/S4BkxEREREY0cQBFz/2xC+/Poabtz8DtPDpmHSPXcbHqMZ6DkMfPUNvr76LW4M3eQDGkRERETjKCAgAPcGTsKDU+/3OJPnPMYo0CMiIiKi2xd/R4+IiIjITzHQIyIiIvJTDPSIiIiI/BQDPSIiIiI/xUCPiIiIyE8x0CMiIiLyUwz0iIiIiPwUAz0iIiIiP8VAj4iIiMhPMdAjIiIi8lMM9IiIiIj8FAM9IiIiIj/FQI+IiIjITzHQIyIiIvJTDPSIiIiI/BQDPSIiIiI/xUCPiIiIyE8x0CMiIiLyUwz0iIiIiPwUAz0iIiIiP8VAj4iIiMhPuQV67bvNiNx9zm3H9t1mZFsHb0mmbp1B1K41Y2eb+Mpuzdcs+23DZkV2VD5qbeOdEW2K+m0rQeRaK+zjmyWiYdEbJ32hHG/OYecEvnZHRHGtK8fc8Wa35o/yOHSr2vEcdkZNnHocEZsV2VElaB/vfPgxt0AvZn0Vsir3KTuqzYqyrkIUW4JuYdZIQeNicAtMTRaUd5Yi1XTLc3eHGv6gftt/qbilxjsIcj9/zPoOdK2PHq8M0SgJtpSia68FweOdEZ9FY0NnBzbEjnc+xo9vk0/jPYaML42l22hkbQcKqh0fQoOoLSxCxNrb8WIgIiIiunNp3qMXbMlxzeq1VaEAhchyfHNoK0FklNn1Tz4r4c2sk5rNimxZes4IXXUeV+TumPoXp67F7caRut2ar0jL++lu+TnMiJSVTf1twm0JwGBpUpkfeX0pz6eoi8VFaEQVVkp13r7bjEWbmoHKDFmZ5N9avKkncR9XvRh963Gkpz7GtYf7N6zhfouSjrOWqPqYTv1olCXbalWc25u8+dQuNiuyozJQgWYULDa72lrVn7X6mnbbuZ8n0nA5Q8p/m+t8YvnkaaiP16s/qW2tUlqqZTaj/qFfZ1r5lZVNdm24jxGy5T29enY7t8b1KF0n8rzJjzHqP86y6JxfL8/u5dMvtx6tmQrjpWKjfuPeT9zbSS/vvrSvTv35SKxXq5SWcizT/MxR53GtFbWy+jPsW4D2srLbdeDLuNM9euXT+gxxvqexBK74zFR/Drh2U/cleR25rhfjvqr/mepNf1PW585ThlWmkSexTCsrgcZNyfr16OEa9viZ4MVYftsQdAwczBNm7Too1OTMF3a0Sm+2vibMmpsn1PQ79rILNTnzhTUH7eLL/oPCmrmvCW1u6ZzVPkn/QWGNIr2zQo2UVtsuWTqtrwmznOmK55wlO0/brvnCrJyDwoDmSexCzS7XtoGDebJ97YryKfN6VtgxV1Y29bGtr7mlI6+bgYN5imOVZZaX7az0f/F8zroWzgo75HXjVd3Kj/FUT6q2c2xXtIeqHlVlVLdf2675qjIry6DIr6L+1MS6cC+bXv14LotXectR9RPp/Mpj7UJbq10zDXV/EoSzQpvz/0rabWfQ3/TqyLG9/6CwZu58t+vElZ7n+lOey3OdGtWZm9bXVOfWu+5c59a9FhzHKK4HjTRlr8W8y8qjGFPE+tsha2P3utM4vzPPGnV10DVOeFdu2Tncrg338wuKbUb9RtVPHG3tRd59al+j+tMYK3cYXRdGnzFaY7a8rlpfU7Szx76lNY671f3wx52Rlc9ofNEox1zVZ2aOrB1Vn2vqz4Udreq6EISB1rPD+Ez11N/U9en+OaVgkCe3Md3Ha9j4M8H7sfx2oPvUbbBlC4q7ihSzee0nqpC0fYvsHrAgpK7NQGNd07BuZm2vLgIU6UUjVboPMGb9OsQ43o5NRhYu4lPZTEJWtWt7THohkpp60Kt5liCkrnctOwcvXGKwr0xbAyoSlfclBltykNV0HI02KU/OdC6jG4UozmxG92UAGERjHZCyUO+eRllZYqPFckjnc86cSkvo9adG9gCMbj3ZmlDflIFcWfli1lchy2N6snsATRbkZjaPOI/aElCcLrsHyqh+hlkWl0E01jUjS3Z7gjir3eD8JtooNiyAIMTEGt+r2n3JUR/RiPH2HhpP/U1TAoqLpDybEpGSCCRtz5DaOwhJyxJc+faif8nL77lOPdeZQuw62f1E0ViaKa8nX0nnlvVtsTwJqDghm73JrHKeM2ZxBgBZedRjismCDc6yqurOE2nVQ952MRapXoZT7tgMFKMIFc5ZpwZUJC5Bkta9t171G1k/kcZsdHWLY7Zu3n1s35HUn1pmjmuMceuHYv7FdnbPI2LXoSZzeKd1UKQ3FuOO1+WLxlL5+Crtu1RjTBE/mzNkn5kZKIbYB4IXLkGSo71t3ejOLERxoqPvn8OxSlmass/G4Nhondu1PH2mGvU3dX0GIbWoEElG9eVVnjC6fVAyrLF8Arpbf1MQZkUCSRGJUsUO4tMuIGKx6kMudIazkX27h08nPQebFdmLi9DofCMBxT6lL9NWgsj0KtkbGcj1cIj90kUgMllVplBEJErBnCkUEYlVONa2DjFoQPeyDGx4LAORJ85hQ2g36rEExVoDs8mC8hNA9mIzCgBkVYs31NovXQSaqrAoqki5f+ZlAGPwEMzlHjQmzhh+nUrCIxJGJTueGNbPYyMty2V0NwEVTWZUKN5PQIQNSF3fgZrdZkRGAUgsxEndm7eDkLq3AVibjMhNADKrvL5h33N/85SCeL12P6bdV4z7V6j7AR77h3GdxbjldxC1a5NR0OR6J2m7fmmMXUZ3UwIiVEUJfmwmUNcNOzTqPHQGkhKBcINU23eLy0FOmTle5Ua77RyGU27xQ6rgxDlsiI1G+4kqZK3t0Ex/pP1GP+++tu/w68/Q5R40ogqNUVXK9xNnwA5o9oPRNLbjDjyULxox6YVAYRPsFgtw6jiwfYvsy42D+FnaWCmNOzJZlwHERiCiaR8abRYknTqOiMWlSIo4joJTg0h9rAEVmcnYAACx69BVLS7/AgkoPmHwYN8wPlMBT9eKBl/yhNHsg8Mfyycig0BPTfwgqb80CKhnNBJnGA6gPqdnsyJ7cQ9yOztQDkBcO9/n8xkAiB1y7wyc7JQGSiltT+QfGspOmYCIUDH/jsF4KS4iJT0IMCUjK70B7YuBRqPObLKgvNMC5yPy1R3Ya5TKLAAAIABJREFU8NhMIDPn1nYmdYBu60Y3gAgfkujtbvbtgGEKNqofW7f7lw2fyhKKiMQEFBfpDyLiU5bivSmL1sJDsNeBVDjuhfFugPDc30bGsP6gM8NkWKee60yefu3aZHSv7UDXXvGd9t1mlPlaCCeDQCYyAsGAzysM7bvNKItoQFenOBbZrflYZHy7lZN+2w2/3MELlyBpUwPa10OccVnv67m96zf6x/vSviOrP0OhM5CUWIhizettUKMfiEHPaI1JYzvuwEP5IM7UYwsabYlAHZBSpPVFTvwszVqr9xSuODNYduocUDcTS/cCwaFLgMImtC+7iCR5R4ldh67OddLnZD6gFVgN8zMV0Olvl3vQCOgHit7kCWPRB4c3lk9EPv1gcsziDDRu2iK7GVt8IhfLpFk/UwQiUIVjjiUHmxUFm5p9SO8caq2DztkEZ/DY1qD6Vuk98RtEhLNT2U8dl80SGohNRlZTEQoUN3hvQQFcSyjilPg+lHU53ovG0syLKNtbhazFOh2irUR2U2coIhJl56vMuHU3fMYmIwtVKJOVr726yGPdVOxVPnCystK17BAekaBYxm/fnTHsdtPMr179SP3OqCzGeQtC0jKgoFDr5uNB1O52vR/82EyDTJ7DTtlNzj7NdnrR30bE1/7lsX8Y1ZmaNAPn/Dw5h2Oyb93Bj80EZEuCdusWxQyYO/FLVkW66qGDdIPrzpC0uuCcDRWXBL2m0XbtVivsHsptyGRBbmYVytbuQ7d8Sc6Lc/vUb3Tz7kv7jrD+jJgSkQJl/lzEAEc5JlUp+o7vfUtlhOOOR4blAxzXWX11FeoN2jRmcYbqenDf3li3D/WRyWJfMiUiBcdRJrvFyG4tcX0WmyJ0g9Vhf6YC0gqg7LYEDKJ2b5Xu7t7maTh90PgzYQRj+QTk21/GiF2HruqZ4pMrUWZERiWjflkDyp3r4tHYUJ2BinRpeyGQu92ggtzSyxCXnqR7VBY5nng5AR/ut1IS7yvJcD45U9A90/h+AKdobOisQsSmZOexi+qWKGdyTIlIQbMr0AUQHgE06txHAQAInYHudGX9id/CorHhRKFsm+opWWngdzx1qy6b7wGieD7IyndssRf36C0DChz5S7+I4hOu+6SCLVsU7eZNer7mV7t+3NtKfW5PeQu2lKImUtbnnPUchFnyvpgO1Dj7gPRTRM4nuUIR0ZWh7C863wDd286L/jZm9ae/v1H/0K8z97Sc9RRlRmRUAyC/jyp2HWocfTvKjALkoDhR53jpiblgSylObr/oPCYyKgOoHu7vikn3RTnrZgu6I+Xjlvv53epK1XYruyMQ7KncHsQszkBjk9G9vtrn9q3f6OXdl/b1VH8jEYTUvcr8yce7mPUdyjyeSFbeo+exb3kysnFnpOUDxAkFVFYZ/8RZ7DrV9aDqq7HJyGpqRoTzi1AQZkU2o1E+cfEYFJ/FqNaeORv+ZyqkW5fk9bkFWKt/j55RnmLSHeNTPmptvl/Dxp8J3o/lt4MAQRCE8c4ETRDOJfN1mveBOJahbo8f6RSX+yM83NNBPjDsHzTqHEtkt+UP+o4fxxJeOX/gnwgA/9YtOYnL8I2ZyfwQJw3sH7eWtBTNH6onohHy4WEM8i/uTwPe7k8W0Whi/xgvjicHk7Y3oPy2mD0noomMS7dEREREfopLt0RERER+ioEeERERkZ9ioEdERETkpxjoEREREfkpBnpEREREfoqBHhEREZGfYqBHRERE5Kd8C/TaSnT+1uPI2K35On9D0VuDqF07nL/3eucYeR0TERHR7YYzekRERER+ioEeERERkZ/SDfTad5sRGeX4V4J22bZea75rm3o5sK1Edlw+am3yjeISq3O75jKwtI9jm82K7CjXMcbLs+ewU+fcdnmeZem07zYj2zroVnbXe/I03fdVnjsftTb9PCjrRpWWTjmV+Za3g6ouDduhBI1G1UZERET+SdDQtmu+MGvXWefrgYMHhTZBEITW14RZc+cLaw7axQ39B4U1c+cLO1qlHVtfE2bNfU3c1/E656AwIAiCINiFmhzZsYIgtB0Utw0czJPOJ+7jOrf42pm+cFZoc/5fTjpOdu62XfOV597l+L90Psc2RR4dZXKkc1bYMVd5/h1z84Safq08iPu6lV+RJ71tOuVU5EUQhNaziv1ddak6Xt0OUjvJ25SIiIj8n/uMns2KssoM1KyPdr4VbLEgxvEisRDFliDx/yYLcjOB7kvizFT7iSokbc9w7RubgWIcR6MNQFsVCiA7FkCMxYJg2anbdyejILIKXbJzA670gWjExOoHrVnV65znjkkvRFJTD3oBAEFIXe86V/DCJa5tscnIapLyCMB+6jgaM5PFdNoaUJFYiCznOaORtR2oP6U3q5eA4hPrlOVPrMIxaXYuZr18WzKycBGfymb8tMsp2yc2Wjze1oT6pgzkOusyCKlrM1BxQpzVc2sHkwXF2xP0K46IiIj80t1u71zuQWPiDBT7nNQgPu0CGiuTEblJuSXrMmC/dBGITFYEdgqVGViZWIiTe+VBXhBS9zYAa6U0M92DQK+1lSAyvUr2RgZyATiCt4JTg0i1AI11QHGReA77pYtAUxUWRRUp08q8DCAIngVhViTQ7XhpsyJ7cZFsGTVBqmedcposKD8BZC82owBAVnUHNsRCbCNUoTGqSnm6xBmwIxSfdgERi73JHxEREfkz90AvdIZztks3KNMkBjVZa6VgxM1MoK4bdkRrp5tZhRpkYNFa4ORe+UxfEFL3diAV0n2Du4cR7LWVIHLvDJzs7BDTtVmRvbjHuTl44RKgsAn2hUA9lqDYJL3/2EwgM2f4waUU/GKx65y5nR0oByDe07dPtq9OOU0WlHda4LhXcGd1BzaEzkBSYiGK91o063JWJFB/aRCIdQV7vd3NAHKGWQ4iIiK6Hbkv3ZoSkZJYhZWym/vtVqviYQw9MYszUJFeor1vbDKymopQIHsAod2qfBgjZn0HaiKLsMj5kMY57JTlIzxieMuP4mxihDMosp86rnw4wZSIFBxHRfVxYFmiK3iKTUZWZYYPv8/XjIJqeb1tQQGkpV9ppjTcsbGtARXOPXXK2VYiO3coIhLl+VXWpVx4RAIaN1W52sFmRVmla7sYSPI39YiIiPyd+4yefBkxSnorsRAnLV6kFrsOJ7fnY1GU2fVeYqE0QxeNDZ1V2BklW9rNrEIXoAr2GlC8NhmLoo6j+MQWRHSp8rHX99m1YEsOsqIyECkFO0mZGUhSlTlpGVCwaSZqOuVLntHYcKIQ2YvNiHS+l4DiE6VINWmdKQHFEQ2IjMqQXmegplOadYvNQDGSXcvAmRnIch4Xql1OWze6ZedO2t6A8lgxv6l7q9AdpVwmdyztBltKcRKydkgsRM32BDR2g4iIiO4gAYIgCOOdCf8gLsVG6AaBRERERLcWfzCZiIiIyE8x0CMiIiLyU1y6JSIiIvJTnNEjIiIi8lMM9IiIiIj8FAM9IiIiIj/FQI+IiIjITzHQIyIiIvJTDPSIiIiI/BQDPSIiIiI/xUCPiIiIyE8x0CMiIiLyUwz0iIiIiPwUAz0iIiIiP3W30caBr77B11e/xY2hm+CfxCUiIiIaPwEBAbg3cBIenHo/pj38gHfHCBoR3M3vvsdnfQO4d9I9eOTBKZh8XyACAgJGPcNERERE5B1BEHD9b0P48utruHHzO0wPm4ZJ9xjO2WkHehc+u4yHpt6PYC+jRSIiIiK6dexffYMrV7/F7Omhhvu53aM38NU3uHfSPQzyiIiIiCao4IcfwL2T7sHAV98Y7ucW6H199Vs88uCUMcsYEREREY3cIw9OwddXvzXcxy3QuzF0E5PvCxyzTBERERHRyE2+LxA3hm4a7uMW6AmCwAcviIiIiCa4gIAAj7+Kwt/RIyIiIvJTDPSIiIiI/BQDPSIiIiI/xUCPiIiIyE8x0CMiIiLyUwz0iIiIiPwUAz0iIiIiP8VAj4iIiMhPMdAjIiIi8lMM9IiIiIj8FAM9IiIiIj/FQI+IiIjITzHQIyIiIvJTd49Fovv/ArxyFLB/63nf4PuB3/4CWP34WOSEiIiI6M41JjN63gZ5gLjfK0fHIhdEREREd7YxCfQ8BXn33AV8sBb42Rzv9pcbOrkDP4kyI3KtFXb1ea35iIzKR60NAM5hZ5QZkbvP+ZBzIiIiIv8xLvfo7fsVkBQBvLUKmHyPL0cO4VTDO4hYugRRTVYc+3yscnhrXW17E3n/uBGHbeOdEyIiIvIntzzQy10IPP848MPfgRX7gevf+XDwlROoPRCGpWvzkfqTc6ht6hmzfN5KQ5c6UP/JNdwY74wQERGRXxnzQO/B+1z/T5gOvPFL8f8vHQY+9HFG7urJBtSHWZA0ZwZik8PQ+Yfj6PQlgcEzqNiQgUWPmxEZFY9F6TtQ2zUEYAiNW82IXPkOuh3nOrYRkVHx2NnmOPZ9ZMtfy105J0vXjAXP7UB9n7StrQSRUWbFce27zYiMKkG79P9Fm5oBNKNgsWxJ+noPDu9+Gct+KqX5zMsoOz3ooYCO5epmdFbmi/n5aQ4qPhrC0EdVyF4cj8ioRKzcehy9PziOGUK3dQdWLo531okz7zYrsqPMyH7rfVSsSXTmeajLiqLnEl1lrVWX0SBNIiIiumXGNNDLjAM+fQWIDgFCpgIHfw38QwDwv9uBN/7sa2p9OFR9HOH/mIAoAFFPWRDeZ0XjR14efv0cdj6fg9/1PoGNfziKk0deQyr+hILnXsZhWyBi438GfNSENhsADKHt9PsAhnDsL58AAIY+7kAjfokn52mk/XkHus3rUfNvTThZsxGxXe8gb6v7PYRaYnKb8O6mJwA8gcKDTWjd/XME/9CH2t+kYV3jVKTvsuJkXRVemn8Rv1udjd+dHfKc6IFSHPrRy6ip2YH0h85g50tpWFlxE7l/OIiqzBloP1CAitNiOr3Wl/HspjOYt/kgWk+8hdwH/oS8tW+i8wdXco1vHMXUV5vQ1bkOMVeOY+NzRai9axXKjzTg3d/MRONbVYrTe5MmERERjb0xC/Tu/gfgxQTgkcnAv/8T0Jwr/pTK2X5gzf8ZRoKfN+PQ2UAsjZee4IhMQGpYH8rqvHvYwt6wDxUXo7GhOB/LfxKG4JkJeOmNLUi53ow3j/dg6hNPIQXN6OwaAn74v/jw0BJseOVn6G39GHYAnR1/An7xBGIDNRKfn4HitGiEPzQFwT9Zhdw0AE096PUmY5OnIHjyJACTEPjgFEydEgh8ZEXRB0B6wQakL5qB4B9HI33rDrwU1oOyd1vgMdRL/DVyfzED4TN/hvTn5gB9gUh9YQ1ifhyGhc8/hyQMofev1wCcQ+32ZgS/sAOFT4dhqmkO0l/IRvjFchyTBdDhOflI/bFUj01WHL4u1mPSzCCEx65C4SurZCf3Lk0iIiIae2PyO3oA8P3fgf+yD2j8JyDqR+IS7tUbwLN/AP7my315ks66KrRjCO3pZlTINxw4ilMvRGOhVgAm03upBcAqzPux7M2HwvAogPr+a8BDcUhKBIpO/18UBp/BsQUJqEkG/v23Z9B+zYyBpiEsz3oCU7USv/YJDtdaUVd3Fr2DPegc4UMV9kufYAhxiJopK9RdQQieCaDPjqsAenebsbLSsTEBxSdKkWqSXoaFOfM5dXIQACBwsvRGUBgiAHGJ2taNzutA7xtpiHxDmYch2ezbrOAg5/+16jHwflk+vUyTiIiIxt6YBXqA+LMpSf8TOJkPzHwY+NXbwKUrw0joh0/QWNuHwBUbUb5ihuv9Hiuyt7+D+jPrsDDRONILfywOQAfOfw7EOIKUK334AkBSRCiAIMQ+NQdDfziD2pAGTH1qB4LDhvBk2E60nXwKAx8lYOH8KRop96E6Jw1FU/NRs7scEQ9Nwvm98chwBGF3TUIggKFvhwCIebzhIeAJfmwOAvE2Oi8OASapXD8Mwn4RCFwagWAAwblNaM1yHROoGYF6YIpA1GTgi5wq1KTOUGwKnAporT0Hm+YDuIhPbUCMFFhe7ZfdgOcpTSIiIrplxvxhDPu3QGIZkPNHoKFrmIl83IzavkCkrvglFi56wvUv7TmkTwaqDzXjqockghMtWD75HHYWlOLwR32wXzyDsv++BfWTf4bUJHHGKmKhBVF9b2Fn2TUsXTADwBwsXAqcqngLh+cnYqFJK+UvYe8CgEkInARc7XoblQdkm2fORQqA2r3lOPX5ILqP7kDRW6ok7gKAHnS29qDz9DnYf5KM3JlDqC7eieqTPbB//glqd27E7/pmIPeZaPGYyVMw9SHXv8C7fK1UAPhPSPr1DHTv242KjkEMARi6cha11WdwVSe98PgliEEzira9iVMX+9B98k1sLG4eUZpEREQ0NsYk0Au+X/nadg2oOOP9/kpDOPVuOXon/xIpC1SzdndFY2laIHD0Pfy7p5nCh5ag5Mg+5D58HFtW/gKLnnkZh+7KRtWRHUh5SNpn5nwsDbuGq5MtSIoU34qK/yU6P/oEUc88gXDNhKORun0VYj4qwbOLf451J+ZgRaps85QlWPe7VYjqeRMZyyzY+HEi8n6tKn9yPjYsuorq31jwX/+PHbhrDnL/9QCKn+hG2YsWLFr2a/zu4ydQfLAKuXM8lNMngYjJLUdVVjCO/XcLFv00EU+v2YfzwWHaS9QA8ONV2LM/Hws/LkfGM2nY2PAI1v3LKgCBUrA5jDSJiIhoTAQIgiDI3zj7SQ/mz5mht79X+Ldu7yzdb6Vh2W+DUPL/lWJ5kOf9iYiIaHR4itvG5B691Y8zcPNf51BR+DEiUhMQG3QT5xurUPTbTxCYVooUBnlEREQTypg+jEH+6BFMvWJFwfM7YL8OBJrm4D+/sA9v5zwBDw8+ExER0S3GQI98FIbU1w8g1fOORERENM5u+d+6JSIiIqJbg4EeERERkZ9ioEdERETkpxjoEREREfkpBnpEREREfoqBHhEREZGfui0CvfNleahslb9jQ32B6r3+Ory6uhzn9RLxtN0j8Zxpq9V5IW+cL8vDq4ds452N8dFfh1cL6jAw3vkYYwOHtnnXxndIffidEYyh8jHcfTz31iB+m/s5Tg/nUKI72G0R6M2LN6P+dIfrjf4ONPcDn/XJPlQuf4ELcXGYp5dIyDJs3Z8tbbehvmAb6vt9yETrYVSGZ+PA/j3IXOBrCWhe7h5sXWEa72wo+PyB01qOtLIOz/tNUMP/gB0hBnaj55b2QdU4qRhDieh2cVsEegh9FLN7bc4PioGWFiDODHzY4Xzv/OkOpMSbxyuHRERERBPO7fGXMULMSEA5OvqXISUEsPcCCZblwBuO92zo6zUh3AIAHahcXY566dDZls3iTFJ/HV59A8gvNqOjYBsq+wEU5KEyLhsHciE7xoTM4s1ICZGdv7UcaaUdADqQttqMzfuzMa+/Dq8WHMYFaZeUfMdMXwcqV7cg3GJDpRVuaQ0c2oZSLEfCh+Wo7JfyF3ZYSl+ejvy8AEKW4/XiZZimmb68zGZkWmxoRrY0gyZ+K6/sV+dTRqqbhPDDqGzRKp/0HtT1Kz8XUF9QDrzgKK9N8fp8WR5Ox+9B5gKt/GvnceR15ThvNlAq5TkuGwdyzThflodtLQBa8lAfshyvy/uFVj0p+oCrjzjTUZ1Xi/3QNrxotXmddzl1OVLy9+CZPkd6qj6rkZ7drbzKcwzI8iZvb3UbKPOn7gsahZb1oxdXHxbLHaquD2X+5XWqvn5XPdmCbVpllp9Pvl/IcrxebMKR1cr2Fxn1uzhMtx5GfVw2DuSaZPuZkGkxobI3zpWOZvt5vu706tx1rcjbfg8yodUHleeRl8/rPiPPPzTSdYyTFps0hkrtr1Fu6JRJy8ChbXixd7mrHvvr8GrBF1g1jFnD02924ek28f/PPmPCv/58CsSl3isogtb71zH9me+w+giw/9UH8NnW60jKAZ7eNwQAKMyJxCsa8wan3+xC4+MPAfvEdAtzIvH85W7MOPJ3AP+A/a9GYJXJPU8w3Y+eV0PxIwB/fa8b/4z7YD7yLYpiH8L1NUFAx+eYLJ1bvi/RqBBUOj6+qH5rQvhoT66w+d1+QRDahYrn9wkfSe9V/EUQhMvvC5s3vi/81e0o177KffqFYxu3Cscui3v99d2tUtoG/rJPWLWnXfz/5feFzc+7jhfP43jdLlQ8n6ub3l/f3SqsUu3rTPcv+4RVjjzKz6fIozr9fuHYRvlr+XZlORX1IXf5fWHz81JdutWVPC++nEv52tlWmvnXzuPI60o87ypnmeXtJM+TexqaVPt8tCfX7byaaUj16yzz5feFzY48GeRdTlEOVXqK83qoC2d5DciPUbaB2P5iGkZ9QaP88v5kkH9lHmV9w6jM6nPJ9tNvf0/9znWdKNtZLLfH+vamP8kYtZN+P1W3gXyc9KHPyLmlL6sjeTvK+7CPZVKOBa40PI/DdmHnf7skfKh698PyC8JOZ1GuCgeKPhUOuCUjP9Yu7PxvF4S0o1dl2y4I95XbxZftl4T7ivoEm0YOPiy/INznSKe/T0iTpWM7+qkzjQ/LZempttmOfupKw3E+1b6uvBF55iluuz1m9CDep3fhtA3ot+GzuDhkAkC8GdtOdyAz/gtcCI9zzlAovymbEN4Pw2+I08JMuFC6DZVhXt5/d/kLwJItm00w4xnLYZS22JCyQny9yuB+tNnOY00IDzEh0yJ9dQx9FLMdZeizAS3lSFstOzDO9U3Zlb4Nvf3y12Y8YzGh1LlNenDFmYhUH+qZkJDleMZR9stf4EJ/B15cfVi2/VEMAOjFcuRrnssX6vxr5zEYI60r8Rwp+Y4ZAjPi48px+jIAdflDH8XslnK8emizl/cS2tDXa8bmYtfX/mkrliNldQvOw+ze30Jk9RayDKvi8nC6FQj2kHc5ZzlCTJgOM+Kl9KaFmYBe7+pCn3ImXH6MvA3MT5rQ3GcDFthG1hdk9TEtLg6zP7RhADb09QL1LXmufABIuQwgVO8YuM+gyvYLDjdhdvhyqT1MCHe2u6d+t9x5P29frwmZL5id+6T8yoxK6YkA3fqO86Y/6de5d9RtAMyzLAfe6MDAimUAvOsz6plNx7WuNzMNSLfPWLRm3nwpk3Q9tgLzFtjQ8SGQ8IKv9/Few2eXgaJ9Xc6ZOwAolE771/ccs20A8A+YbgPiTQAQiH/++RTZEYH4YE2QlK3JKNx3HZ8BmrNqhTk/RjwAmCbBjO+RJKXzo9B7gMuOPAXig1eDnMf86OcPoDD3Ok4DmA7g2WceEtMA8NfL3wFtVzA594rrJLFDAOT5Ixq+2ybQw4I4pJS2oD7cBoRni+9J9+7VowMp8eJ7zuWA/WY4lw89pp2NA/vFpY60Up0loXHgXLZSUN2I3W/DZyGP4hndVIyXT3Qplrgc56rDZ76m4xXtPPpy8752XfkgZBm27l+GgUPbkLbapr3EPUZGnPcRp9eBytWHEV68BwccS3meHm3st41RX9Bbkh2Lc3nT72zo7Tch3mA80Ktv4/40jDofE2KQ1/urPTiwAM6lb0/svTZMj3cfm3wt0zzLcrxj7QBCbWgOX46twxp3lUumDn99rxszLj+A62VBAK7hna0T93Eg17Iy0ei7PR7GACB+G7eh+UMgIc4xM2JGAlrQ3GtCuOO+n14bZodL26Wnc701L3cPXrcAzS0efiIi9FHAWi57arcDR6yyfI2CaWEmXLAe9vxTBiFmJOAwjjifpuzAEflsZkgH3vH1Z01CH8XslsPuTyV7OFdYuM1Vd17X/TDzKON1XXmT1orNOJCvespbkwlh4R3YJnsCcuDQYdTrPfnd34IOR3301+GdFjPiF4xu3oFhptdvw2cwIcxxj5zHssNDXxgusQ9VWm/FU6Xe9jsz4uPk+9lQ/0dX/jzVt25/Mqjz4HCTbP8OnG6BDhPCcRilsjKctx4GnjQbzsYpiYGsY/wcaGlx3ndsZF68GfWlqp9aGW4/6m1BfUsLpsfL79Xz9intKZge+nesPjLotuWzy3/Hs6GB4gvbNfzplv260xRMDx3C02+68vTX975BUexk5yye3I9C78G7R67wZ2NozNw+M3owwfwkUPlhHPJDXO+FhdtwoXe58715luVAwTakWQGEmHVm5sS0XpRuMn49/LBrqVe6edtQyDJszf8CabJln5T8PaM7C7ggG69btuHF1XnOt7RnmUxIeWE5Xi3IQxoA8aZ4kzTbYkJKcTZ6V0v1AXh8YEDcx718jlkL/XN5W/ca+dfJo9e8riulefFmbCuVHk741Rd40XlDuhmb92vcib0gDiml5a4b4XM3I7Ngm2vZTnqoQ1OICb1v5CHNcUN/8WYxIBxm3nUZpKcor7wPSEvJ26RjUuK8eXrduC8ohJiRgG1uD2Nomaeu0+HOSHvkfb+bl5uN6c79pNsHHMueevUN+QMOGv3JoM7FWwAcy8FmpMTJjlP3QXUZ4rJxwKfZXPG2kxela312nNl5S4R6nDwgf9hGXW6p7obTj8xP2vDih3F4vdib/A7h6dwu56vCnEi8ssaE/VttsqXPQHxQ9mPEP3M/sNWGyUdsgCkQhbfw153i1Xky3Y8e2VKugvnH6HmmGzPU5eKPSNAoCRAEQZC/cfaTHsyfM2O88kOjQP3U3lgSn1DMnnC/kUc0VtjnRxfrk2hkPMVtt9HSLXlFtixIRKNt9G/TuLOxPonG2m20dEt6FL/lJl8WJKIRUz7FPwa3adyhHPXK+iQaW1y6JSIiIrpNcemWiIiI6A7FQI+IiIjITzHQIyIiIvJTDPSIiIiI/BQDPSIiIiI/xUCPiIiIyE8x0CMiIiLyUwz0iIiIiPwUAz0iIiIiP8VAj4iIiMhPuQV6AQEBUP1VNCIiIiKaYARBQEBAgOE+boHevYGTcP1vQ2OWKSIiIiIauet/G8K9gZMM93EL9B6cej++/PramGWKiIiIiEbuy6+v4cGp9xvyykyAAAAgAElEQVTu4xboTXv4Ady4+R3sX30zZhkjIiIiouGzf/UNbtz8DtMefsBwvwBB44a8m999j8/6BnDvpHvwyINTMPm+QI9rwEREREQ0dgRBwPW/DeHLr6/hxs3vMD1sGibdc7fhMZqBnsPAV9/g66vf4sbQTT6gQURERDSOAgICcG/gJDw49X6PM3nOY4wCPSIiIiK6ffF39IiIiIj8FAM9IiIiIj/FQI+IiIjITzHQIyIiIvJTDPSIiIiI/BQDPSIiIiI/xUCPiIiIyE8x0CMiIiLyUwz0iIiIiPwUAz0iIiIiP8VAj4iIiMhPMdAjIiIi8lMM9IiIiIj8FAM9IiIiIj/FQI+IiIjITzHQIyIiIvJTDPSIiIiI/BQDPSIiIiI/xUCPiIiIyE8x0CMiIiLyUwz0iIiIiPyUcaBnsyI7yoydbdqb23ebERllRuTuc2OQtZGzW/NleTuHnVH5qLWNa5ZoQrhz+4LymvD/PBieq60EkWutsN+SnBgbr3Zp321GtnXQiz1v7TUzEfrprWK35o+8Hyr68iBq1+p/btOdxzDQa68uQkRmBipOaFxwbSVY2VWIk50d6FofjTv5w/PWYR0T0UQ3sccp74PbW3P+YEspuvZaEDxuOSJ/ZxDoncOxygwsXZ+MrMp9bhet/dJFIDKCnZOIiIhogtIP9NoaUJGZjBhEY2lmM+pPub6BtO82Y9GmZqAyA5FRZuxssCI7KgMVaEbBYrNiGtpuzReXd6PMiIwqQbszfXGquVZa/tWaZnZM3yvSkE3nu0/vD3fKWjrOKi5Vu/J/DjudeXf/FqjIl1QWxz7e5E23biBbFnfkx6ZTx9LyumNf3bK3lcjOpSyLmFcrateaEen8Jj4ovfa8PO8oqyvPYlnk5TOsO2/6hTz/a61od6tfo7ZSliXb2q1bFrc6Uy+ptJXI8quqI9UshvvMgeeZDkW7O8+jLJsiT1Ie23WuEW/O455HjXPp1YVquWh08mCUlrrOldeNsp+XoNFjLuDWt1xllNrLWqLIh7Lvyq85af82+TWpyp86/6o61a8To/HCeJzSTWOtFZ8a1YWHvqqZH71xyjD/6vN6bjfdNrBZka1K2zUWi3W/shJo3JSsLJ9qfHQfW5TtKtaxvN41zumWP53za1xb2uOAh76vxeMYRncEQUfbrvnCjlbpRetrwqycg8KAbPvAwTxh1q6zsnfOCjvm5gk1/ap9ZMcpjml9TZg1V3YODQMH84RZc+cLaw7apXfsQk2O67V7HsTtjjSV293zpz5OWcazwg5F/pTHq8vmKI9PeTOqG/m21rPS/9VlUKYpCGeFNp36bNv1mtCmyKvrtVjP7umq612vrRzt5Njetmu+st20zudLv1AdL/QfFNbMna9qW722UpfFkT+9viDn3mfadjnSkvqMvI1V+XTtq5+eXNsuZXoDBw+KabW+piqb6tqU17VUN962lXi8LE+65zLqeyPrL8o8eEir/6CwQ2c88NxPVKS6k29XtoFYfrfreJeq7zr7srS/87W6j2j0xYPivp7axeiaUfYzu9DWKu9zLp7GLLf6U4xDxuOfp7HW8zXvQ7sZtUH/QWGNPC23vGlcl+prwK2dVO3qyJ/zPBp9VreP6JxftV1zHPDU91X9Tvu61RqXyN9pz+jZrCirzMDSWOl1bDKymo6j0ad7LgbRWNeMrLWuew+CLTnIqmxwfZNILERWrM7hDplVKLcESS+CkLo2A411TWNyA7U8r2hrQIUif9HI2g5pZtO9bIhdh5pMb8/kRd009aDXsS022nCJvPuS4xt8NGJ06jNm/TrEOPOajCxcxKfy9szMQapJ+r+tCfVNGchV1bvmvZrO46uwQTp3zOIMALLjFefzvV+0n6hC0vYMV/5NFhRvT3DtYNRWbmUBYtZXIUu/JDJiOgXVrgd6jlUmIGVhkDPdmvXRrt1jM1CcWIVjw7kJWrrm5OkFWyximWPXOesWiMbSTHmbA0gsRLGjfCYLctXb1WRtJea5Gd2XHa/1zqWa2ZfKvzQWI+4vijx4SstkwQbZtqRlCWiUMu+xn2hJLMRJWZ3HpBciSd4XkYDidFkbIwip62V9d+ESJMmuVSABxUWO7WLe0dUtzYpWoQCytgIQY5GNIbrt4vmaaXQ2YBBiYl3pu3ges9zqLzYDxdAa9724hn3Y3/d289QGvhHPv8U1/ml+zsja1ZSIlETI8qzshyPKn9E4YND39RmMYXTHuFvrTfup42hEMxqjqpQbqs8hVf7BZugyupuAiiYzKhTvJyDCBtdF7avQGUga7rE+sF+6CDRVYVFUkXJDpnhhdTclIKJI40CveKib2HXoqhaXEoAEFJ8olQ1CckFI3dsArE1G5CYAmVXSgzEabFZkLy6SLYkkoFg3ez1oRJV7+yfOgB3GQScAsY0SgXDtxH3sF4P4tAuIWKw/MBm21WM9aEycoV9WD4IXLkHSpga0r49GTFsDKjJz0GUC0KaVbhBmRQL1lwYBzQ9bA5eN8jmI2rXJKGhyvZO03ceCeE3/XDHphUBhE+wWC3DqOLB9i9heI+0vcl6k1b5bXP5yysyBN/3EK6YIRKDHeJ+2EkSmy/OXgVwvkhbva04exn3NxtdM6voO1Ow2IzIKYuCqeWP/ZQ9jllh/jZXSWCKTdRmAYvzxcA27jVVG+w8Cw2m3YbaBO51+EzrDGZy516V4nXc/ZpDn4ebPcBzQ6/vGdMcwumNoBHrSt6/qDtk3e0iBgtRZvEo6FBGJCSgu0glSPH0R0XO5B42YMcyDvRf82EwgM0cncBpEhOPbtsn13qddACK8Sd1D3QBA7Dp0da6T6j0fMAz2OpAK6b6O3RrBns2K7MU9yO3sQDkA8d6SfQbZm4GkxEIUj8mTYMPrF92q4Km3uxmAOMgZtpWt233AtnWjG142lSkRKYlFONa2DjhRhazF66Ri6H8QRBh9AOjRTU8MvLrXdqBrr/hO+24zynw/gxc8nMuUiBRsQaMtEagDUoqCXHkfrf7iIa323WaURTSgq1M8t92aj0XdgF6QLe8nXpH6hq62EkTunYGTnR1i/qRryxvBj80E6rp9D369GC9i1nega71UH2uhEeyFehizxPrLWqsa94eZH1/2b/e13UbQBu4MvpwlztD5surBSPJnMK7o930P9MYwumO4L93Kl2TkTIlI8WlZKghJy4CCwhH+PpDiid9z2Jle5VwCCH5sJiBbLrBbtyhmIkYkNhlZlRk6DzeIg0PFXvlN8VWKcxvnzbhu7NYSV5lNEQYByTnslN00HB6hs9whfUt0DlptDapv1iqmRKSgCAVj8hMEvvYLaYliU5VrWchmRZn8W61RW5kiEIEqlMnK0l4tn9n09ACPtHS4Nx9lXbLlYel6WCm/abutBCtltzyERyQoln/ad2fo17tGenarFe2OmZhQx7vncKxSM4VR4OlcYtvVV1ehHkuQ5PjQHs3+YpiWNPviDKTFL6UO4REe+omWpiJUONt+ELWFRYB8GVFF/WsD4uqHl2KTkdWkLFu71ZvrwOiaGUTtbtf7wY/N1E3D05gVszgDFene3KQ/nGtYf39f282wDaTr/Zjs4YyCTc3uicjELM5A46Ytss8ZqR8sSxzWF5cR9RHdccC47xvTGcNsVmRP4J/BodHjNqPXXl2ExswqaeZHTvzALdhrRdZei0ZS4r0AixabUeBYPrCUoqbbrFxSM1pe1JK5BCg0I1IakJK2N6DceR/LOtRkmrFSWuZJ2l4l3tfifeoGorHhRCGyF5sR6XzPtYwaIy2XOMuWWYWazCrX7IeHvBnVTfBjQMFiMwqkt7OqO6Rvwuo6TkREV7K4ZANIyzYadRubgWIky/Ka4eEetSCk7q1Cd5RyGcdtlneYfO0Xjv0ddYnEQtRsT0Cjs6GN2ioaGzqrsFNWlqzqKmRVOmY0L6O7KQNL9xpkODYZWU0Z6N6+RTbwy5bNHfWPDNR0uu6FDLZsQXGdq96V51XTSC+xECctsjaXzpHl9b2gvvJ8ruCFS4BNRYio7lDVxWj1F6O0xA+syHTHEmACsjJdX26CLaU4iXwsijKLb7j1Ew2JhYg4YUZkuvQ6swpdFv0Z2WBLDrKiMhApBSJJmRk+3Eri3heRWYUuwGPAZHTNzEKR7P0M1HRqz4Z6M2ad3C6rP0B3Kdj4Gvbts8DXdjNug2hsqJb1EY20YtILgcXJiNwkjRGOW2VkY27S9gbZveG+8dRH3M6vOFpvHAhCjEHf90hzDKM7RYAgCMJ4Z0KPODWtt3w68Tim1oc7QJD3Rq2u20qQfSnDQzriUneE7vI5EdFExjHsTqb5MAbRhNZWgpWVCSg+MQoBdew61wyxjvbdGajIrOINzER0W+IYdmdjoEcTn9sTbEZPIo/BefWWxImIJjKOYYQJvnRLRERERMNn8LduiYiIiOh2xkCPiIiIyE8x0CMiIiLyUwz0iIiIiPwUAz0iIiIiP8VAj4iIiMhPMdAjIiIi8lMM9IiIiIj8FAM9IiIiIj/FQI+IiIjITzHQIyIiIvJTdxttHPjqG3x99VvcGLoJ/klcIiIiovETEBCAewMn4cGp92Paww94d4ygEcHd/O57fNY3gHsn3YNHHpyCyfcFIiAgYNQzTERERETeEQQB1/82hC+/voYbN7/D9LBpmHSP4ZyddqB34bPLeGjq/Qj2MlokIiIiolvH/tU3uHL1W8yeHmq4n9s9egNffYN7J93DII+IiIhoggp++AHcO+keDHz1jeF+boHe11e/xSMPThmzjBERERHRyD3y4BR8ffVbw33cAr0bQzcx+b7AMcsUEREREY3c5PsCcWPopuE+boGeIAh88IKIiIhoggsICPD4qyj8HT0iIiIiP8VAj4iIiMhPMdAjIiIi8lMM9IiIiIj8FAM9IiIiIj/FQI+IiIjITzHQIyIiIvJTDPSIiIiI/BQDPSIiIiI/xUCPiIiIyE8x0CMiIiLyUwz0iIiIiPwUAz0iIiIiP3X3WCS6/y/AK0cB+7ee9w2+H/jtL4DVj49FToiIiIjuXGMyo+dtkAeI+71ydCxyQURERHRnG5NAz1OQd89dwAdrgZ/N8W5/uaGTO/CTKDMi11phH34WJ5br51C2Jgc7m66NKJn23WZERpWgHQBwDjujzIjcfW40cqhKe/T2HTGbFdlRZmRbB2/F2TyUbXTrfKTs1nxERuWj1jbeOSEiovEyLvfo7fsVkBQBvLUKmHyPL0cO4VTDO4hYugRRTVYc+9zXM/fh8IYcLPv9eH4Qa+Thah/aO86i+8rQ+GVr3EyENiEiIvJPtzzQy10IPP848MPfgRX7gevf+XDwlROoPRCGpWvzkfqTc6ht6vHx7F/i/KEz6PZhBnH0aeTB9DOU/+U0ylcEjVuuxs9EaBMiIiL/NOaB3oP3uf6fMB1445fi/186DHzo44zc1ZMNqA+zIGnODMQmh6HzD8fRKdvuvqwmW0qzWZEdlYEKAKjMQGSUGTvbxL3sp6uwLj1ZXBJ+PBkrt1rRfV2dRjM6K/Ox6HEzIn+ag4qPhjD0URWyF8cjMioRK7ceR+8P4hFDF49j54sWLIgyIzIqHovyqtB5Hfp50Fh+tJ98E3nPJCIyyozIn2agugsAhtB9rMT1/uPJyK78BB7nAT9/ByujzMg7KlsavvI+8tTvOQ2h27oDK39qdpbt0x9Uu1zvQe3WDLE+Hk9WlN+N3r6GbeIq/4JnXkbFRx5K+f1lNO7OEOv8pxkoa5Ptb5BX3bbyth403UDvUem4x5OR/fszsEvHOfpo7bEiPPu41OZXzqFig5S/KDMWPLcD9X1SUo6+UXvOWb6fLM5X1scPgzj1+5ex7KeO499Btzw7f23GzuekunzuTbRfl20bPIMyR/l/akGevD99/j6K5NfF//L1ixUREY23MQ30MuOAT18BokOAkKnAwV8D/xAA/O924I0/+5paHw5VH0f4PyYgCkDUUxaE91nR+JGXhwf/HK/9uRTpAPD/lqL1z014aT4w1FaC/7p6D3rjX0ZNXQPqdv0SOFSEZ3/zvvIewAOlOPSjl1FTswPpD53BzpfSsLLiJnL/cBBVmTPQfqAAFafFj8irH5/FVEsJ6v7chA/2/BJTPyjByrJzunlQsx/Kx9NrymFfWoB36xpQ9y9PIfA6AFxD539MRerrVrT++SjKLVPQuPvX+F2bh7L/OAEr5gP1Dc246jhH41HUT16F9OQpbrtfPbYFz276E5BWiroTB7BxdjMq3pLt8EMfan+ThoIzc1F8sAkn/5CNBw69jDUVn7if22hfwzYpx83nynHyz0fx2sKL2Pn8FtRf0S/iqd8W49/nFuHdIzuQ/tA5/O6Vt8UvAR7yqttW3tSDnsYSlFxMxI4/HkVNzhyceiMHBYfk9xBWoeI/foa3T3eg3BIEfN6BbvN61PxbE07WbERs1zvI26q8B/XU/yhF+6IdqDuyA6mTm7HzJal8GMThF3+BjAo7lhYcwAcnrHjtqUnOdgZaUFTUhHnbD6Bu1yoEny3Fumqpna6fw87nc1D2QxrePtGED/7lCXTv/jU2HrsG4BOUZW1E9f0ZqDnRhJN/yMOsoZHdQ0pERONAUOn4+KL6LZ/hN4Jw9yuC0HFZfH3luiB0fymlf1kQ7isQ95H/8+jSASF17hPCjlbp9fcfC3uS5wvzdp117tK2a74wa+5rQpvznbPCjrnzhVnOfdSv7cKh3PnCrLQDwheyU31zZJ0wa+4q4e1u2TH//J7wjbT90+pVsu2CINjfE9bMnS+sOWjXyLhdqMmZL8zKOSgMaOZBEIT+g7LjxXLNKmgSbniqE8Vx6vIrzyOWaZ1w6CtXnpLKPtbMr3ud3BA+KJKl3fGGMG/uz4U9/+E66vzenwuzFrwhtKnz4WFf3TaR1bdwtUF4ae58Yc27GvUr1YG8H4jtkyfU9HtzfmXZXW3lRT24ce8rgnBReDt1vjAr9z1hwFk3G4RjVzUTEARBVX9S+eRt9UVNtqt8H5cLSXPnCxtPuPeWgYN5wiz5NePIi9QXB97Nk/UJQRCEq8Kx9Y68Sv0w5y3hvF1K+3v9PBMR0fjwFLeNye/oAcD3fwf+yz6g8Z+AqB+JS7hXbwDP/gH4my/35Uk666rQjiG0p5vFpT6HA0dx6oVoLAwcTi4v49PTANLmIlz27tSQMADH0fu17M2wMEx1bJ8s3ksXOFl6IygMEYBrucx2BtVvWVHf2oOBvk/QfQVAopdZGuxBex+Q9PgcaBXJfvIdVBw6jlMX7ej9qAdXASR5kezU5FVIn5yDupPXsHxBE+qbwpD6whyNPbXqJBAPTHbtYb/4CYbQh9+tNON3imNvuufXh30d5z//AQBsxIKojYotSQbLpgsjQp3/d7SPV+fXbSvP9aBL1leAKQh8CMD3N2Q7BCNYPpF67RMcrrWiru4segd70KnxlOwsk6tMgXdPcpXvQgd6kYCYuXoXQBxcVSPlRdJ7oRkAsO6nZqyTH5J4A8AcZJUVwv5qCZ59qgRT56/Clt9uxPIf65aaiIgmoDEL9ADxZ1OS/idwMh+Y+TDwq7eBSwbLb7p++ASNtX0IXLER5StmuN7vsSJ7+zuoP7MOCxMDgcBAAEP4ZghAIIAfbugk6BCKWfEAWj9GL6KdH+hX+/sAJMg+IH0wdAZFz+SgccUOvPl6AYKnXsWxl36BAm+PDwpD1GSgovMihixBimBv6OQOPL2mGam7SvHmK0GYeq0B+cuKvEs38AmkZoXh2cYzaL9mReP8DBT+RGvHRxD+/wDo6oYd0QgGAFxDb59rj+CZcxCIPuRWVyF9hvzYSZgKKH56xNO+7kIx72kAU3bgg1cSlPtMdl9m9sTw/IZt5bkedF2/CkcXxA+DsF8EYJ6qGbgDfajOSUPR1HzU7C5HxEOTcH5vPDIqvSzfY3MQiLfReXEIMPn2bSd8dgKAKSj5twL8Z3kAe7fUNpEWFP6rBRv6mrFzbT7WvTITMf+6SvGliIiIJrYxfxjD/i2QWAbk/BFo6BpmIh83o7YvEKkrfomFi55w/Ut7DumTgepD4r1nEbMXA/gTyvadQa+tB4d37lDO/kGahes6g/aLZ9DeFYT/vOJnCDxbgnVvvI/OzwfRffJNvFx4HIG/sGCpaRh5vfYleq8DwCQEBg7B/kEVKpqM8qBOIBpLc2Zg6H+9jOzfS3n64E3UngWuDvaJN8oHTkLg0CDq365Cow9Zi3ragvCjpdhYfQ4p6T/X+cAOw8Kl0UDTThTsO4Puz3twal8J9sjvhZzzFLJm9qCs5C20XRkCMAR7hxUVrRr3cHmxr7pNnlyagMBD+1B2TJyxxLUeHNv3HrqHM2trdH7DtvKiHvQcKkXRgXNiH9y9BWV9gUi3JOgEtl/C3iXlYRJwtettVB7woXw/SUbuzCFU/+YFlB39BL22HjT+3urVbxgGP/ELJE1+H3vK3kP3NQC4iu7Gchy6GAjgHCp++z66bdcwdFcQwsN8yBMREU0YYxLoBd+vfG27BlSc8X5/pSGcerccvZN/iZQFqk/6u6KxNC0QOPoe/v0KMDU5H3vS/hO6f5+Dp39ViPNP5SBLcUA0UrdbENVaipUrC3DqOjB16Q588GY2go8V49llyVj2/7d3f7FNXXccwL9W14QNjTI6vOvGSPASoXkqnjLXDMIDKfPSFQf5IY07rRUO8h5sE6ntJkEmJ1ssIh5WHkLMQyLChCo1DCErcStSS1v3MKmNDMJIyajQVphIYmMEg6FBApvuHnxtX1/f6z8J+ePL9yNFiu899/yP8tM59yS//hR1h4bw+fHXNX4xl/HdFrz3q2YsjH+AvT9xI/xwD9oLtm2L66D0/UNn8ceeZsyf/y0OtO7DWx9eA74DbN4XwJG9Czjf9SZ2/XwID3a5Ktq2zdn+Bg7tuIF/fP06Wndpr46Z20/g7GEbpod+ida3exHb/C6O/FSWoP5VvPeHIfg2/Qkf7N+Hpt1v4p3T17DZrJJn2bTF/bG57UOMHXsNfx/yYu/uPWh6uxd/eaFhcStJpcovM1Zl+0GLO4D2f/0eB1pceH+8Du3HRnFkl1aU+iraj3Xgh1MncKDlZ3j/z9vR1l5F+17YDt/HZ9G7Zx4f9bqxt+VdHL8GaQWyDOENDH7cix//cxjvtO5B0243jn4OmL8HAC9jw+wQ3mrZg6YWL87XB3D2JFfziIhqjUEURVF+4epXN7Bj+zat9BXh/7pdo/53Ax/9woXjPxjC5d+8prGVSERERLWiXNy2LO/oeX7EwG2tWUjdwBfne3H86jb4ehnkERERPQ+W9TAGrRGpCAItv8MXQjN8Z07Ap3bYloiIiHSHgd7zQHBh+G+u1a4FERERrbAV/1+3RERERLQyGOgRERER6RQDPSIiIiKdYqBHREREpFMM9IiIiIh0ioEeERERkU7VSKCXQqzbD7dH9tU9gXQljyYn0FNp2kVIj4fQM56q+Ppymz7lx8jlFS8W06f8ufbK67CU+qTHQ3CfSuS+V8tfmX65+rxUO1ayz1drfFdWAiOeYUyvdjWIiHSgRgI9ABDQ2R/G6JnM18DOOLqe2S+DFGLdIcSSzySz55LFF0Zfm7C0TBRBubEtiFGfdcl1W3tqeL5dHs4F30REtPbVUKBXyNgWxIArhXOrsGpGREREVAtq+j9jGG024GQC6bZWGJHZ1grFM/caXUHVFabiNECsO4SRJIBuP0Zs3swqUnICPd1RXAcAWBE844UFQHZbKSZd7yz5DydS+bxleaTHQxiEDVsjUcRsXoz6IMtTXvcERjxx2ANAaDCziuIIhNHZJCW8PAy3dB0mJwb6W6Ubsjpm2wNotik9HkJXRAqY5elzbRgGDgfhMEllXtiCgf5sn4cw6wqiIeLHpF1WtzKKynSlcnXr8kThCISxfzaEQXirXClU73OgsvlRUC/F8wX9KvW3sWT5ivFS3pfPN/lYQkBnv9TfqrTqUa5sZObASaDZHMVIXGpfpfPCHpfqmIDbk61jYZny+VM8z62aYyAvq9HlxFatphMRUXVEhcS1r5WX1oCk+NnRPvGzOcXluYti8OhF8bYoilNhn3j6kkr6StIo85c9I4qiKF4aEjvCV6R0PjE4lpRuXBFPH5R/zrs91id2HMzneXusT8oje29InFJt6xXxdO5eJv/sc+KlIbEjW6+5i2JQJY+psE+W9xXx9MHifihsk7w8dfJ+mwr3icFcX+WfLUyj/r16G2UUdbw91pfrW/n36nmW7nPtsdemLFM+ZlNhn0p9lPlq9a0i3aWhwvmgMbal61Fh2XMXxeBBWV9UOy9y97PtKJz/8n5RznPNMVC0v/TPBxERyZWL22p6RQ8AYBZgRAqJGSAW9+dWxQDAMQfgleynFGa10ihXTuZu4XoygS5PNH/NtAVpADNwIpBbCbJiv0vAoEbVGl3e3KqMsc0JhyeOaVixGZlVC4ssbeFKkgBzErCYMmUEsytsTTY4BuO4AwDxOODyFuSRa1Mge90Ku20Yk3MAoNUmK8ymBELdExorVIDFbkVoMoHOJmByxoaOnXEpzxRu2mzoBKp8V1IoW+Ziqfe5UPnYF6zYArClAGTGO9+vgMXlzK0m56Uwk8wcHBrJXZOPpbr0bAqOQDA/lqZWdNj8mLwMWFRWSNXrIVRetsmJ/dl8Ned6+XkBpBQ/D8X9kp/n2j9/yvYb25xwROJa3UVERFWo6UBvOhIFzEHpk8Z2V8EL7+W2xGSKtjABJCdwc9G11ZYeD6FrxonRM1bktkrLuDOTwlZ7lYcf1NoEwNEfhiM5gR6PH9fV0kgB5nRyC7DTCosNOBdJIG2OY6s9WJRfeUL5Mp+5SsY+gRFPFOb+MEaz29ST1Zaj3O5dSYsse7HzomrqYzA9mQIalpg1ERGpqtnDGNOn/AjNZFcTBDSYUxiJlDoNWEkayStb0BiPFp+KNFnRjCg+yf15iwQ+iWgfBrn+ZfR6lisAAAMpSURBVCJ3gjQ9HkXMZlP9JXxnJoVGsxS0JRP4awWnMS12K2KDVZw61mpTlqkVfWe8cMTjKnlaYbelMBm5BbNNyPTDTBSDXwqwV/hOXvVlLo56n1c49skUbkJAgxSITE8Wpo/JPk9HosBOq2KlK7NSWe0BIWODUDiWyQmci1s1+1a9Hosre2nzQoAZUQzKylTvl0xarTGw2K2IXZgoHLfszWX+80hERHpXQyt6KYzIt6VsXoz251cYLL4gOrtDcHuyV4pXN7TTCLDuBLpyL8e3oi9wC25ZedkXxx2Hnejp9sMtPd/pEjRX+RrNtzDo8Wdecjc5MdCvviJicTmB7hDcEQAma2Urjk1eDLhC6PL4M58LDmOoMGm1KVWwVekIhFWDUYtdQOjCFgyYAEj9NTKjHriWl1Av02RFM0L5wxiLyFmrzyuZH9kt05DUpw5b4Xg5EIfbI6222rwYLTrMIcDR78WMRxrLXB2UW5/K+aYYS2nlS6tvtepRWdkK1c6LJhscg8P5wxjKMlX7JUNzDJq8CE76c9vHjS4nHLhVqtZERFQhgyiKovzC1a9uYMf2batVHyIiIiKqULm4rWa3bomIiIioNAZ6RERERDrFQI+IiIhIpxjoEREREekUAz0iIiIinWKgR0RERKRTDPSIiIiIdIqBHhEREZFOMdAjIiIi0ikGekREREQ6xUCPiIiISKcY6BERERHpFAM9IiIiIp0qCvQMBgNEUVyNuhARERFRhURRhMFgKJmmKNBbV1+HR48Xlq1SRERERLR0jx4vYF19Xck0RYHexg3rcff+w2WrFBEREREt3d37D7Fxw/qSaYoCPeOmlzD/5Cnu3HuwbBUjIiIiosW7c+8B5p88hXHTSyXTGUSVF/KePP0vbs6msa7uRby88dv41jfry+4BExEREdHyEUURjx4v4O79h5h/8hRbG4yoe/EbJZ9RDfSy0vce4P6//4P5hSc8oEFERES0igwGA9bV12HjhvVlV/Jyz5QK9IiIiIiodvHv6BERERHpFAM9IiIiIp1ioEdERESkUwz0iIiIiHSKgR4RERGRTjHQIyIiItKp/wPLcYwxtkxV4gAAAABJRU5ErkJggg==;" vertex="1" parent="1">
                    <mxGeometry x="640" y="40" width="634" height="767" as="geometry"/>
                </mxCell>
            </root>
        </mxGraphModel>
    </diagram>
</mxfile>